<?xml version="1.0" encoding="utf-8"?>
<!-- Generator: Adobe Illustrator 19.2.1, SVG Export Plug-In . SVG Version: 6.00 Build 0)  -->
<svg version="1.1" id="Layer_1" xmlns="http://www.w3.org/2000/svg" xmlns:xlink="http://www.w3.org/1999/xlink" x="0px" y="0px"
	 viewBox="0 0 1400 768" style="enable-background:new 0 0 1400 768;" xml:space="preserve">
<style type="text/css">
	.st0{fill:#2B2933;}
	.st1{opacity:0.35;}
	.st2{opacity:0.5;}
	.st3{fill:#676177;}
	.st4{fill:#202028;}
	.st5{fill:#FFFFFF;}
	.st6{opacity:0.75;fill:#FFFFFF;}
	.st7{fill:#544F64;}
	.st8{fill-rule:evenodd;clip-rule:evenodd;fill:#63ADA8;}
	.st9{fill:#625E72;}
	.st10{fill:#E6E6E6;}
	.st11{opacity:0.61;fill:#2B2933;}
	.st12{opacity:0.35;fill:#2B2933;}
	.st13{opacity:0.75;}
</style>
<rect x="-0.3" y="-0.8" class="st0" width="1400.4" height="711"/>
<g class="st1">
	<g class="st2">
		<g>
			<polygon class="st3" points="772.8,675 751.3,668.6 769.6,652.7 			"/>
			<path class="st3" d="M773.9,676.2l-24.4-7.2l20.7-18L773.9,676.2z M753.1,668.2l18.6,5.5l-2.8-19.2L753.1,668.2z"/>
		</g>
		<g>
			<polygon class="st3" points="786.6,680.2 784.4,663.6 800.8,671.3 			"/>
			<path class="st3" d="M785.9,681.7l-2.6-19.6l19.3,9.1L785.9,681.7z M785.5,665.1l1.8,13.6l11.6-7.3L785.5,665.1z"/>
		</g>
		<g>
			<path class="st3" d="M1327.9,668.2l-16.9-6.4c0.2-2.2-1.1-4.3-3.2-5.2c-2.6-1-5.5,0.3-6.5,2.9c-0.4,1.1-0.4,2.3-0.1,3.4
				c-1,0.6-1.8,1.4-2.2,2.6c-1,2.6,0.3,5.5,2.9,6.5c2.2,0.8,4.5,0,5.8-1.7l16.9,6.4c-0.2,2.2,1.1,4.3,3.2,5.2c2.6,1,5.5-0.3,6.5-2.9
				c0.4-1.1,0.4-2.3,0.1-3.4c1-0.6,1.8-1.4,2.2-2.6c1-2.6-0.3-5.5-2.9-6.5C1331.5,665.6,1329.2,666.4,1327.9,668.2z"/>
			<path class="st3" d="M1329.7,683c-0.7,0-1.4-0.1-2.1-0.4c-2.3-0.9-3.8-3-3.8-5.4l-15.7-5.9c-1.6,1.7-4.2,2.4-6.4,1.5
				c-1.5-0.6-2.6-1.7-3.3-3.1c-0.7-1.4-0.7-3-0.1-4.5c0.4-1.1,1.1-2,2-2.7c-0.2-1.1-0.2-2.3,0.3-3.3c1.1-3,4.6-4.6,7.6-3.4
				c2.3,0.9,3.8,3,3.8,5.4l15.7,5.9c1.6-1.7,4.2-2.4,6.4-1.5c1.5,0.6,2.6,1.7,3.3,3.1c0.7,1.4,0.7,3,0.1,4.5c-0.4,1.1-1.1,2-2,2.7
				c0.2,1.1,0.2,2.3-0.2,3.3C1334.3,681.5,1332.1,683,1329.7,683z M1307.5,669.2l18.2,6.9l-0.1,0.7c-0.2,1.8,0.9,3.6,2.7,4.2
				c1,0.4,2.2,0.4,3.2-0.1c1-0.5,1.8-1.3,2.2-2.3c0.3-0.9,0.4-1.9,0-2.8l-0.2-0.7l0.6-0.4c0.8-0.5,1.5-1.2,1.8-2.1
				c0.4-1,0.4-2.2-0.1-3.2c-0.5-1-1.3-1.8-2.3-2.2c-1.7-0.7-3.7-0.1-4.8,1.4l-0.4,0.5l-18.2-6.9l0.1-0.7c0.2-1.8-0.9-3.6-2.7-4.2
				c-1-0.4-2.2-0.4-3.2,0.1c-1,0.5-1.8,1.3-2.2,2.3c-0.3,0.9-0.4,1.9,0,2.8l0.2,0.7l-0.6,0.4c-0.8,0.5-1.5,1.2-1.8,2.1
				c-0.4,1-0.4,2.2,0.1,3.2c0.5,1,1.3,1.8,2.3,2.2c1.7,0.7,3.7,0.1,4.8-1.4L1307.5,669.2z"/>
		</g>
		<g>
			<path class="st3" d="M275.2,658.7l-17.5,4.7c-1.1-1.9-3.4-2.9-5.6-2.3c-2.7,0.7-4.3,3.5-3.5,6.2c0.3,1.2,1,2.1,1.9,2.8
				c-0.5,1-0.6,2.2-0.3,3.4c0.7,2.7,3.5,4.3,6.2,3.5c2.2-0.6,3.7-2.6,3.7-4.8l17.5-4.7c1.1,1.9,3.4,2.9,5.6,2.3
				c2.7-0.7,4.3-3.5,3.5-6.2c-0.3-1.2-1-2.1-1.9-2.8c0.5-1,0.6-2.2,0.3-3.4c-0.7-2.7-3.5-4.3-6.2-3.5
				C276.7,654.4,275.2,656.5,275.2,658.7z"/>
			<path class="st3" d="M255.1,678c-2.6,0-5-1.7-5.7-4.4c-0.3-1.1-0.3-2.3,0.1-3.3c-0.8-0.8-1.4-1.7-1.7-2.8
				c-0.4-1.5-0.2-3.1,0.6-4.5c0.8-1.4,2.1-2.3,3.6-2.8c2.3-0.6,4.8,0.2,6.2,2.1l16.2-4.4c0.3-2.4,2-4.4,4.3-5c3.1-0.9,6.4,1,7.2,4.2
				c0.3,1.1,0.3,2.3-0.1,3.3c0.8,0.8,1.4,1.7,1.7,2.8c0.9,3.1-1,6.4-4.2,7.2c-2.3,0.6-4.8-0.2-6.2-2.1l-16.2,4.4
				c-0.3,2.4-2,4.4-4.3,5C256.1,677.9,255.6,678,255.1,678z M253.4,661.8c-0.4,0-0.7,0-1.1,0.1c-1.1,0.3-2,1-2.5,1.9
				c-0.6,1-0.7,2.1-0.4,3.1c0.3,0.9,0.8,1.7,1.6,2.3l0.6,0.4l-0.3,0.7c-0.4,0.9-0.5,1.8-0.2,2.8c0.6,2.2,2.9,3.5,5.1,2.9
				c1.8-0.5,3-2.1,3.1-4l0-0.7l18.8-5.1l0.3,0.6c0.9,1.6,2.9,2.4,4.6,1.9c2.2-0.6,3.5-2.9,2.9-5.1c-0.3-0.9-0.8-1.7-1.6-2.3
				l-0.6-0.4l0.3-0.7c0.4-0.9,0.5-1.9,0.2-2.8c-0.6-2.2-2.9-3.5-5.1-2.9c-1.8,0.5-3,2.1-3.1,4l0,0.7l-18.8,5.1l-0.3-0.6
				C256.2,662.6,254.9,661.8,253.4,661.8z"/>
		</g>
	</g>
	<g class="st2">
		<circle class="st3" cx="889" cy="664.5" r="12.8"/>
		<path class="st3" d="M889,678.2c-7.5,0-13.7-6.1-13.7-13.7s6.1-13.7,13.7-13.7s13.7,6.1,13.7,13.7S896.6,678.2,889,678.2z
			 M889,652.6c-6.6,0-11.9,5.3-11.9,11.9s5.3,11.9,11.9,11.9s11.9-5.3,11.9-11.9S895.6,652.6,889,652.6z"/>
	</g>
	<g class="st2">
		<circle class="st3" cx="914.2" cy="672" r="5.3"/>
		<path class="st3" d="M914.2,678.2c-3.4,0-6.2-2.8-6.2-6.2c0-3.4,2.8-6.2,6.2-6.2c3.4,0,6.2,2.8,6.2,6.2
			C920.4,675.4,917.6,678.2,914.2,678.2z M914.2,667.6c-2.4,0-4.4,2-4.4,4.4c0,2.4,2,4.4,4.4,4.4s4.4-2,4.4-4.4
			C918.6,669.6,916.6,667.6,914.2,667.6z"/>
	</g>
	<g class="st2">
		
			<ellipse transform="matrix(0.1215 -0.9926 0.9926 0.1215 -75.9304 1245.3456)" class="st3" cx="665.6" cy="665.6" rx="12.8" ry="12.8"/>
		<path class="st3" d="M665.6,679.3c-0.6,0-1.1,0-1.7-0.1c-7.5-0.9-12.8-7.8-11.9-15.2l0,0c0.9-7.5,7.8-12.8,15.2-11.9
			c7.5,0.9,12.8,7.8,11.9,15.2c-0.4,3.6-2.3,6.9-5.2,9.1C671.6,678.3,668.7,679.3,665.6,679.3z M653.8,664.1
			c-0.8,6.5,3.9,12.5,10.4,13.3c3.2,0.4,6.3-0.5,8.8-2.4c2.5-2,4.1-4.8,4.5-7.9c0.8-6.5-3.9-12.5-10.4-13.3
			C660.5,652.9,654.6,657.6,653.8,664.1L653.8,664.1z"/>
	</g>
	<g class="st2">
		
			<ellipse transform="matrix(0.1215 -0.9926 0.9926 0.1215 -583.1959 687.5954)" class="st3" cx="96.9" cy="673.3" rx="12.8" ry="12.8"/>
		<path class="st3" d="M96.9,687c-0.6,0-1.1,0-1.7-0.1c-7.5-0.9-12.8-7.8-11.9-15.2l0,0c0.4-3.6,2.3-6.9,5.2-9.1
			c2.9-2.3,6.5-3.2,10.1-2.8c3.6,0.4,6.9,2.3,9.1,5.2c2.3,2.9,3.2,6.5,2.8,10.1C109.6,681.9,103.7,687,96.9,687z M96.8,661.4
			c-2.6,0-5.2,0.9-7.3,2.5c-2.5,2-4.1,4.8-4.5,7.9l0,0c-0.8,6.5,3.9,12.5,10.4,13.3c3.2,0.4,6.3-0.5,8.8-2.4c2.5-2,4.1-4.8,4.5-7.9
			c0.4-3.2-0.5-6.3-2.4-8.8c-2-2.5-4.8-4.1-7.9-4.5C97.8,661.4,97.3,661.4,96.8,661.4z"/>
	</g>
	<g class="st2">
		
			<ellipse transform="matrix(0.1215 -0.9926 0.9926 0.1215 -86.6444 1212.2294)" class="st3" cx="641.5" cy="655.1" rx="5.3" ry="5.3"/>
		<path class="st3" d="M641.5,661.2c-0.3,0-0.5,0-0.8,0c-1.6-0.2-3.1-1-4.1-2.3c-1-1.3-1.5-2.9-1.3-4.6c0.2-1.6,1-3.1,2.3-4.1
			c1.3-1,2.9-1.5,4.6-1.3c1.6,0.2,3.1,1,4.1,2.3c1,1.3,1.5,2.9,1.3,4.6c-0.2,1.6-1,3.1-2.3,4.1C644.2,660.8,642.9,661.2,641.5,661.2
			z M641.5,650.6c-1,0-1.9,0.3-2.7,0.9c-0.9,0.7-1.5,1.8-1.7,2.9l0,0c-0.1,1.2,0.2,2.3,0.9,3.3c0.7,0.9,1.8,1.5,2.9,1.7
			c1.2,0.1,2.3-0.2,3.3-0.9c0.9-0.7,1.5-1.8,1.7-2.9c0.1-1.2-0.2-2.3-0.9-3.3c-0.7-0.9-1.8-1.5-2.9-1.7
			C641.9,650.7,641.7,650.6,641.5,650.6z"/>
	</g>
	<g class="st2">
		
			<ellipse transform="matrix(0.1215 -0.9926 0.9926 0.1215 441.0616 1852.5813)" class="st3" cx="1267.1" cy="677.1" rx="5.3" ry="5.3"/>
		<path class="st3" d="M1267.2,683.3c-0.3,0-0.5,0-0.8,0c-3.4-0.4-5.8-3.5-5.4-6.9l0,0c0.4-3.4,3.5-5.8,6.9-5.4
			c1.6,0.2,3.1,1,4.1,2.3c1,1.3,1.5,2.9,1.3,4.6c-0.2,1.6-1,3.1-2.3,4.1C1269.9,682.8,1268.5,683.3,1267.2,683.3z M1262.8,676.6
			c-0.3,2.4,1.4,4.6,3.8,4.9c2.4,0.3,4.6-1.4,4.9-3.8c0.1-1.2-0.2-2.3-0.9-3.3c-0.7-0.9-1.8-1.5-2.9-1.7
			C1265.3,672.4,1263.1,674.2,1262.8,676.6L1262.8,676.6z"/>
	</g>
	<g class="st2">
		
			<ellipse transform="matrix(0.1215 -0.9926 0.9926 0.1215 -549.2149 690.1904)" class="st3" cx="115.3" cy="655.4" rx="5.3" ry="5.3"/>
		<path class="st3" d="M115.3,661.6c-0.3,0-0.5,0-0.8,0c-1.6-0.2-3.1-1-4.1-2.3c-1-1.3-1.5-2.9-1.3-4.6l0,0c0.4-3.4,3.5-5.8,6.9-5.4
			c1.6,0.2,3.1,1,4.1,2.3c1,1.3,1.5,2.9,1.3,4.6c-0.2,1.6-1,3.1-2.3,4.1C118,661.1,116.7,661.6,115.3,661.6z M110.9,654.8
			c-0.1,1.2,0.2,2.3,0.9,3.3s1.8,1.5,2.9,1.7c1.2,0.1,2.3-0.2,3.3-0.9c0.9-0.7,1.5-1.8,1.7-2.9c0.1-1.2-0.2-2.3-0.9-3.3
			s-1.8-1.5-2.9-1.7C113.4,650.7,111.2,652.4,110.9,654.8L110.9,654.8z"/>
	</g>
</g>
<g>
	<path class="st4" d="M1127.2,30.1H241.9c-0.5,0-0.9-0.4-0.9-0.9s0.4-0.9,0.9-0.9h885.3c0.5,0,0.9,0.4,0.9,0.9
		S1127.7,30.1,1127.2,30.1z"/>
	<path class="st4" d="M220.2,30.1H1.6c-0.5,0-0.9-0.4-0.9-0.9s0.4-0.9,0.9-0.9h218.6c0.5,0,0.9,0.4,0.9,0.9S220.7,30.1,220.2,30.1z"
		/>
	<path class="st4" d="M1269.9,44.3H496.7c-0.5,0-0.9-0.4-0.9-0.9s0.4-0.9,0.9-0.9h773.3c0.5,0,0.9,0.4,0.9,0.9
		S1270.4,44.3,1269.9,44.3z"/>
	<path class="st4" d="M476.8,44.3H1.6c-0.5,0-0.9-0.4-0.9-0.9s0.4-0.9,0.9-0.9h475.2c0.5,0,0.9,0.4,0.9,0.9S477.3,44.3,476.8,44.3z"
		/>
	<path class="st4" d="M1400,44.3H1290c-0.5,0-0.9-0.4-0.9-0.9s0.4-0.9,0.9-0.9H1400c0.5,0,0.9,0.4,0.9,0.9S1400.5,44.3,1400,44.3z"
		/>
	<path class="st4" d="M1400,72.7H147.9c-0.5,0-0.9-0.4-0.9-0.9s0.4-0.9,0.9-0.9H1400c0.5,0,0.9,0.4,0.9,0.9S1400.5,72.7,1400,72.7z"
		/>
	<path class="st4" d="M126.3,72.7H-0.2c-0.5,0-0.9-0.4-0.9-0.9s0.4-0.9,0.9-0.9h126.5c0.5,0,0.9,0.4,0.9,0.9S126.7,72.7,126.3,72.7z
		"/>
	<path class="st4" d="M502.1,101.1H1.6c-0.5,0-0.9-0.4-0.9-0.9s0.4-0.9,0.9-0.9h500.5c0.5,0,0.9,0.4,0.9,0.9
		S502.5,101.1,502.1,101.1z"/>
	<path class="st4" d="M1400,115.3H202.2c-0.5,0-0.9-0.4-0.9-0.9s0.4-0.9,0.9-0.9H1400c0.5,0,0.9,0.4,0.9,0.9
		S1400.5,115.3,1400,115.3z"/>
	<path class="st4" d="M182.2,115.3H1.6c-0.5,0-0.9-0.4-0.9-0.9s0.4-0.9,0.9-0.9h180.7c0.5,0,0.9,0.4,0.9,0.9
		S182.7,115.3,182.2,115.3z"/>
	<path class="st4" d="M1400,143.7h-310.7c-0.5,0-0.9-0.4-0.9-0.9s0.4-0.9,0.9-0.9H1400c0.5,0,0.9,0.4,0.9,0.9
		S1400.5,143.7,1400,143.7z"/>
	<path class="st4" d="M1069.4,143.7H364.8c-0.5,0-0.9-0.4-0.9-0.9s0.4-0.9,0.9-0.9h704.6c0.5,0,0.9,0.4,0.9,0.9
		S1069.9,143.7,1069.4,143.7z"/>
	<path class="st4" d="M344.9,143.7H1.6c-0.5,0-0.9-0.4-0.9-0.9s0.4-0.9,0.9-0.9h343.3c0.5,0,0.9,0.4,0.9,0.9
		S345.4,143.7,344.9,143.7z"/>
	<path class="st4" d="M874.3,157.8H1.6c-0.5,0-0.9-0.4-0.9-0.9s0.4-0.9,0.9-0.9h872.7c0.5,0,0.9,0.4,0.9,0.9
		S874.7,157.8,874.3,157.8z"/>
	<path class="st4" d="M1400,172H1.6c-0.5,0-0.9-0.4-0.9-0.9c0-0.5,0.4-0.9,0.9-0.9H1400c0.5,0,0.9,0.4,0.9,0.9
		C1400.9,171.6,1400.5,172,1400,172z"/>
	<path class="st4" d="M502.1,186.2H1.6c-0.5,0-0.9-0.4-0.9-0.9s0.4-0.9,0.9-0.9h500.5c0.5,0,0.9,0.4,0.9,0.9
		S502.5,186.2,502.1,186.2z"/>
	<path class="st4" d="M1400,200.4H211.2c-0.5,0-0.9-0.4-0.9-0.9s0.4-0.9,0.9-0.9H1400c0.5,0,0.9,0.4,0.9,0.9
		S1400.5,200.4,1400,200.4z"/>
	<path class="st4" d="M191.5,200.4H-0.2c-0.5,0-0.9-0.4-0.9-0.9s0.4-0.9,0.9-0.9h191.7c0.5,0,0.9,0.4,0.9,0.9
		S191.9,200.4,191.5,200.4z"/>
	<path class="st4" d="M1127.2,214.6H1.6c-0.5,0-0.9-0.4-0.9-0.9s0.4-0.9,0.9-0.9h1125.6c0.5,0,0.9,0.4,0.9,0.9
		S1127.7,214.6,1127.2,214.6z"/>
	<path class="st4" d="M502.1,228.8H1.6c-0.5,0-0.9-0.4-0.9-0.9s0.4-0.9,0.9-0.9h500.5c0.5,0,0.9,0.4,0.9,0.9
		S502.5,228.8,502.1,228.8z"/>
	<path class="st4" d="M1400,101.1H521.9c-0.5,0-0.9-0.4-0.9-0.9s0.4-0.9,0.9-0.9H1400c0.5,0,0.9,0.4,0.9,0.9
		S1400.5,101.1,1400,101.1z"/>
	<path class="st4" d="M1400,228.8H521.9c-0.5,0-0.9-0.4-0.9-0.9s0.4-0.9,0.9-0.9H1400c0.5,0,0.9,0.4,0.9,0.9
		S1400.5,228.8,1400,228.8z"/>
	<path class="st4" d="M1235.6,243H254.5c-0.5,0-0.9-0.4-0.9-0.9s0.4-0.9,0.9-0.9h981.1c0.5,0,0.9,0.4,0.9,0.9S1236.1,243,1235.6,243
		z"/>
	<path class="st4" d="M234.7,243H1.6c-0.5,0-0.9-0.4-0.9-0.9s0.4-0.9,0.9-0.9h233.1c0.5,0,0.9,0.4,0.9,0.9S235.1,243,234.7,243z"/>
	<path class="st4" d="M1400,30.1h-258.4c-0.5,0-0.9-0.4-0.9-0.9s0.4-0.9,0.9-0.9H1400c0.5,0,0.9,0.4,0.9,0.9S1400.5,30.1,1400,30.1z
		"/>
	<path class="st4" d="M1400,157.8H888.7c-0.5,0-0.9-0.4-0.9-0.9s0.4-0.9,0.9-0.9H1400c0.5,0,0.9,0.4,0.9,0.9
		S1400.5,157.8,1400,157.8z"/>
	<path class="st4" d="M1400,186.2H523.7c-0.5,0-0.9-0.4-0.9-0.9s0.4-0.9,0.9-0.9H1400c0.5,0,0.9,0.4,0.9,0.9
		S1400.5,186.2,1400,186.2z"/>
	<path class="st4" d="M1400,214.6h-247.6c-0.5,0-0.9-0.4-0.9-0.9s0.4-0.9,0.9-0.9H1400c0.5,0,0.9,0.4,0.9,0.9
		S1400.5,214.6,1400,214.6z"/>
	<path class="st4" d="M1400,243h-139.1c-0.5,0-0.9-0.4-0.9-0.9s0.4-0.9,0.9-0.9H1400c0.5,0,0.9,0.4,0.9,0.9S1400.5,243,1400,243z"/>
</g>
<g>
	<path class="st4" d="M502.1,257.3H1.6c-0.5,0-0.9-0.4-0.9-0.9c0-0.5,0.4-0.9,0.9-0.9h500.5c0.5,0,0.9,0.4,0.9,0.9
		C502.9,256.9,502.5,257.3,502.1,257.3z"/>
	<path class="st4" d="M1127.2,271.5H241.9c-0.5,0-0.9-0.4-0.9-0.9s0.4-0.9,0.9-0.9h885.3c0.5,0,0.9,0.4,0.9,0.9
		S1127.7,271.5,1127.2,271.5z"/>
	<path class="st4" d="M220.2,271.5H1.6c-0.5,0-0.9-0.4-0.9-0.9s0.4-0.9,0.9-0.9h218.6c0.5,0,0.9,0.4,0.9,0.9
		S220.7,271.5,220.2,271.5z"/>
	<path class="st4" d="M1269.9,285.7H496.7c-0.5,0-0.9-0.4-0.9-0.9s0.4-0.9,0.9-0.9h773.3c0.5,0,0.9,0.4,0.9,0.9
		S1270.4,285.7,1269.9,285.7z"/>
	<path class="st4" d="M476.8,285.7H1.6c-0.5,0-0.9-0.4-0.9-0.9s0.4-0.9,0.9-0.9h475.2c0.5,0,0.9,0.4,0.9,0.9
		S477.3,285.7,476.8,285.7z"/>
	<path class="st4" d="M1400,285.7H1290c-0.5,0-0.9-0.4-0.9-0.9s0.4-0.9,0.9-0.9H1400c0.5,0,0.9,0.4,0.9,0.9S1400.5,285.7,1400,285.7
		z"/>
	<path class="st4" d="M738.7,299.9H1.6c-0.5,0-0.9-0.4-0.9-0.9s0.4-0.9,0.9-0.9h737.2c0.5,0,0.9,0.4,0.9,0.9
		S739.2,299.9,738.7,299.9z"/>
	<path class="st4" d="M1400,314.1H147.9c-0.5,0-0.9-0.4-0.9-0.9s0.4-0.9,0.9-0.9H1400c0.5,0,0.9,0.4,0.9,0.9
		S1400.5,314.1,1400,314.1z"/>
	<path class="st4" d="M126.3,314.1H-0.2c-0.5,0-0.9-0.4-0.9-0.9s0.4-0.9,0.9-0.9h126.5c0.5,0,0.9,0.4,0.9,0.9
		S126.7,314.1,126.3,314.1z"/>
	<path class="st4" d="M933.9,328.3H1.6c-0.5,0-0.9-0.4-0.9-0.9s0.4-0.9,0.9-0.9h932.3c0.5,0,0.9,0.4,0.9,0.9
		S934.4,328.3,933.9,328.3z"/>
	<path class="st4" d="M502.1,342.5H1.6c-0.5,0-0.9-0.4-0.9-0.9s0.4-0.9,0.9-0.9h500.5c0.5,0,0.9,0.4,0.9,0.9
		S502.5,342.5,502.1,342.5z"/>
	<path class="st4" d="M1400,356.6H202.2c-0.5,0-0.9-0.4-0.9-0.9s0.4-0.9,0.9-0.9H1400c0.5,0,0.9,0.4,0.9,0.9
		S1400.5,356.6,1400,356.6z"/>
	<path class="st4" d="M182.2,356.6H1.6c-0.5,0-0.9-0.4-0.9-0.9s0.4-0.9,0.9-0.9h180.7c0.5,0,0.9,0.4,0.9,0.9
		S182.7,356.6,182.2,356.6z"/>
	<path class="st4" d="M1159.7,370.8H1.6c-0.5,0-0.9-0.4-0.9-0.9s0.4-0.9,0.9-0.9h1158.1c0.5,0,0.9,0.4,0.9,0.9
		S1160.2,370.8,1159.7,370.8z"/>
	<path class="st4" d="M1400,385h-310.7c-0.5,0-0.9-0.4-0.9-0.9s0.4-0.9,0.9-0.9H1400c0.5,0,0.9,0.4,0.9,0.9S1400.5,385,1400,385z"/>
	<path class="st4" d="M1069.4,385H364.8c-0.5,0-0.9-0.4-0.9-0.9s0.4-0.9,0.9-0.9h704.6c0.5,0,0.9,0.4,0.9,0.9S1069.9,385,1069.4,385
		z"/>
	<path class="st4" d="M344.9,385H1.6c-0.5,0-0.9-0.4-0.9-0.9s0.4-0.9,0.9-0.9h343.3c0.5,0,0.9,0.4,0.9,0.9S345.4,385,344.9,385z"/>
	<path class="st4" d="M874.3,399.2H1.6c-0.5,0-0.9-0.4-0.9-0.9s0.4-0.9,0.9-0.9h872.7c0.5,0,0.9,0.4,0.9,0.9
		S874.7,399.2,874.3,399.2z"/>
	<path class="st4" d="M1400,413.4H1.6c-0.5,0-0.9-0.4-0.9-0.9s0.4-0.9,0.9-0.9H1400c0.5,0,0.9,0.4,0.9,0.9S1400.5,413.4,1400,413.4z
		"/>
	<path class="st4" d="M502.1,427.6H1.6c-0.5,0-0.9-0.4-0.9-0.9s0.4-0.9,0.9-0.9h500.5c0.5,0,0.9,0.4,0.9,0.9
		S502.5,427.6,502.1,427.6z"/>
	<path class="st4" d="M1400,441.8H211.2c-0.5,0-0.9-0.4-0.9-0.9s0.4-0.9,0.9-0.9H1400c0.5,0,0.9,0.4,0.9,0.9
		S1400.5,441.8,1400,441.8z"/>
	<path class="st4" d="M191.5,441.8H-0.2c-0.5,0-0.9-0.4-0.9-0.9s0.4-0.9,0.9-0.9h191.7c0.5,0,0.9,0.4,0.9,0.9
		S191.9,441.8,191.5,441.8z"/>
	<path class="st4" d="M1127.2,456H1.6c-0.5,0-0.9-0.4-0.9-0.9s0.4-0.9,0.9-0.9h1125.6c0.5,0,0.9,0.4,0.9,0.9S1127.7,456,1127.2,456z
		"/>
	<path class="st4" d="M502.1,470.2H1.6c-0.5,0-0.9-0.4-0.9-0.9s0.4-0.9,0.9-0.9h500.5c0.5,0,0.9,0.4,0.9,0.9
		S502.5,470.2,502.1,470.2z"/>
	<path class="st4" d="M1400,257.3H521.9c-0.5,0-0.9-0.4-0.9-0.9c0-0.5,0.4-0.9,0.9-0.9H1400c0.5,0,0.9,0.4,0.9,0.9
		C1400.9,256.9,1400.5,257.3,1400,257.3z"/>
	<path class="st4" d="M1400,342.5H521.9c-0.5,0-0.9-0.4-0.9-0.9s0.4-0.9,0.9-0.9H1400c0.5,0,0.9,0.4,0.9,0.9
		S1400.5,342.5,1400,342.5z"/>
	<path class="st4" d="M1400,470.2H521.9c-0.5,0-0.9-0.4-0.9-0.9s0.4-0.9,0.9-0.9H1400c0.5,0,0.9,0.4,0.9,0.9
		S1400.5,470.2,1400,470.2z"/>
	<path class="st4" d="M1235.6,484.4H254.5c-0.5,0-0.9-0.4-0.9-0.9s0.4-0.9,0.9-0.9h981.1c0.5,0,0.9,0.4,0.9,0.9
		S1236.1,484.4,1235.6,484.4z"/>
	<path class="st4" d="M234.7,484.4H1.6c-0.5,0-0.9-0.4-0.9-0.9s0.4-0.9,0.9-0.9h233.1c0.5,0,0.9,0.4,0.9,0.9
		S235.1,484.4,234.7,484.4z"/>
	<path class="st4" d="M1400,271.5h-258.4c-0.5,0-0.9-0.4-0.9-0.9s0.4-0.9,0.9-0.9H1400c0.5,0,0.9,0.4,0.9,0.9
		S1400.5,271.5,1400,271.5z"/>
	<path class="st4" d="M1400,299.9H758.6c-0.5,0-0.9-0.4-0.9-0.9s0.4-0.9,0.9-0.9H1400c0.5,0,0.9,0.4,0.9,0.9
		S1400.5,299.9,1400,299.9z"/>
	<path class="st4" d="M1400,328.3H951.9c-0.5,0-0.9-0.4-0.9-0.9s0.4-0.9,0.9-0.9H1400c0.5,0,0.9,0.4,0.9,0.9
		S1400.5,328.3,1400,328.3z"/>
	<path class="st4" d="M1400,370.8h-220.5c-0.5,0-0.9-0.4-0.9-0.9s0.4-0.9,0.9-0.9H1400c0.5,0,0.9,0.4,0.9,0.9
		S1400.5,370.8,1400,370.8z"/>
	<path class="st4" d="M1400,399.2H888.7c-0.5,0-0.9-0.4-0.9-0.9s0.4-0.9,0.9-0.9H1400c0.5,0,0.9,0.4,0.9,0.9
		S1400.5,399.2,1400,399.2z"/>
	<path class="st4" d="M1400,427.6H523.7c-0.5,0-0.9-0.4-0.9-0.9s0.4-0.9,0.9-0.9H1400c0.5,0,0.9,0.4,0.9,0.9
		S1400.5,427.6,1400,427.6z"/>
	<path class="st4" d="M1400,456h-247.6c-0.5,0-0.9-0.4-0.9-0.9s0.4-0.9,0.9-0.9H1400c0.5,0,0.9,0.4,0.9,0.9S1400.5,456,1400,456z"/>
	<path class="st4" d="M1400,484.4h-139.1c-0.5,0-0.9-0.4-0.9-0.9s0.4-0.9,0.9-0.9H1400c0.5,0,0.9,0.4,0.9,0.9
		S1400.5,484.4,1400,484.4z"/>
</g>
<g>
	<path class="st4" d="M502.1,496.7H1.6c-0.5,0-0.9-0.4-0.9-0.9s0.4-0.9,0.9-0.9h500.5c0.5,0,0.9,0.4,0.9,0.9
		S502.5,496.7,502.1,496.7z"/>
	<path class="st4" d="M1127.2,510.9H241.9c-0.5,0-0.9-0.4-0.9-0.9s0.4-0.9,0.9-0.9h885.3c0.5,0,0.9,0.4,0.9,0.9
		S1127.7,510.9,1127.2,510.9z"/>
	<path class="st4" d="M220.2,510.9H1.6c-0.5,0-0.9-0.4-0.9-0.9s0.4-0.9,0.9-0.9h218.6c0.5,0,0.9,0.4,0.9,0.9
		S220.7,510.9,220.2,510.9z"/>
	<path class="st4" d="M1269.9,525.1H496.7c-0.5,0-0.9-0.4-0.9-0.9c0-0.5,0.4-0.9,0.9-0.9h773.3c0.5,0,0.9,0.4,0.9,0.9
		C1270.8,524.7,1270.4,525.1,1269.9,525.1z"/>
	<path class="st4" d="M476.8,525.1H1.6c-0.5,0-0.9-0.4-0.9-0.9c0-0.5,0.4-0.9,0.9-0.9h475.2c0.5,0,0.9,0.4,0.9,0.9
		C477.6,524.7,477.3,525.1,476.8,525.1z"/>
	<path class="st4" d="M1400,525.1H1290c-0.5,0-0.9-0.4-0.9-0.9c0-0.5,0.4-0.9,0.9-0.9H1400c0.5,0,0.9,0.4,0.9,0.9
		C1400.9,524.7,1400.5,525.1,1400,525.1z"/>
	<path class="st4" d="M738.7,539.3H1.6c-0.5,0-0.9-0.4-0.9-0.9c0-0.5,0.4-0.9,0.9-0.9h737.2c0.5,0,0.9,0.4,0.9,0.9
		C739.6,538.9,739.2,539.3,738.7,539.3z"/>
	<path class="st4" d="M1400,553.5H147.9c-0.5,0-0.9-0.4-0.9-0.9c0-0.5,0.4-0.9,0.9-0.9H1400c0.5,0,0.9,0.4,0.9,0.9
		C1400.9,553.1,1400.5,553.5,1400,553.5z"/>
	<path class="st4" d="M126.3,553.5H-0.2c-0.5,0-0.9-0.4-0.9-0.9c0-0.5,0.4-0.9,0.9-0.9h126.5c0.5,0,0.9,0.4,0.9,0.9
		C127.1,553.1,126.7,553.5,126.3,553.5z"/>
	<path class="st4" d="M933.9,567.7H1.6c-0.5,0-0.9-0.4-0.9-0.9c0-0.5,0.4-0.9,0.9-0.9h932.3c0.5,0,0.9,0.4,0.9,0.9
		C934.8,567.3,934.4,567.7,933.9,567.7z"/>
	<path class="st4" d="M502.1,581.9H1.6c-0.5,0-0.9-0.4-0.9-0.9c0-0.5,0.4-0.9,0.9-0.9h500.5c0.5,0,0.9,0.4,0.9,0.9
		C502.9,581.5,502.5,581.9,502.1,581.9z"/>
	<path class="st4" d="M1400,596.1H202.2c-0.5,0-0.9-0.4-0.9-0.9c0-0.5,0.4-0.9,0.9-0.9H1400c0.5,0,0.9,0.4,0.9,0.9
		C1400.9,595.7,1400.5,596.1,1400,596.1z"/>
	<path class="st4" d="M182.2,596.1H1.6c-0.5,0-0.9-0.4-0.9-0.9c0-0.5,0.4-0.9,0.9-0.9h180.7c0.5,0,0.9,0.4,0.9,0.9
		C183.1,595.7,182.7,596.1,182.2,596.1z"/>
	<path class="st4" d="M1159.7,610.2H1.6c-0.5,0-0.9-0.4-0.9-0.9c0-0.5,0.4-0.9,0.9-0.9h1158.1c0.5,0,0.9,0.4,0.9,0.9
		C1160.6,609.9,1160.2,610.2,1159.7,610.2z"/>
	<path class="st4" d="M1400,624.4h-310.7c-0.5,0-0.9-0.4-0.9-0.9c0-0.5,0.4-0.9,0.9-0.9H1400c0.5,0,0.9,0.4,0.9,0.9
		C1400.9,624,1400.5,624.4,1400,624.4z"/>
	<path class="st4" d="M1069.4,624.4H364.8c-0.5,0-0.9-0.4-0.9-0.9c0-0.5,0.4-0.9,0.9-0.9h704.6c0.5,0,0.9,0.4,0.9,0.9
		C1070.3,624,1069.9,624.4,1069.4,624.4z"/>
	<path class="st4" d="M344.9,624.4H1.6c-0.5,0-0.9-0.4-0.9-0.9c0-0.5,0.4-0.9,0.9-0.9h343.3c0.5,0,0.9,0.4,0.9,0.9
		C345.8,624,345.4,624.4,344.9,624.4z"/>
	<path class="st4" d="M874.3,638.6H1.6c-0.5,0-0.9-0.4-0.9-0.9c0-0.5,0.4-0.9,0.9-0.9h872.7c0.5,0,0.9,0.4,0.9,0.9
		C875.1,638.2,874.7,638.6,874.3,638.6z"/>
	<path class="st4" d="M1400,652.8H1.6c-0.5,0-0.9-0.4-0.9-0.9c0-0.5,0.4-0.9,0.9-0.9H1400c0.5,0,0.9,0.4,0.9,0.9
		C1400.9,652.4,1400.5,652.8,1400,652.8z"/>
	<path class="st4" d="M502.1,667H1.6c-0.5,0-0.9-0.4-0.9-0.9c0-0.5,0.4-0.9,0.9-0.9h500.5c0.5,0,0.9,0.4,0.9,0.9
		C502.9,666.6,502.5,667,502.1,667z"/>
	<path class="st4" d="M1400,681.2H211.2c-0.5,0-0.9-0.4-0.9-0.9c0-0.5,0.4-0.9,0.9-0.9H1400c0.5,0,0.9,0.4,0.9,0.9
		C1400.9,680.8,1400.5,681.2,1400,681.2z"/>
	<path class="st4" d="M191.5,681.2H-0.2c-0.5,0-0.9-0.4-0.9-0.9c0-0.5,0.4-0.9,0.9-0.9h191.7c0.5,0,0.9,0.4,0.9,0.9
		C192.3,680.8,191.9,681.2,191.5,681.2z"/>
	<path class="st4" d="M1127.2,695.4H1.6c-0.5,0-0.9-0.4-0.9-0.9c0-0.5,0.4-0.9,0.9-0.9h1125.6c0.5,0,0.9,0.4,0.9,0.9
		C1128.1,695,1127.7,695.4,1127.2,695.4z"/>
	<path class="st4" d="M502.1,709.6H1.6c-0.5,0-0.9-0.4-0.9-0.9c0-0.5,0.4-0.9,0.9-0.9h500.5c0.5,0,0.9,0.4,0.9,0.9
		C502.9,709.2,502.5,709.6,502.1,709.6z"/>
	<path class="st4" d="M1400,496.7H521.9c-0.5,0-0.9-0.4-0.9-0.9s0.4-0.9,0.9-0.9H1400c0.5,0,0.9,0.4,0.9,0.9
		S1400.5,496.7,1400,496.7z"/>
	<path class="st4" d="M1400,581.9H521.9c-0.5,0-0.9-0.4-0.9-0.9c0-0.5,0.4-0.9,0.9-0.9H1400c0.5,0,0.9,0.4,0.9,0.9
		C1400.9,581.5,1400.5,581.9,1400,581.9z"/>
	<path class="st4" d="M1400,709.6H521.9c-0.5,0-0.9-0.4-0.9-0.9c0-0.5,0.4-0.9,0.9-0.9H1400c0.5,0,0.9,0.4,0.9,0.9
		C1400.9,709.2,1400.5,709.6,1400,709.6z"/>
	<path class="st4" d="M1400,510.9h-258.4c-0.5,0-0.9-0.4-0.9-0.9s0.4-0.9,0.9-0.9H1400c0.5,0,0.9,0.4,0.9,0.9
		S1400.5,510.9,1400,510.9z"/>
	<path class="st4" d="M1400,539.3H758.6c-0.5,0-0.9-0.4-0.9-0.9c0-0.5,0.4-0.9,0.9-0.9H1400c0.5,0,0.9,0.4,0.9,0.9
		C1400.9,538.9,1400.5,539.3,1400,539.3z"/>
	<path class="st4" d="M1400,567.7H951.9c-0.5,0-0.9-0.4-0.9-0.9c0-0.5,0.4-0.9,0.9-0.9H1400c0.5,0,0.9,0.4,0.9,0.9
		C1400.9,567.3,1400.5,567.7,1400,567.7z"/>
	<path class="st4" d="M1400,610.2h-220.5c-0.5,0-0.9-0.4-0.9-0.9c0-0.5,0.4-0.9,0.9-0.9H1400c0.5,0,0.9,0.4,0.9,0.9
		C1400.9,609.9,1400.5,610.2,1400,610.2z"/>
	<path class="st4" d="M1400,638.6H888.7c-0.5,0-0.9-0.4-0.9-0.9c0-0.5,0.4-0.9,0.9-0.9H1400c0.5,0,0.9,0.4,0.9,0.9
		C1400.9,638.2,1400.5,638.6,1400,638.6z"/>
	<path class="st4" d="M1400,667H523.7c-0.5,0-0.9-0.4-0.9-0.9c0-0.5,0.4-0.9,0.9-0.9H1400c0.5,0,0.9,0.4,0.9,0.9
		C1400.9,666.6,1400.5,667,1400,667z"/>
	<path class="st4" d="M1400,695.4h-247.6c-0.5,0-0.9-0.4-0.9-0.9c0-0.5,0.4-0.9,0.9-0.9H1400c0.5,0,0.9,0.4,0.9,0.9
		C1400.9,695,1400.5,695.4,1400,695.4z"/>
</g>
<g>
	<g>
		<path class="st5" d="M1227,246c0,0-0.2,6.7-1.7,8.9s-1.7,8.1-1.7,8.1l0.4,4.3v6.3l-1.9,4.5l0.2,8.3l3.4,10.6l1.3,9.3L1227,246z"/>
		<path class="st5" d="M1244.6,328.1c0,0,0.2-7.1,1.7-9.4s2.2-8.4,2.2-8.4l-0.9-10.2l1.7-12.8l-3.4-10.6l-1.3-9.3L1244.6,328.1z"/>
	</g>
</g>
<path class="st6" d="M1244.5,702h-17.7V175.7c0-5.6-4.6-10.2-10.2-10.2l-1216.9,0v-17.7l1216.9,0c15.4,0,27.9,12.5,27.9,27.9V702z"
	/>
<rect x="1.5" y="63.5" class="st7" width="1398.5" height="11.2"/>
<rect x="1.5" y="40.2" class="st7" width="1398.5" height="11.2"/>
<rect x="1.5" y="18.8" class="st7" width="1398.5" height="11.2"/>
<rect x="1.5" y="87.9" class="st7" width="1398.5" height="37.1"/>
<polygon class="st0" points="1249.1,486.7 1243.6,490.5 1242.7,487.1 1239.1,492.7 1236.6,492.2 1234.1,499.6 1237.5,494.7 
	1239.7,495.2 1241.5,492.4 1243.1,494.2 1249.6,491 "/>
<g>
	<path class="st8" d="M1266.2,502.8l1-1.8c2.9,0.7,5.6,2.3,7.7,4.7l1.1-1l1.3,5.4l-5.1-2.2l1.1-1
		C1271.4,504.7,1268.9,503.3,1266.2,502.8z"/>
	<path class="st8" d="M1313.7,509.5l-0.2-2.1c2.8-1,5.9-1.2,9-0.3l0.4-1.4l4.1,3.8l-5.5,1l0.4-1.4
		C1319.1,508.2,1316.2,508.4,1313.7,509.5z"/>
	<path class="st8" d="M1280.5,512.5l-0.6,2c2.5,1.6,5.6,2.4,8.8,2.1l0.1,1.5l4.8-2.9l-5.2-2.1l0.1,1.5
		C1285.5,514.9,1282.7,514,1280.5,512.5z"/>
	<path class="st8" d="M1298,513.6l0.6,2c3-0.1,5.9-1.2,8.4-3.2l0.9,1.2l2.3-5.1l-5.5,1.2l0.9,1.2
		C1303.5,512.7,1300.7,513.6,1298,513.6z"/>
</g>
<g>
	<g>
		<path class="st8" d="M1252.8,489.6l-1,1.8c2.1,2.1,4.9,3.6,8,4l-0.2,1.5l5.3-1.7l-4.6-3.2l-0.2,1.5
			C1257.2,493,1254.6,491.6,1252.8,489.6z"/>
		<path class="st8" d="M1269.6,494.6l0.2,2.1c2.9,0.5,6.1,0.2,8.9-1.2l0.7,1.4l3.4-4.4l-5.6-0.1l0.7,1.3
			C1275.1,494.9,1272.2,495.2,1269.6,494.6z"/>
	</g>
	<g>
		<path class="st8" d="M1285.5,488.4l1.3,1.6c2.7-1.2,5.1-3.3,6.7-6l1.3,0.7l0.3-5.6l-4.6,3.1l1.3,0.7
			C1290.3,485.5,1288.1,487.4,1285.5,488.4z"/>
		<path class="st8" d="M1296.3,474.5l2,0.6c1.6-2.5,2.4-5.6,2.1-8.8l1.5-0.1l-2.9-4.8l-2.1,5.2l1.5-0.1
			C1298.6,469.4,1297.8,472.2,1296.3,474.5z"/>
	</g>
</g>
<path class="st4" d="M-1,696.5c9.7,9.7,25.4,9.7,35,0l0,0c9.7-9.7,25.4-9.7,35,0h0c9.7,9.7,25.4,9.7,35,0l0,0c9.7-9.7,25.4-9.7,35,0
	h0c9.7,9.7,25.4,9.7,35,0l0,0c9.7-9.7,25.4-9.7,35,0h0c9.7,9.7,25.4,9.7,35,0l0,0c9.7-9.7,25.4-9.7,35,0h0c9.7,9.7,25.4,9.7,35,0
	l0,0c9.7-9.7,25.4-9.7,35,0h0c9.7,9.7,25.4,9.7,35,0l0,0c9.7-9.7,25.4-9.7,35,0h0c9.7,9.7,25.4,9.7,35,0l0,0c9.7-9.7,25.4-9.7,35,0
	h0c9.7,9.7,25.4,9.7,35,0l0,0c9.7-9.7,25.4-9.7,35,0h0c9.7,9.7,25.4,9.7,35,0l0,0c9.7-9.7,25.4-9.7,35,0h0c9.7,9.7,25.4,9.7,35,0
	l0,0c9.7-9.7,25.4-9.7,35,0c9.7,9.7,25.4,9.7,35,0l0,0c9.7-9.7,25.4-9.7,35,0h0c9.7,9.7,25.4,9.7,35,0l0,0c9.7-9.7,25.4-9.7,35,0h0
	c9.7,9.7,25.4,9.7,35,0l0,0c9.7-9.7,25.4-9.7,35,0h0c9.7,9.7,25.4,9.7,35,0l0,0c9.7-9.7,25.4-9.7,35,0h0c9.7,9.7,25.4,9.7,35,0l0,0
	c9.7-9.7,25.4-9.7,35,0h0c9.7,9.7,25.4,9.7,35,0l0,0c9.7-9.7,25.4-9.7,35,0h0c9.7,9.7,25.4,9.7,35,0l0,0c9.7-9.7,25.4-9.7,35,0h0
	c9.7,9.7,25.4,9.7,35,0l0,0c9.7-9.7,25.4-9.7,35,0h0c9.7,9.7,25.4,9.7,35,0l0,0c9.7-9.7,25.4-9.7,35,0h0c9.7,9.7,25.4,9.7,35,0l0,0
	c9.7-9.7,25.4-9.7,35,0v73.8H-0.4C-0.4,770.3,0,697.5-1,696.5z"/>
<path class="st0" d="M1244.5,689.6v80.7c0-0.3-17.6,0-17.6,0v-74.4C1226.9,695.9,1233.8,688.5,1244.5,689.6z"/>
<g class="st1">
	<g class="st2">
		<g>
			<polygon class="st3" points="595.4,728.6 617,734.9 598.7,750.8 			"/>
			<path class="st3" d="M598,752.5l-3.6-25.2l24.4,7.2L598,752.5z M596.5,729.8l2.8,19.2l15.9-13.7L596.5,729.8z"/>
		</g>
		<g>
			<polygon class="st3" points="581.7,723.3 583.9,739.9 567.5,732.2 			"/>
			<path class="st3" d="M584.9,741.4l-19.3-9.1l16.7-10.5L584.9,741.4z M569.3,732.1l13.4,6.3l-1.8-13.6L569.3,732.1z"/>
		</g>
		<g>
			<path class="st3" d="M40.4,735.4l16.9,6.4c-0.2,2.2,1.1,4.3,3.2,5.2c2.6,1,5.5-0.3,6.5-2.9c0.4-1.1,0.4-2.3,0.1-3.4
				c1-0.6,1.8-1.4,2.2-2.6c1-2.6-0.3-5.5-2.9-6.5c-2.2-0.8-4.5,0-5.8,1.7l-16.9-6.4c0.2-2.2-1.1-4.3-3.2-5.2c-2.6-1-5.5,0.3-6.5,2.9
				c-0.4,1.1-0.4,2.3-0.1,3.4c-1,0.6-1.8,1.4-2.2,2.6c-1,2.6,0.3,5.5,2.9,6.5C36.7,737.9,39.1,737.1,40.4,735.4z"/>
			<path class="st3" d="M62.3,748.1c-0.7,0-1.4-0.1-2.1-0.4c-2.3-0.9-3.8-3-3.8-5.4l-15.7-5.9c-1.6,1.7-4.2,2.4-6.4,1.5
				c-1.5-0.6-2.6-1.7-3.3-3.1c-0.7-1.4-0.7-3-0.1-4.5c0.4-1.1,1.1-2,2-2.7c-0.2-1.1-0.2-2.3,0.2-3.3c1.1-3,4.6-4.6,7.6-3.4
				c2.3,0.9,3.8,3,3.8,5.4l15.7,5.9c1.6-1.7,4.2-2.4,6.4-1.5c3,1.2,4.6,4.6,3.4,7.6c-0.4,1.1-1.1,2-2,2.7c0.2,1.1,0.2,2.3-0.2,3.3
				c-0.6,1.5-1.7,2.6-3.1,3.3C64,747.9,63.1,748.1,62.3,748.1z M40.1,734.3l18.2,6.9l-0.1,0.7c-0.2,1.8,0.9,3.6,2.7,4.2
				c1,0.4,2.2,0.4,3.2-0.1c1-0.5,1.8-1.3,2.2-2.3c0.3-0.9,0.4-1.9,0-2.8l-0.2-0.7l0.6-0.4c0.8-0.5,1.5-1.2,1.8-2.1
				c0.8-2.1-0.3-4.5-2.4-5.3c-1.7-0.7-3.7-0.1-4.8,1.4l-0.4,0.5l-18.2-6.9l0.1-0.7c0.2-1.8-0.9-3.6-2.7-4.2
				c-2.1-0.8-4.5,0.3-5.3,2.4c-0.3,0.9-0.4,1.9,0,2.8l0.2,0.7l-0.6,0.4c-0.8,0.5-1.5,1.2-1.8,2.1c-0.4,1-0.4,2.2,0.1,3.2
				c0.5,1,1.3,1.8,2.3,2.2c1.7,0.7,3.7,0.1,4.8-1.4L40.1,734.3z"/>
		</g>
		<g>
			<path class="st3" d="M1093.1,744.9l17.5-4.7c1.1,1.9,3.4,2.9,5.6,2.3c2.7-0.7,4.3-3.5,3.5-6.2c-0.3-1.2-1-2.1-1.9-2.8
				c0.5-1,0.6-2.2,0.3-3.4c-0.7-2.7-3.5-4.3-6.2-3.5c-2.2,0.6-3.7,2.6-3.7,4.8l-17.5,4.7c-1.1-1.9-3.4-2.9-5.6-2.3
				c-2.7,0.7-4.3,3.5-3.5,6.2c0.3,1.2,1,2.1,1.9,2.8c-0.5,1-0.6,2.2-0.3,3.4c0.7,2.7,3.5,4.3,6.2,3.5
				C1091.6,749.1,1093.1,747.1,1093.1,744.9z"/>
			<path class="st3" d="M1088.1,750.8c-2.6,0-5-1.7-5.7-4.4c-0.3-1.1-0.3-2.3,0.1-3.3c-0.8-0.8-1.4-1.7-1.7-2.8
				c-0.9-3.1,1-6.4,4.2-7.2c2.3-0.6,4.8,0.2,6.2,2.1l16.2-4.4c0.3-2.4,2-4.4,4.3-5c1.5-0.4,3.1-0.2,4.5,0.6c1.4,0.8,2.3,2.1,2.8,3.6
				c0.3,1.1,0.3,2.3-0.1,3.3c0.8,0.8,1.4,1.7,1.7,2.8c0.9,3.1-1,6.4-4.2,7.2c-2.3,0.6-4.8-0.2-6.2-2.1l-16.2,4.4
				c-0.3,2.4-2,4.4-4.3,5C1089.1,750.7,1088.6,750.8,1088.1,750.8z M1086.4,734.5c-0.4,0-0.7,0-1.1,0.1c-2.2,0.6-3.5,2.9-2.9,5.1
				c0.3,0.9,0.8,1.7,1.6,2.3l0.6,0.4l-0.3,0.7c-0.4,0.9-0.5,1.8-0.2,2.8c0.6,2.2,2.9,3.5,5.1,2.9c1.8-0.5,3-2.1,3.1-4l0-0.7
				l18.8-5.1l0.3,0.6c0.9,1.6,2.8,2.4,4.6,1.9c2.2-0.6,3.5-2.9,2.9-5.1c-0.3-0.9-0.8-1.7-1.6-2.3l-0.6-0.4l0.3-0.7
				c0.4-0.9,0.5-1.9,0.2-2.8c-0.3-1.1-1-2-1.9-2.5c-1-0.6-2.1-0.7-3.1-0.4c-1.8,0.5-3,2.1-3.1,4l0,0.7l-18.7,5.1l-0.3-0.6
				C1089.2,735.3,1087.8,734.5,1086.4,734.5z"/>
		</g>
	</g>
	<g class="st2">
		<circle class="st3" cx="479.2" cy="739" r="12.8"/>
		<path class="st3" d="M479.2,752.7c-7.5,0-13.7-6.1-13.7-13.7c0-7.5,6.1-13.7,13.7-13.7s13.7,6.1,13.7,13.7
			C492.9,746.6,486.8,752.7,479.2,752.7z M479.2,727.1c-6.6,0-11.9,5.3-11.9,11.9s5.3,11.9,11.9,11.9s11.9-5.3,11.9-11.9
			S485.8,727.1,479.2,727.1z"/>
	</g>
	<g class="st2">
		<circle class="st3" cx="454.1" cy="731.5" r="5.3"/>
		<path class="st3" d="M454.1,737.7c-3.4,0-6.2-2.8-6.2-6.2c0-3.4,2.8-6.2,6.2-6.2s6.2,2.8,6.2,6.2
			C460.3,734.9,457.5,737.7,454.1,737.7z M454.1,727.1c-2.4,0-4.4,2-4.4,4.4c0,2.4,2,4.4,4.4,4.4c2.4,0,4.4-2,4.4-4.4
			C458.5,729.1,456.5,727.1,454.1,727.1z"/>
	</g>
	<g class="st2">
		
			<ellipse transform="matrix(0.1215 -0.9926 0.9926 0.1215 -115.1976 1345.757)" class="st3" cx="702.7" cy="738" rx="12.8" ry="12.8"/>
		<path class="st3" d="M702.7,751.6c-0.6,0-1.1,0-1.7-0.1c-7.5-0.9-12.8-7.8-11.9-15.2c0.4-3.6,2.3-6.9,5.2-9.1
			c2.9-2.3,6.5-3.2,10.1-2.8c7.5,0.9,12.8,7.8,11.9,15.2C715.4,746.6,709.5,751.6,702.7,751.6z M702.7,726c-2.6,0-5.2,0.9-7.3,2.5
			c-2.5,2-4.1,4.8-4.5,7.9c-0.8,6.5,3.9,12.5,10.4,13.3c3.2,0.4,6.3-0.5,8.8-2.4c2.5-2,4.1-4.8,4.5-7.9c0.4-3.2-0.5-6.3-2.4-8.8
			c-2-2.5-4.8-4.1-7.9-4.5C703.6,726.1,703.1,726,702.7,726z"/>
	</g>
	<g class="st2">
		
			<ellipse transform="matrix(0.1215 -0.9926 0.9926 0.1215 392.0679 1903.5072)" class="st3" cx="1271.4" cy="730.3" rx="12.8" ry="12.8"/>
		<path class="st3" d="M1271.4,743.9c-0.6,0-1.1,0-1.7-0.1c-7.5-0.9-12.8-7.8-11.9-15.2c0.9-7.5,7.8-12.8,15.2-11.9
			c7.5,0.9,12.8,7.8,11.9,15.2c-0.4,3.6-2.3,6.9-5.2,9.1C1277.4,742.9,1274.5,743.9,1271.4,743.9z M1271.4,718.3
			c-2.6,0-5.2,0.9-7.3,2.5c-2.5,2-4.1,4.8-4.5,7.9c-0.4,3.2,0.5,6.3,2.4,8.8c2,2.5,4.8,4.1,7.9,4.5c3.2,0.4,6.3-0.5,8.8-2.4
			c2.5-2,4.1-4.8,4.5-7.9l0,0c0.8-6.5-3.9-12.5-10.4-13.3C1272.4,718.4,1271.9,718.3,1271.4,718.3z"/>
	</g>
	<g class="st2">
		
			<ellipse transform="matrix(0.1215 -0.9926 0.9926 0.1215 -104.4836 1378.8732)" class="st3" cx="726.8" cy="748.5" rx="5.3" ry="5.3"/>
		<path class="st3" d="M726.8,754.6c-0.3,0-0.5,0-0.8,0c-1.6-0.2-3.1-1-4.1-2.3c-1-1.3-1.5-2.9-1.3-4.6c0.2-1.6,1-3.1,2.3-4.1
			c1.3-1,2.9-1.5,4.6-1.3c1.6,0.2,3.1,1,4.1,2.3c1,1.3,1.5,2.9,1.3,4.6c-0.2,1.6-1,3.1-2.3,4.1C729.5,754.2,728.1,754.6,726.8,754.6
			z M726.7,744c-1,0-1.9,0.3-2.7,0.9c-0.9,0.7-1.5,1.8-1.7,2.9c-0.1,1.2,0.2,2.3,0.9,3.3c0.7,0.9,1.8,1.5,2.9,1.7
			c1.2,0.1,2.3-0.2,3.3-0.9c0.9-0.7,1.5-1.8,1.7-2.9l0,0c0.1-1.2-0.2-2.3-0.9-3.3c-0.7-0.9-1.8-1.5-2.9-1.7
			C727.1,744.1,726.9,744,726.7,744z"/>
	</g>
	<g class="st2">
		
			<ellipse transform="matrix(0.1215 -0.9926 0.9926 0.1215 -632.1896 738.5212)" class="st3" cx="101.1" cy="726.4" rx="5.3" ry="5.3"/>
		<path class="st3" d="M101.1,732.6c-0.3,0-0.5,0-0.8,0c-1.6-0.2-3.1-1-4.1-2.3c-1-1.3-1.5-2.9-1.3-4.6c0.2-1.6,1-3.1,2.3-4.1
			c1.3-1,2.9-1.5,4.6-1.3c3.4,0.4,5.8,3.5,5.4,6.9l0,0c-0.2,1.6-1,3.1-2.3,4.1C103.8,732.1,102.5,732.6,101.1,732.6z M101.1,722
			c-1,0-1.9,0.3-2.7,0.9c-0.9,0.7-1.5,1.8-1.7,2.9c-0.1,1.2,0.2,2.3,0.9,3.3c0.7,0.9,1.8,1.5,2.9,1.7c1.2,0.1,2.3-0.2,3.3-0.9
			c0.9-0.7,1.5-1.8,1.7-2.9c0.3-2.4-1.4-4.6-3.8-4.9C101.5,722,101.3,722,101.1,722z"/>
	</g>
	<g class="st2">
		
			<ellipse transform="matrix(0.1215 -0.9926 0.9926 0.1215 358.0869 1900.9121)" class="st3" cx="1253" cy="748.2" rx="5.3" ry="5.3"/>
		<path class="st3" d="M1253,754.3c-0.2,0-0.5,0-0.8,0c-1.6-0.2-3.1-1-4.1-2.3c-1-1.3-1.5-2.9-1.3-4.6c0.2-1.6,1-3.1,2.3-4.1
			c1.3-1,2.9-1.5,4.6-1.3c3.4,0.4,5.8,3.5,5.4,6.9C1258.7,752,1256,754.3,1253,754.3z M1253,743.7c-1,0-1.9,0.3-2.7,0.9
			c-0.9,0.7-1.5,1.8-1.7,2.9c-0.1,1.2,0.2,2.3,0.9,3.3c0.7,0.9,1.8,1.5,2.9,1.7c2.4,0.3,4.6-1.4,4.9-3.8l0,0
			c0.3-2.4-1.4-4.6-3.8-4.9C1253.3,743.7,1253.1,743.7,1253,743.7z"/>
	</g>
</g>
<path class="st3" d="M1217.6,47.6c0.1-0.1,0.3-0.2,0.4-0.3c0,0,0,0,0,0C1217.9,47.4,1217.8,47.5,1217.6,47.6z"/>
<path class="st9" d="M147.8-0.8v46h0c0.1,0.7,1.6,1.3,3.5,1.3s3.4-0.6,3.5-1.3h0v-46H147.8z"/>
<path class="st9" d="M173.4-0.8v25.7h0c0.1,0.7,1.6,1.3,3.5,1.3c1.9,0,3.4-0.6,3.5-1.3h0V-0.8H173.4z"/>
<path class="st9" d="M120.5-0.8V69h0c0.1,0.7,1.6,1.3,3.5,1.3c1.9,0,3.4-0.6,3.5-1.3h0V-0.8H120.5z"/>
<path class="st10" d="M95.7-0.8v157.2h0c0.1,0.7,1.6,1.3,3.5,1.3c1.9,0,3.4-0.6,3.5-1.3h0V-0.8H95.7z"/>
<path class="st9" d="M598.7-0.8v46h0c0.1,0.7,1.6,1.3,3.5,1.3c1.9,0,3.4-0.6,3.5-1.3h0v-46H598.7z"/>
<path class="st9" d="M624.3-0.8v25.7h0c0.1,0.7,1.6,1.3,3.5,1.3c1.9,0,3.4-0.6,3.5-1.3h0V-0.8H624.3z"/>
<path class="st9" d="M571.3-0.8V69h0c0.1,0.7,1.6,1.3,3.5,1.3c1.9,0,3.4-0.6,3.5-1.3h0V-0.8H571.3z"/>
<path class="st10" d="M546.6-0.8v157.2h0c0.1,0.7,1.6,1.3,3.5,1.3c1.9,0,3.4-0.6,3.5-1.3h0V-0.8H546.6z"/>
<path class="st9" d="M961.2-0.8v46h0c0.1,0.7,1.6,1.3,3.5,1.3c1.9,0,3.4-0.6,3.5-1.3h0v-46H961.2z"/>
<path class="st9" d="M986.8-0.8v25.7h0c0.1,0.7,1.6,1.3,3.5,1.3s3.4-0.6,3.5-1.3h0V-0.8H986.8z"/>
<path class="st9" d="M933.8-0.8V69h0c0.1,0.7,1.6,1.3,3.5,1.3s3.4-0.6,3.5-1.3h0V-0.8H933.8z"/>
<path class="st10" d="M909.1-0.8v157.2h0c0.1,0.7,1.6,1.3,3.5,1.3c1.9,0,3.4-0.6,3.5-1.3h0V-0.8H909.1z"/>
<polygon class="st11" points="342.2,137.9 186,137.9 371.2,9.7 527.4,9.7 "/>
<polygon class="st12" points="301.6,167.4 145.4,167.4 178.6,144.8 334.8,144.8 "/>
<g>
	<path class="st10" d="M269.1,109.1c0,0.8-0.3,1.4-0.9,1.8c-0.6,0.4-1.4,0.7-2.3,0.7c-1,0-1.8-0.2-2.5-0.5v-1.4
		c0.4,0.2,0.8,0.3,1.3,0.4c0.5,0.1,0.9,0.2,1.3,0.2c0.6,0,1-0.1,1.3-0.3c0.3-0.2,0.4-0.5,0.4-0.9c0-0.3-0.1-0.6-0.4-0.8
		s-0.8-0.5-1.5-0.8c-0.8-0.3-1.4-0.7-1.7-1.1c-0.3-0.4-0.5-0.9-0.5-1.5c0-0.7,0.3-1.3,0.8-1.7c0.5-0.4,1.2-0.6,2.1-0.6
		c0.8,0,1.7,0.2,2.5,0.6l-0.5,1.2c-0.8-0.3-1.5-0.5-2.1-0.5c-0.5,0-0.8,0.1-1.1,0.3c-0.2,0.2-0.4,0.5-0.4,0.8c0,0.2,0,0.4,0.1,0.6
		c0.1,0.2,0.3,0.3,0.5,0.5c0.2,0.1,0.6,0.3,1.2,0.6c0.6,0.3,1.1,0.5,1.4,0.8c0.3,0.2,0.5,0.5,0.7,0.8
		C269.1,108.3,269.1,108.7,269.1,109.1z"/>
	<path class="st10" d="M273.9,111.5h-1.4v-7.6h-2.6v-1.2h6.6v1.2h-2.6V111.5z"/>
	<path class="st10" d="M285.7,107c0,1.4-0.4,2.6-1.1,3.4c-0.7,0.8-1.7,1.2-3.1,1.2c-1.3,0-2.4-0.4-3.1-1.2c-0.7-0.8-1.1-1.9-1.1-3.4
		c0-1.5,0.4-2.6,1.1-3.4c0.7-0.8,1.7-1.2,3.1-1.2c1.3,0,2.3,0.4,3,1.2S285.7,105.6,285.7,107z M278.9,107c0,1.1,0.2,1.9,0.7,2.5
		c0.4,0.6,1.1,0.8,1.9,0.8c0.9,0,1.5-0.3,1.9-0.8c0.4-0.6,0.7-1.4,0.7-2.5c0-1.1-0.2-1.9-0.6-2.5c-0.4-0.6-1.1-0.8-1.9-0.8
		c-0.9,0-1.5,0.3-2,0.8C279.2,105.1,278.9,105.9,278.9,107z"/>
	<path class="st10" d="M289,107.9v3.5h-1.4v-8.8h2.5c1.1,0,2,0.2,2.5,0.6c0.5,0.4,0.8,1.1,0.8,1.9c0,1.1-0.6,1.9-1.7,2.3l2.5,3.9
		h-1.6l-2.1-3.5H289z M289,106.7h1c0.7,0,1.2-0.1,1.5-0.4c0.3-0.3,0.5-0.6,0.5-1.1c0-0.5-0.2-0.9-0.5-1.1c-0.3-0.2-0.8-0.3-1.5-0.3
		h-1V106.7z"/>
	<path class="st10" d="M299.3,111.5l-2.6-7.4h0c0.1,1.1,0.1,2.1,0.1,3.1v4.3h-1.3v-8.8h2l2.5,7h0l2.5-7h2v8.8h-1.4v-4.4
		c0-0.4,0-1,0-1.7c0-0.7,0-1.1,0.1-1.3h0l-2.6,7.4H299.3z"/>
	<path class="st10" d="M315.2,109.1c0,0.8-0.3,1.4-0.9,1.8c-0.6,0.4-1.4,0.7-2.3,0.7s-1.8-0.2-2.5-0.5v-1.4c0.4,0.2,0.8,0.3,1.3,0.4
		c0.5,0.1,0.9,0.2,1.3,0.2c0.6,0,1-0.1,1.3-0.3c0.3-0.2,0.4-0.5,0.4-0.9c0-0.3-0.1-0.6-0.4-0.8s-0.8-0.5-1.5-0.8
		c-0.8-0.3-1.4-0.7-1.7-1.1s-0.5-0.9-0.5-1.5c0-0.7,0.3-1.3,0.8-1.7c0.5-0.4,1.2-0.6,2.1-0.6c0.8,0,1.7,0.2,2.5,0.6l-0.5,1.2
		c-0.8-0.3-1.5-0.5-2.1-0.5c-0.5,0-0.8,0.1-1.1,0.3c-0.2,0.2-0.4,0.5-0.4,0.8c0,0.2,0,0.4,0.1,0.6c0.1,0.2,0.3,0.3,0.5,0.5
		c0.2,0.1,0.6,0.3,1.2,0.6c0.6,0.3,1.1,0.5,1.4,0.8c0.3,0.2,0.5,0.5,0.7,0.8C315.1,108.3,315.2,108.7,315.2,109.1z"/>
	<path class="st10" d="M321.9,111.5h-5v-8.8h5v1.2h-3.5v2.4h3.3v1.2h-3.3v2.8h3.5V111.5z"/>
	<path class="st10" d="M331.9,111.5h-1.6l-1.5-5.3c-0.1-0.2-0.1-0.6-0.2-1c-0.1-0.4-0.2-0.7-0.2-0.9c0,0.3-0.1,0.6-0.2,1
		c-0.1,0.4-0.2,0.7-0.2,0.9l-1.5,5.2H325l-1.1-4.4l-1.2-4.4h1.5l1.3,5.1c0.2,0.8,0.3,1.6,0.4,2.2c0-0.3,0.1-0.7,0.2-1.1
		s0.2-0.8,0.2-1l1.4-5.2h1.4l1.5,5.2c0.1,0.5,0.3,1.2,0.4,2.1c0.1-0.6,0.2-1.3,0.4-2.2l1.3-5.1h1.5L331.9,111.5z"/>
	<path class="st10" d="M340.5,111.5h-5v-8.8h5v1.2h-3.5v2.4h3.3v1.2h-3.3v2.8h3.5V111.5z"/>
	<path class="st10" d="M343.8,107.9v3.5h-1.4v-8.8h2.5c1.1,0,2,0.2,2.5,0.6c0.5,0.4,0.8,1.1,0.8,1.9c0,1.1-0.6,1.9-1.7,2.3l2.5,3.9
		h-1.6l-2.1-3.5H343.8z M343.8,106.7h1c0.7,0,1.2-0.1,1.5-0.4c0.3-0.3,0.5-0.6,0.5-1.1c0-0.5-0.2-0.9-0.5-1.1
		c-0.3-0.2-0.8-0.3-1.5-0.3h-1V106.7z"/>
</g>
<g class="st13">
	<path class="st5" d="M205,156.3h4v5.2c-0.6,0.2-1.3,0.4-1.8,0.4c-0.6,0.1-1.2,0.1-1.8,0.1c-1.5,0-2.7-0.4-3.5-1.3
		c-0.8-0.9-1.2-2.2-1.2-3.9c0-1.6,0.5-2.9,1.4-3.8c0.9-0.9,2.2-1.4,3.9-1.4c1,0,2,0.2,3,0.6l-0.7,1.7c-0.7-0.4-1.5-0.6-2.3-0.6
		c-0.9,0-1.7,0.3-2.2,0.9c-0.6,0.6-0.8,1.5-0.8,2.5c0,1.1,0.2,1.9,0.7,2.5c0.4,0.6,1.1,0.9,2,0.9c0.4,0,0.9,0,1.4-0.1v-2.1H205
		V156.3z"/>
	<path class="st5" d="M217.6,161.9l-0.7-2.4h-3.7l-0.7,2.4h-2.3l3.6-10.1h2.6l3.6,10.1H217.6z M216.3,157.7
		c-0.7-2.2-1.1-3.4-1.1-3.7s-0.1-0.5-0.2-0.7c-0.2,0.6-0.6,2-1.3,4.4H216.3z"/>
	<path class="st5" d="M227.1,159.1c0,0.9-0.3,1.6-1,2.2c-0.7,0.5-1.6,0.8-2.7,0.8c-1.1,0-2-0.2-2.9-0.6v-2c0.7,0.3,1.3,0.5,1.7,0.6
		c0.5,0.1,0.9,0.2,1.3,0.2c0.5,0,0.8-0.1,1.1-0.3s0.4-0.4,0.4-0.8c0-0.2-0.1-0.4-0.2-0.5s-0.3-0.3-0.5-0.4s-0.6-0.4-1.3-0.7
		c-0.6-0.3-1.1-0.6-1.4-0.8c-0.3-0.3-0.6-0.6-0.7-0.9s-0.3-0.8-0.3-1.2c0-0.9,0.3-1.6,0.9-2.1s1.4-0.8,2.5-0.8c0.5,0,1,0.1,1.5,0.2
		c0.5,0.1,1,0.3,1.5,0.5l-0.7,1.7c-0.5-0.2-1-0.4-1.3-0.5c-0.4-0.1-0.7-0.1-1-0.1c-0.4,0-0.7,0.1-0.9,0.3s-0.3,0.4-0.3,0.7
		c0,0.2,0,0.4,0.1,0.5s0.2,0.3,0.4,0.4c0.2,0.1,0.6,0.4,1.4,0.7c0.9,0.5,1.6,0.9,1.9,1.4S227.1,158.5,227.1,159.1z"/>
	<path class="st5" d="M236.9,161.9l-2.4-7.9h-0.1c0.1,1.6,0.1,2.7,0.1,3.2v4.7h-1.9v-10.1h2.9l2.4,7.7h0l2.5-7.7h2.9v10.1h-2v-4.8
		c0-0.2,0-0.5,0-0.8c0-0.3,0-1.1,0.1-2.3h-0.1l-2.6,7.9H236.9z"/>
	<path class="st5" d="M252.1,161.9l-0.7-2.4h-3.7l-0.7,2.4h-2.3l3.6-10.1h2.6l3.6,10.1H252.1z M250.9,157.7
		c-0.7-2.2-1.1-3.4-1.1-3.7s-0.1-0.5-0.2-0.7c-0.2,0.6-0.6,2-1.3,4.4H250.9z"/>
	<path class="st5" d="M255.7,161.9v-10.1h2.1v10.1H255.7z"/>
	<path class="st5" d="M269.3,161.9h-2.7l-4.4-7.6h-0.1c0.1,1.3,0.1,2.3,0.1,2.9v4.7h-1.9v-10.1h2.7l4.4,7.6h0
		c-0.1-1.3-0.1-2.2-0.1-2.8v-4.8h1.9V161.9z"/>
</g>
<g>
	<path class="st10" d="M336.2,74.1h-5v-8.8h5v1.2h-3.5v2.4h3.3v1.2h-3.3v2.8h3.5V74.1z"/>
	<path class="st10" d="M338.1,74.1v-8.8h1.4v7.6h3.7v1.2H338.1z"/>
	<path class="st10" d="M349.8,74.1h-5v-8.8h5v1.2h-3.5v2.4h3.3v1.2h-3.3v2.8h3.5V74.1z"/>
	<path class="st10" d="M355.4,66.4c-0.8,0-1.5,0.3-2,0.9c-0.5,0.6-0.7,1.4-0.7,2.4c0,1.1,0.2,1.9,0.7,2.5c0.5,0.6,1.1,0.8,2,0.8
		c0.4,0,0.7,0,1.1-0.1s0.7-0.2,1.1-0.3v1.2c-0.7,0.3-1.5,0.4-2.4,0.4c-1.3,0-2.3-0.4-3-1.2c-0.7-0.8-1-1.9-1-3.4
		c0-0.9,0.2-1.7,0.5-2.4c0.3-0.7,0.8-1.2,1.5-1.6c0.6-0.4,1.4-0.5,2.2-0.5c0.9,0,1.7,0.2,2.5,0.6l-0.5,1.2c-0.3-0.1-0.6-0.3-0.9-0.4
		C356.2,66.4,355.8,66.4,355.4,66.4z"/>
	<path class="st10" d="M362.6,74.1h-1.4v-7.6h-2.6v-1.2h6.6v1.2h-2.6V74.1z"/>
	<path class="st10" d="M366.5,74.1v-8.8h1.4v8.8H366.5z"/>
	<path class="st10" d="M374,66.4c-0.8,0-1.5,0.3-2,0.9c-0.5,0.6-0.7,1.4-0.7,2.4c0,1.1,0.2,1.9,0.7,2.5c0.5,0.6,1.1,0.8,2,0.8
		c0.4,0,0.7,0,1.1-0.1c0.4-0.1,0.7-0.2,1.1-0.3v1.2c-0.7,0.3-1.5,0.4-2.4,0.4c-1.3,0-2.3-0.4-3-1.2s-1-1.9-1-3.4
		c0-0.9,0.2-1.7,0.5-2.4c0.3-0.7,0.8-1.2,1.5-1.6c0.6-0.4,1.4-0.5,2.2-0.5c0.9,0,1.7,0.2,2.5,0.6l-0.5,1.2c-0.3-0.1-0.6-0.3-0.9-0.4
		C374.8,66.4,374.4,66.4,374,66.4z"/>
	<path class="st10" d="M383.6,74.1l-0.9-2.5h-3.4l-0.9,2.5H377l3.3-8.9h1.6l3.3,8.9H383.6z M382.3,70.4l-0.8-2.4
		c-0.1-0.2-0.1-0.4-0.3-0.8c-0.1-0.3-0.2-0.6-0.2-0.8c-0.1,0.5-0.3,1-0.5,1.6l-0.8,2.3H382.3z"/>
	<path class="st10" d="M386.3,74.1v-8.8h1.4v7.6h3.7v1.2H386.3z"/>
</g>
<g>
	<path class="st10" d="M362.8,48.9c0,0.8-0.3,1.4-0.9,1.8c-0.6,0.4-1.4,0.7-2.3,0.7s-1.8-0.2-2.5-0.5v-1.4c0.4,0.2,0.8,0.3,1.3,0.4
		c0.5,0.1,0.9,0.2,1.3,0.2c0.6,0,1-0.1,1.3-0.3c0.3-0.2,0.4-0.5,0.4-0.9c0-0.3-0.1-0.6-0.4-0.8c-0.2-0.2-0.8-0.5-1.5-0.8
		c-0.8-0.3-1.4-0.7-1.7-1.1c-0.3-0.4-0.5-0.9-0.5-1.5c0-0.7,0.3-1.3,0.8-1.7c0.5-0.4,1.2-0.6,2.1-0.6c0.8,0,1.7,0.2,2.5,0.6
		l-0.5,1.2c-0.8-0.3-1.5-0.5-2.1-0.5c-0.5,0-0.8,0.1-1.1,0.3s-0.4,0.5-0.4,0.8c0,0.2,0,0.4,0.1,0.6c0.1,0.2,0.3,0.3,0.5,0.5
		c0.2,0.1,0.6,0.3,1.2,0.6c0.6,0.3,1.1,0.5,1.4,0.8c0.3,0.2,0.5,0.5,0.7,0.8C362.7,48.2,362.8,48.5,362.8,48.9z"/>
	<path class="st10" d="M369.5,51.3h-5v-8.8h5v1.2h-3.5v2.4h3.3v1.2h-3.3v2.8h3.5V51.3z"/>
	<path class="st10" d="M379.5,51.3H378l-1.5-5.3c-0.1-0.2-0.1-0.6-0.2-1s-0.2-0.7-0.2-0.9c0,0.3-0.1,0.6-0.2,1
		c-0.1,0.4-0.2,0.7-0.2,0.9l-1.5,5.2h-1.6l-1.1-4.4l-1.2-4.4h1.5l1.3,5.1c0.2,0.8,0.3,1.6,0.4,2.2c0-0.3,0.1-0.7,0.2-1.1
		s0.2-0.8,0.2-1l1.4-5.2h1.4l1.5,5.2c0.1,0.5,0.3,1.2,0.4,2.1c0.1-0.6,0.2-1.3,0.4-2.2l1.3-5.1h1.5L379.5,51.3z"/>
	<path class="st10" d="M388.1,51.3h-5v-8.8h5v1.2h-3.5v2.4h3.3v1.2h-3.3v2.8h3.5V51.3z"/>
	<path class="st10" d="M391.4,47.8v3.5H390v-8.8h2.5c1.1,0,2,0.2,2.5,0.6c0.5,0.4,0.8,1.1,0.8,1.9c0,1.1-0.6,1.9-1.7,2.3l2.5,3.9
		H395l-2.1-3.5H391.4z M391.4,46.6h1c0.7,0,1.2-0.1,1.5-0.4c0.3-0.3,0.5-0.6,0.5-1.1c0-0.5-0.2-0.9-0.5-1.1
		c-0.3-0.2-0.8-0.3-1.5-0.3h-1V46.6z"/>
	<path class="st10" d="M404.9,51.3l-2.6-7.4h0c0.1,1.1,0.1,2.1,0.1,3.1v4.3h-1.3v-8.8h2l2.5,7h0l2.5-7h2v8.8h-1.4V47
		c0-0.4,0-1,0-1.7c0-0.7,0-1.1,0.1-1.3h0l-2.6,7.4H404.9z"/>
	<path class="st10" d="M418,51.3l-0.9-2.5h-3.4l-0.9,2.5h-1.5l3.3-8.9h1.6l3.3,8.9H418z M416.7,47.6l-0.8-2.4
		c-0.1-0.2-0.1-0.4-0.3-0.8c-0.1-0.3-0.2-0.6-0.2-0.8c-0.1,0.5-0.3,1-0.5,1.6l-0.8,2.3H416.7z"/>
	<path class="st10" d="M420.7,51.3v-8.8h1.4v8.8H420.7z"/>
	<path class="st10" d="M431.8,51.3H430l-4.3-7h0l0,0.4c0.1,0.7,0.1,1.4,0.1,2.1v4.6h-1.3v-8.8h1.8l4.3,7h0c0-0.1,0-0.4,0-1
		s0-1,0-1.4v-4.6h1.3V51.3z"/>
</g>
<g>
	<path class="st10" d="M395.9,28.6h-1.6l-1.5-5.3c-0.1-0.2-0.1-0.6-0.2-1c-0.1-0.4-0.2-0.7-0.2-0.9c0,0.3-0.1,0.6-0.2,1
		c-0.1,0.4-0.2,0.7-0.2,0.9l-1.5,5.2H389l-1.1-4.4l-1.2-4.4h1.5l1.3,5.1c0.2,0.8,0.3,1.6,0.4,2.2c0-0.3,0.1-0.7,0.2-1.1
		s0.2-0.8,0.2-1l1.4-5.2h1.4l1.5,5.2c0.1,0.5,0.3,1.2,0.4,2.1c0.1-0.6,0.2-1.3,0.4-2.2l1.3-5.1h1.5L395.9,28.6z"/>
	<path class="st10" d="M404.9,28.6l-0.9-2.5h-3.4l-0.9,2.5h-1.5l3.3-8.9h1.6l3.3,8.9H404.9z M403.7,24.9l-0.8-2.4
		c-0.1-0.2-0.1-0.4-0.3-0.8c-0.1-0.3-0.2-0.6-0.2-0.8c-0.1,0.5-0.3,1-0.5,1.6l-0.8,2.3H403.7z"/>
	<path class="st10" d="M410.7,28.6h-1.4V21h-2.6v-1.2h6.6V21h-2.6V28.6z"/>
	<path class="st10" d="M419.6,28.6h-5v-8.8h5V21H416v2.4h3.3v1.2H416v2.8h3.5V28.6z"/>
	<path class="st10" d="M422.9,25.1v3.5h-1.4v-8.8h2.5c1.1,0,2,0.2,2.5,0.6c0.5,0.4,0.8,1.1,0.8,1.9c0,1.1-0.6,1.9-1.7,2.3l2.5,3.9
		h-1.6l-2.1-3.5H422.9z M422.9,23.9h1c0.7,0,1.2-0.1,1.5-0.4c0.3-0.3,0.5-0.6,0.5-1.1c0-0.5-0.2-0.9-0.5-1.1
		c-0.3-0.2-0.8-0.3-1.5-0.3h-1V23.9z"/>
	<path class="st10" d="M436.4,28.6l-2.6-7.4h0c0.1,1.1,0.1,2.1,0.1,3.1v4.3h-1.3v-8.8h2l2.5,7h0l2.5-7h2v8.8h-1.4v-4.4
		c0-0.4,0-1,0-1.7c0-0.7,0-1.1,0.1-1.3h0l-2.6,7.4H436.4z"/>
	<path class="st10" d="M449.5,28.6l-0.9-2.5h-3.4l-0.9,2.5h-1.5l3.3-8.9h1.6l3.3,8.9H449.5z M448.2,24.9l-0.8-2.4
		c-0.1-0.2-0.1-0.4-0.3-0.8c-0.1-0.3-0.2-0.6-0.2-0.8c-0.1,0.5-0.3,1-0.5,1.6l-0.8,2.3H448.2z"/>
	<path class="st10" d="M452.2,28.6v-8.8h1.4v8.8H452.2z"/>
	<path class="st10" d="M463.3,28.6h-1.8l-4.3-7h0l0,0.4c0.1,0.7,0.1,1.4,0.1,2.1v4.6H456v-8.8h1.8l4.3,7h0c0-0.1,0-0.4,0-1
		c0-0.6,0-1,0-1.4v-4.6h1.3V28.6z"/>
</g>
</svg>
