<svg xmlns="http://www.w3.org/2000/svg" viewBox="0 0 794 436.72"><defs><style>.cls-1,.cls-19,.cls-20{fill:#2b2933;}.cls-2,.cls-20{opacity:0.35;}.cls-3,.cls-5{opacity:0.5;}.cls-16,.cls-4,.cls-5{fill:#666077;}.cls-4,.cls-5{stroke:#666077;}.cls-11,.cls-4,.cls-5{stroke-miterlimit:10;}.cls-6{fill:none;stroke:#212028;stroke-linecap:round;stroke-linejoin:round;}.cls-11,.cls-22,.cls-7,.cls-8{fill:#fff;}.cls-22,.cls-8{opacity:0.75;}.cls-9{fill:#534e63;}.cls-10{fill:#63aea9;fill-rule:evenodd;}.cls-11{stroke:#808184;stroke-width:0.5px;}.cls-12,.cls-22{font-size:8px;font-family:OpenSans-Bold, Open Sans;}.cls-12,.cls-15{fill:#212028;}.cls-13,.cls-21,.cls-22{font-weight:700;}.cls-14{fill:#808184;font-family:OpenSans-Light, Open Sans;}.cls-17{fill:#625e72;}.cls-18,.cls-21{fill:#e6e7e8;}.cls-19{opacity:0.61;}.cls-21{font-size:7px;font-family:OpenSans-Semibold, Open Sans;}.cls-23{fill:#b3a4ba;}.cls-24{fill:#ddcce4;}</style></defs><title>Asset 3</title><g id="Layer_2" data-name="Layer 2"><g id="Layer_1-2" data-name="Layer 1"><rect class="cls-1" x="0.44" width="793.06" height="402.67"/><g class="cls-2"><g class="cls-3"><polygon class="cls-4" points="438.3 382.71 426.11 379.12 436.48 370.14 438.3 382.71"/><polygon class="cls-4" points="446.09 385.71 444.86 376.31 454.12 380.67 446.09 385.71"/><path class="cls-4" d="M752.63,378.87,743,375.26a4.85,4.85,0,1,0-1.81,4.8l9.58,3.61a4.85,4.85,0,1,0,1.81-4.8Z"/><path class="cls-4" d="M156.48,373.49l-9.88,2.68a4.85,4.85,0,1,0,1.34,4.95l9.88-2.68a4.85,4.85,0,1,0-1.34-4.95Z"/></g><circle class="cls-5" cx="504.1" cy="376.79" r="7.25"/><circle class="cls-5" cx="518.35" cy="381.04" r="3"/><circle class="cls-5" cx="377.56" cy="377.4" r="7.25" transform="translate(-42.92 706.3) rotate(-83.02)"/><circle class="cls-5" cx="55.48" cy="381.76" r="7.25" transform="translate(-330.2 390.44) rotate(-83.02)"/><circle class="cls-5" cx="363.93" cy="371.45" r="3" transform="translate(-48.99 687.55) rotate(-83.02)"/><circle class="cls-5" cx="718.23" cy="383.94" r="3" transform="translate(249.86 1050.19) rotate(-83.02)"/><circle class="cls-5" cx="65.93" cy="371.63" r="3" transform="translate(-310.95 391.91) rotate(-83.02)"/></g><line class="cls-6" x1="137.62" y1="17.04" x2="638.98" y2="17.04"/><line class="cls-6" x1="1.52" y1="17.04" x2="125.33" y2="17.04"/><line class="cls-6" x1="281.89" y1="25.08" x2="719.82" y2="25.08"/><line class="cls-6" x1="1.52" y1="25.08" x2="270.63" y2="25.08"/><line class="cls-6" x1="731.16" y1="25.08" x2="793.49" y2="25.08"/><line class="cls-6" x1="84.4" y1="41.15" x2="793.49" y2="41.15"/><line class="cls-6" x1="0.5" y1="41.15" x2="72.12" y2="41.15"/><line class="cls-6" x1="1.52" y1="57.22" x2="284.95" y2="57.22"/><line class="cls-6" x1="115.12" y1="65.26" x2="793.49" y2="65.26"/><line class="cls-6" x1="1.52" y1="65.26" x2="103.83" y2="65.26"/><line class="cls-6" x1="617.5" y1="81.33" x2="793.49" y2="81.33"/><line class="cls-6" x1="207.2" y1="81.33" x2="606.24" y2="81.33"/><line class="cls-6" x1="1.52" y1="81.33" x2="195.93" y2="81.33"/><line class="cls-6" x1="1.52" y1="89.37" x2="495.73" y2="89.37"/><line class="cls-6" x1="1.52" y1="97.4" x2="793.49" y2="97.4"/><line class="cls-6" x1="1.52" y1="105.44" x2="284.95" y2="105.44"/><line class="cls-6" x1="120.22" y1="113.47" x2="793.49" y2="113.47"/><line class="cls-6" x1="0.5" y1="113.47" x2="109.05" y2="113.47"/><line class="cls-6" x1="1.52" y1="121.51" x2="638.98" y2="121.51"/><line class="cls-6" x1="1.52" y1="129.55" x2="284.95" y2="129.55"/><line class="cls-6" x1="296.21" y1="57.22" x2="793.49" y2="57.22"/><line class="cls-6" x1="296.21" y1="129.55" x2="793.49" y2="129.55"/><line class="cls-6" x1="144.78" y1="137.58" x2="700.38" y2="137.58"/><line class="cls-6" x1="1.52" y1="137.58" x2="133.52" y2="137.58"/><line class="cls-6" x1="647.17" y1="17.04" x2="793.5" y2="17.04"/><line class="cls-6" x1="503.92" y1="89.37" x2="793.5" y2="89.37"/><line class="cls-6" x1="297.23" y1="105.44" x2="793.5" y2="105.44"/><line class="cls-6" x1="653.31" y1="121.51" x2="793.5" y2="121.51"/><line class="cls-6" x1="714.7" y1="137.58" x2="793.5" y2="137.58"/><line class="cls-6" x1="1.52" y1="145.7" x2="284.95" y2="145.7"/><line class="cls-6" x1="137.62" y1="153.73" x2="638.98" y2="153.73"/><line class="cls-6" x1="1.52" y1="153.73" x2="125.33" y2="153.73"/><line class="cls-6" x1="281.89" y1="161.77" x2="719.82" y2="161.77"/><line class="cls-6" x1="1.52" y1="161.77" x2="270.63" y2="161.77"/><line class="cls-6" x1="731.16" y1="161.77" x2="793.49" y2="161.77"/><line class="cls-6" x1="1.52" y1="169.8" x2="418.99" y2="169.8"/><line class="cls-6" x1="84.4" y1="177.84" x2="793.49" y2="177.84"/><line class="cls-6" x1="0.5" y1="177.84" x2="72.12" y2="177.84"/><line class="cls-6" x1="1.52" y1="185.88" x2="529.5" y2="185.88"/><line class="cls-6" x1="1.52" y1="193.91" x2="284.95" y2="193.91"/><line class="cls-6" x1="115.12" y1="201.95" x2="793.49" y2="201.95"/><line class="cls-6" x1="1.52" y1="201.95" x2="103.83" y2="201.95"/><line class="cls-6" x1="1.52" y1="209.99" x2="657.4" y2="209.99"/><line class="cls-6" x1="617.5" y1="218.02" x2="793.49" y2="218.02"/><line class="cls-6" x1="207.2" y1="218.02" x2="606.24" y2="218.02"/><line class="cls-6" x1="1.52" y1="218.02" x2="195.93" y2="218.02"/><line class="cls-6" x1="1.52" y1="226.06" x2="495.73" y2="226.06"/><line class="cls-6" x1="1.52" y1="234.09" x2="793.49" y2="234.09"/><line class="cls-6" x1="1.52" y1="242.13" x2="284.95" y2="242.13"/><line class="cls-6" x1="120.22" y1="250.17" x2="793.49" y2="250.17"/><line class="cls-6" x1="0.5" y1="250.17" x2="109.05" y2="250.17"/><line class="cls-6" x1="1.52" y1="258.2" x2="638.98" y2="258.2"/><line class="cls-6" x1="1.52" y1="266.24" x2="284.95" y2="266.24"/><line class="cls-6" x1="296.21" y1="145.7" x2="793.49" y2="145.7"/><line class="cls-6" x1="296.21" y1="193.91" x2="793.49" y2="193.91"/><line class="cls-6" x1="296.21" y1="266.24" x2="793.49" y2="266.24"/><line class="cls-6" x1="144.78" y1="274.28" x2="700.38" y2="274.28"/><line class="cls-6" x1="1.52" y1="274.28" x2="133.52" y2="274.28"/><line class="cls-6" x1="647.17" y1="153.73" x2="793.5" y2="153.73"/><line class="cls-6" x1="430.25" y1="169.8" x2="793.5" y2="169.8"/><line class="cls-6" x1="539.73" y1="185.88" x2="793.5" y2="185.88"/><line class="cls-6" x1="668.65" y1="209.99" x2="793.5" y2="209.99"/><line class="cls-6" x1="503.92" y1="226.06" x2="793.5" y2="226.06"/><line class="cls-6" x1="297.23" y1="242.13" x2="793.5" y2="242.13"/><line class="cls-6" x1="653.31" y1="258.2" x2="793.5" y2="258.2"/><line class="cls-6" x1="714.7" y1="274.28" x2="793.5" y2="274.28"/><line class="cls-6" x1="1.52" y1="281.28" x2="284.95" y2="281.28"/><line class="cls-6" x1="137.62" y1="289.32" x2="638.98" y2="289.32"/><line class="cls-6" x1="1.52" y1="289.32" x2="125.33" y2="289.32"/><line class="cls-6" x1="281.89" y1="297.35" x2="719.82" y2="297.35"/><line class="cls-6" x1="1.52" y1="297.35" x2="270.63" y2="297.35"/><line class="cls-6" x1="731.16" y1="297.35" x2="793.49" y2="297.35"/><line class="cls-6" x1="1.52" y1="305.39" x2="418.99" y2="305.39"/><line class="cls-6" x1="84.4" y1="313.43" x2="793.49" y2="313.43"/><line class="cls-6" x1="0.5" y1="313.43" x2="72.12" y2="313.43"/><line class="cls-6" x1="1.52" y1="321.46" x2="529.5" y2="321.46"/><line class="cls-6" x1="1.52" y1="329.5" x2="284.95" y2="329.5"/><line class="cls-6" x1="115.12" y1="337.53" x2="793.49" y2="337.53"/><line class="cls-6" x1="1.52" y1="337.53" x2="103.83" y2="337.53"/><line class="cls-6" x1="1.52" y1="345.57" x2="657.4" y2="345.57"/><line class="cls-6" x1="617.5" y1="353.61" x2="793.49" y2="353.61"/><line class="cls-6" x1="207.2" y1="353.61" x2="606.24" y2="353.61"/><line class="cls-6" x1="1.52" y1="353.61" x2="195.93" y2="353.61"/><line class="cls-6" x1="1.52" y1="361.64" x2="495.73" y2="361.64"/><line class="cls-6" x1="1.52" y1="369.68" x2="793.49" y2="369.68"/><line class="cls-6" x1="1.52" y1="377.72" x2="284.95" y2="377.72"/><line class="cls-6" x1="120.22" y1="385.75" x2="793.49" y2="385.75"/><line class="cls-6" x1="0.5" y1="385.75" x2="109.05" y2="385.75"/><line class="cls-6" x1="1.52" y1="393.79" x2="638.98" y2="393.79"/><line class="cls-6" x1="1.52" y1="401.82" x2="284.95" y2="401.82"/><line class="cls-6" x1="296.21" y1="281.28" x2="793.49" y2="281.28"/><line class="cls-6" x1="296.21" y1="329.5" x2="793.49" y2="329.5"/><line class="cls-6" x1="296.21" y1="401.82" x2="793.49" y2="401.82"/><line class="cls-6" x1="647.17" y1="289.32" x2="793.5" y2="289.32"/><line class="cls-6" x1="430.25" y1="305.39" x2="793.5" y2="305.39"/><line class="cls-6" x1="539.73" y1="321.46" x2="793.5" y2="321.46"/><line class="cls-6" x1="668.65" y1="345.57" x2="793.5" y2="345.57"/><line class="cls-6" x1="503.92" y1="361.64" x2="793.5" y2="361.64"/><line class="cls-6" x1="297.23" y1="377.72" x2="793.5" y2="377.72"/><line class="cls-6" x1="653.31" y1="393.79" x2="793.5" y2="393.79"/><path class="cls-7" d="M695.49,139.81s-.11,3.77-1,5.05-1,4.56-1,4.56l.24,2.42v3.56L692.75,158l.12,4.7,1.91,6,.72,5.27Z"/><path class="cls-7" d="M705.48,186.3s.1-4,.94-5.3,1.25-4.76,1.25-4.76l-.54-5.78,1-7.27-1.91-6-.72-5.27Z"/><path class="cls-8" d="M705.43,398h-10V100a5.81,5.81,0,0,0-5.8-5.8H.5v-10H689.63a15.82,15.82,0,0,1,15.8,15.8Z"/><rect class="cls-9" x="1.5" y="36.44" width="792" height="6.34"/><rect class="cls-9" x="1.5" y="23.24" width="792" height="6.34"/><rect class="cls-9" x="1.5" y="11.1" width="792" height="6.34"/><rect class="cls-9" x="1.5" y="50.28" width="792" height="21"/><path class="cls-10" d="M717.68,124.43l.57-1a8.14,8.14,0,0,1,4.34,2.68l.65-.55.75,3.08-2.91-1.25.65-.55A7,7,0,0,0,717.68,124.43Z"/><path class="cls-10" d="M744.6,128.23l-.1-1.18a8.14,8.14,0,0,1,5.1-.19l.23-.82,2.33,2.14-3.11.58.24-.82A7,7,0,0,0,744.6,128.23Z"/><path class="cls-10" d="M725.78,129.95l-.34,1.13a8.14,8.14,0,0,0,5,1.21l.06.85,2.72-1.63-2.93-1.19.07.85A7,7,0,0,1,725.78,129.95Z"/><path class="cls-10" d="M735.69,130.57l.36,1.12a8.14,8.14,0,0,0,4.77-1.8l.53.66,1.32-2.88-3.09.67.53.66A7,7,0,0,1,735.69,130.57Z"/><path class="cls-10" d="M710.08,117l-.58,1a8.14,8.14,0,0,0,4.56,2.29l-.13.84,3-1-2.59-1.82-.13.84A7,7,0,0,1,710.08,117Z"/><path class="cls-10" d="M719.6,119.8l.1,1.18a8.14,8.14,0,0,0,5.05-.69l.37.77,1.93-2.51-3.17,0,.37.76A7,7,0,0,1,719.6,119.8Z"/><path class="cls-10" d="M728.65,116.29l.75.91a8.14,8.14,0,0,0,3.78-3.43l.74.42.17-3.16-2.63,1.76.74.42A7,7,0,0,1,728.65,116.29Z"/><path class="cls-10" d="M734.73,108.43l1.13.33a8.14,8.14,0,0,0,1.18-5l.85-.07L736.24,101,735.07,104l.85-.07A7,7,0,0,1,734.73,108.43Z"/><path class="cls-10" d="M717.68,284.82l.57-1a8.14,8.14,0,0,1,4.34,2.68l.65-.55L724,289l-2.91-1.25.65-.55A7,7,0,0,0,717.68,284.82Z"/><path class="cls-10" d="M744.6,288.61l-.1-1.18a8.14,8.14,0,0,1,5.1-.19l.23-.82,2.33,2.14-3.11.58.24-.82A7,7,0,0,0,744.6,288.61Z"/><path class="cls-10" d="M725.78,290.33l-.34,1.13a8.14,8.14,0,0,0,5,1.21l.06.85,2.72-1.63-2.93-1.19.07.85A7,7,0,0,1,725.78,290.33Z"/><path class="cls-10" d="M735.69,291l.36,1.12a8.14,8.14,0,0,0,4.77-1.8l.53.66,1.32-2.88-3.09.67.53.66A7,7,0,0,1,735.69,291Z"/><path class="cls-10" d="M710.08,277.35l-.58,1a8.14,8.14,0,0,0,4.56,2.29l-.13.84,3-1-2.59-1.82-.13.84A7,7,0,0,1,710.08,277.35Z"/><path class="cls-10" d="M719.6,280.19l.1,1.18a8.14,8.14,0,0,0,5.05-.69l.37.77,1.93-2.51-3.17,0,.37.76A7,7,0,0,1,719.6,280.19Z"/><path class="cls-10" d="M728.65,276.67l.75.91a8.14,8.14,0,0,0,3.78-3.43l.74.42.17-3.16-2.63,1.76.74.42A7,7,0,0,1,728.65,276.67Z"/><path class="cls-10" d="M734.73,268.82l1.13.33a8.14,8.14,0,0,0,1.18-5l.85-.07-1.64-2.71-1.18,2.94.85-.07A7,7,0,0,1,734.73,268.82Z"/><polygon class="cls-11" points="488.18 134.22 488.18 186.29 661.73 186.29 661.73 168.73 669.81 160.26 661.73 151.78 661.73 134.22 488.18 134.22"/><text class="cls-12" transform="translate(496.33 149.63)"><tspan class="cls-13">CORROSION:</tspan><tspan class="cls-14"><tspan x="0" y="12">Leak-prone pipe is susceptible to rust and </tspan><tspan x="0" y="24">corrosion, causing new leaks.</tspan></tspan></text><polygon class="cls-11" points="488.18 242.59 488.18 305.39 661.73 305.39 661.73 281.07 669.81 273.99 661.73 266.91 661.73 242.59 488.18 242.59"/><text class="cls-12" transform="translate(499.91 257.01)"><tspan class="cls-13">JOINTS:</tspan><tspan class="cls-14"><tspan x="0" y="12">Leaks frequently occur at the joints of </tspan><tspan x="0" y="24">leak-prone pipe, as old fittings degrade </tspan><tspan x="0" y="36">and the freeze-thaw cycle shifts soil. </tspan></tspan></text><path class="cls-15" d="M1.23,395A14,14,0,0,0,21,395h0a14,14,0,0,1,19.82,0h0a14,14,0,0,0,19.82,0h0a14,14,0,0,1,19.82,0h0a14,14,0,0,0,19.82,0h0a14,14,0,0,1,19.82,0h0A14,14,0,0,0,140,395h0a14,14,0,0,1,19.82,0h0a14,14,0,0,0,19.82,0h0a14,14,0,0,1,19.82,0h0a14,14,0,0,0,19.82,0h0a14,14,0,0,1,19.82,0h0a14,14,0,0,0,19.82,0h0a14,14,0,0,1,19.82,0h0a14,14,0,0,0,19.82,0h0a14,14,0,0,1,19.82,0h0a14,14,0,0,0,19.82,0h0A14,14,0,0,1,358,395h0a14,14,0,0,0,19.82,0h0a14,14,0,0,1,19.82,0,14,14,0,0,0,19.81,0h0a14,14,0,0,1,19.82,0h0a14,14,0,0,0,19.82,0h0a14,14,0,0,1,19.82,0h0a14,14,0,0,0,19.82,0h0a14,14,0,0,1,19.82,0h0a14,14,0,0,0,19.82,0h0a14,14,0,0,1,19.82,0h0A14,14,0,0,0,576,395h0a14,14,0,0,1,19.82,0h0a14,14,0,0,0,19.82,0h0a14,14,0,0,1,19.82,0h0a14,14,0,0,0,19.82,0h0a14,14,0,0,1,19.82,0h0a14,14,0,0,0,19.82,0h0a14,14,0,0,1,19.82,0h0a14,14,0,0,0,19.82,0h0a14,14,0,0,1,19.82,0h0a14,14,0,0,0,19.82,0h0A14,14,0,0,1,794,395V436.7H1.58S1.77,395.5,1.23,395Z"/><path class="cls-1" d="M705.4,391v45.73c0-.18-10,0-10,0V394.59A12.71,12.71,0,0,1,705.4,391Z"/><g class="cls-2"><g class="cls-3"><polygon class="cls-4" points="337.83 413.08 350.02 416.68 339.65 425.66 337.83 413.08"/><polygon class="cls-4" points="330.04 410.09 331.27 419.49 322.01 415.13 330.04 410.09"/><path class="cls-4" d="M23.5,416.93l9.58,3.61a2.84,2.84,0,1,0,5.52-.66,2.84,2.84,0,1,0-3.71-4.14l-9.58-3.61a2.84,2.84,0,1,0-5.52.66,2.84,2.84,0,1,0,3.71,4.14Z"/><path class="cls-4" d="M619.66,422.31l9.88-2.68a4.85,4.85,0,1,0-1.34-4.95l-9.88,2.68a4.85,4.85,0,1,0,1.34,4.95Z"/></g><circle class="cls-5" cx="272.03" cy="419" r="7.25"/><circle class="cls-5" cx="257.78" cy="414.76" r="3"/><circle class="cls-5" cx="398.57" cy="418.4" r="7.25" transform="translate(-65.16 763.17) rotate(-83.02)"/><circle class="cls-5" cx="720.65" cy="414.03" r="7.25" transform="translate(222.11 1079.03) rotate(-83.02)"/><circle class="cls-5" cx="412.2" cy="424.35" r="3" transform="translate(-59.09 781.92) rotate(-83.02)"/><circle class="cls-5" cx="57.9" cy="411.86" r="3" transform="translate(-357.94 419.28) rotate(-83.02)"/><circle class="cls-5" cx="710.2" cy="424.17" r="3" transform="translate(202.87 1077.56) rotate(-83.02)"/></g><path class="cls-16" d="M690.2,27.44l.23-.16v0Z"/><path class="cls-17" d="M84.34,0V26h0c.05.4.91.72,2,.72s1.91-.32,2-.72h0V0Z"/><path class="cls-17" d="M98.84,0V14.54h0c.05.4.91.72,2,.72s1.91-.32,2-.72h0V0Z"/><path class="cls-17" d="M68.84,0V39.54h0c.05.4.91.72,2,.72s1.91-.32,2-.72h0V0Z"/><path class="cls-18" d="M54.84,0V89h0c.05.4.91.72,2,.72s1.91-.32,2-.72h0V0Z"/><path class="cls-17" d="M339.68,0V26h0c.05.4.91.72,2,.72s1.91-.32,2-.72h0V0Z"/><path class="cls-17" d="M354.18,0V14.54h0c.05.4.91.72,2,.72s1.91-.32,2-.72h0V0Z"/><path class="cls-17" d="M324.18,0V39.54h0c.05.4.91.72,2,.72s1.91-.32,2-.72h0V0Z"/><path class="cls-18" d="M310.18,0V89h0c.05.4.91.72,2,.72s1.91-.32,2-.72h0V0Z"/><path class="cls-17" d="M545,0V26h0c.05.4.91.72,2,.72s1.91-.32,2-.72h0V0Z"/><path class="cls-17" d="M559.47,0V14.54h0c.05.4.91.72,2,.72s1.91-.32,2-.72h0V0Z"/><path class="cls-17" d="M529.47,0V39.54h0c.05.4.91.72,2,.72s1.91-.32,2-.72h0V0Z"/><path class="cls-18" d="M515.47,0V89h0c.05.4.91.72,2,.72s1.91-.32,2-.72h0V0Z"/><polygon class="cls-19" points="194.44 78.57 105.97 78.57 210.86 6 299.32 6 194.44 78.57"/><polygon class="cls-20" points="171.43 95.27 82.96 95.27 101.78 82.48 190.25 82.48 171.43 95.27"/><text class="cls-21" transform="translate(149.51 63.59)">STORM SEWER</text><text class="cls-22" transform="translate(113.84 92.19)">GAS MAIN</text><text class="cls-21" transform="translate(187.53 42.44)">ELECTICAL</text><text class="cls-21" transform="translate(202.54 29.55)">SEWER MAIN</text><text class="cls-21" transform="translate(219.56 16.67)">WATER MAIN</text><path class="cls-23" d="M333.22,39.58c0-1.66.48-3,1.1-3.2v0H318.84c-.66.09-1.18,1.5-1.18,3.23s.52,3.14,1.18,3.23h15.48v0C333.7,42.59,333.22,41.24,333.22,39.58Z"/><path class="cls-24" d="M326.1,30.29c-1,0-1.87-.3-2-.68h0v9.62h0c.06.41.93.73,2,.73s2-.32,2-.73h0V29.6h0C328,30,327.13,30.29,326.1,30.29Z"/><path class="cls-23" d="M538.51,39.58c0-1.66.48-3,1.1-3.2v0H524.13c-.66.09-1.18,1.5-1.18,3.23s.52,3.14,1.18,3.23h15.48v0C539,42.59,538.51,41.24,538.51,39.58Z"/><path class="cls-24" d="M531.39,30.29c-1,0-1.87-.3-2-.68h0v9.62h0c.06.41.93.73,2,.73s2-.32,2-.73h0V29.6h0C533.26,30,532.42,30.29,531.39,30.29Z"/><path class="cls-23" d="M568.51,14.24c0-1.66.48-3,1.1-3.2v0H554.13c-.66.09-1.18,1.5-1.18,3.23s.52,3.14,1.18,3.23h15.48v0C569,17.25,568.51,15.9,568.51,14.24Z"/><path class="cls-24" d="M561.39,4.95c-1,0-1.87-.3-2-.68h0v9.62h0c.06.41.93.73,2,.73s2-.32,2-.73h0V4.27h0C563.26,4.65,562.42,4.95,561.39,4.95Z"/><path class="cls-23" d="M363.25,14.29c0-1.66.48-3,1.1-3.2v0H348.87c-.66.09-1.18,1.5-1.18,3.23s.52,3.14,1.18,3.23h15.48v0C363.73,17.3,363.25,15.95,363.25,14.29Z"/><path class="cls-24" d="M356.13,5c-1,0-1.87-.3-2-.68h0v9.62h0c.06.41.93.73,2,.73s2-.32,2-.73h0V4.31h0C358,4.69,357.16,5,356.13,5Z"/><path class="cls-23" d="M77.86,39.58c0-1.66.48-3,1.1-3.2v0H63.48c-.66.09-1.18,1.5-1.18,3.23s.52,3.14,1.18,3.23H79v0C78.34,42.59,77.86,41.24,77.86,39.58Z"/><path class="cls-24" d="M70.74,30.29c-1,0-1.87-.3-2-.68h0v9.62h0c.06.41.93.73,2,.73s2-.32,2-.73h0V29.6h0C72.61,30,71.77,30.29,70.74,30.29Z"/><path class="cls-23" d="M93.37,26.4c0-1.66.48-3,1.1-3.2v0H79c-.66.09-1.18,1.5-1.18,3.23s.52,3.14,1.18,3.23H94.47v0C93.85,29.4,93.37,28.06,93.37,26.4Z"/><path class="cls-24" d="M86.25,17.1c-1,0-1.87-.3-2-.68h0V26h0c.06.41.93.73,2,.73s2-.32,2-.73h0V16.42h0C88.12,16.8,87.28,17.1,86.25,17.1Z"/><path class="cls-23" d="M348.73,26.4c0-1.66.48-3,1.1-3.2v0H334.35c-.66.09-1.18,1.5-1.18,3.23s.52,3.14,1.18,3.23h15.48v0C349.21,29.4,348.73,28.06,348.73,26.4Z"/><path class="cls-24" d="M341.61,17.1c-1,0-1.87-.3-2-.68h0V26h0c.06.41.93.73,2,.73s2-.32,2-.73h0V16.42h0C343.48,16.8,342.64,17.1,341.61,17.1Z"/><path class="cls-23" d="M554,26.4c0-1.66.48-3,1.1-3.2v0H539.62c-.66.09-1.18,1.5-1.18,3.23s.52,3.14,1.18,3.23H555.1v0C554.48,29.4,554,28.06,554,26.4Z"/><path class="cls-24" d="M546.88,17.1c-1,0-1.87-.3-2-.68h0V26h0c.06.41.93.73,2,.73s2-.32,2-.73h0V16.42h0C548.75,16.8,547.91,17.1,546.88,17.1Z"/><path class="cls-23" d="M286.82,60.79c0-5.53,1.61-10,3.67-10.67V50H254.16l-1,0c-2.19.3-3.94,5-3.94,10.77s1.75,10.48,3.94,10.77l1,0h36.33v-.13C288.43,70.83,286.82,66.33,286.82,60.79Z"/><path class="cls-23" d="M627,60.79c0-5.53,1.61-10,3.67-10.67V50H594.35l-1,0c-2.19.3-3.94,5-3.94,10.77s1.75,10.48,3.94,10.77l1,0h36.33v-.13C628.62,70.83,627,66.33,627,60.79Z"/><path class="cls-23" d="M107.89,14.29c0-1.66.48-3,1.1-3.2v0H93.51c-.66.09-1.18,1.5-1.18,3.23s.52,3.14,1.18,3.23H109v0C108.37,17.3,107.89,15.95,107.89,14.29Z"/><path class="cls-23" d="M432.25,39.58c0-1.66.48-3,1.1-3.2v0H417.87c-.66.09-1.18,1.5-1.18,3.23s.52,3.14,1.18,3.23h15.48v0C432.73,42.59,432.25,41.24,432.25,39.58Z"/><path class="cls-23" d="M447.76,26.4c0-1.66.48-3,1.1-3.2v0H433.38c-.66.09-1.18,1.5-1.18,3.23s.52,3.14,1.18,3.23h15.48v0C448.24,29.4,447.76,28.06,447.76,26.4Z"/><path class="cls-23" d="M462.28,14.29c0-1.66.48-3,1.1-3.2v0H447.91c-.66.09-1.18,1.5-1.18,3.23s.52,3.14,1.18,3.23h15.48v0C462.77,17.3,462.28,15.95,462.28,14.29Z"/><path class="cls-24" d="M100.77,5c-1,0-1.87-.3-2-.68h0v9.62h0c.06.41.93.73,2,.73s2-.32,2-.73h0V4.31h0C102.64,4.69,101.8,5,100.77,5Z"/><path class="cls-7" d="M689.24,83.9H674.75V94.36h14.49a6.07,6.07,0,0,1,6.06,6.06v14.85h10.45V100.42A16.54,16.54,0,0,0,689.24,83.9Z"/><path class="cls-18" d="M68.06,89.18c0-2.61.76-4.73,1.73-5v-.06H45.45c-1,.14-1.85,2.35-1.85,5.07s.82,4.94,1.85,5.07H69.79V94.2C68.82,93.91,68.06,91.78,68.06,89.18Z"/><path class="cls-18" d="M427.38,89.18c0-2.61.76-4.73,1.73-5v-.06H404.77c-1,.14-1.85,2.35-1.85,5.07s.82,4.94,1.85,5.07h24.35V94.2C428.14,93.91,427.38,91.78,427.38,89.18Z"/><path class="cls-18" d="M622.05,89.18c0-2.61.76-4.73,1.73-5v-.06H599.43c-1,.14-1.85,2.35-1.85,5.07s.82,4.94,1.85,5.07h24.35V94.2C622.81,93.91,622.05,91.78,622.05,89.18Z"/><path class="cls-18" d="M700.46,258.8c-2.61,0-4.73-.76-5-1.73h-.06v24.35h0c.14,1,2.35,1.85,5.07,1.85s4.94-.82,5.07-1.85h0V257.07h-.06C705.19,258,703.06,258.8,700.46,258.8Z"/><path class="cls-7" d="M56.78,77.9c-1,0-1.89-.3-2-.69h0V87h0c.06.41.94.74,2,.74s2-.33,2-.74h0V77.21h0C58.67,77.6,57.82,77.9,56.78,77.9Z"/><path class="cls-18" d="M323.4,89.18c0-2.61.76-4.73,1.73-5v-.06H300.78c-1,.14-1.85,2.35-1.85,5.07s.82,4.94,1.85,5.07h24.35V94.2C324.15,93.91,323.4,91.78,323.4,89.18Z"/><path class="cls-7" d="M312.11,77.9c-1,0-1.89-.3-2-.69h0V87h0c.06.41.94.74,2,.74s2-.33,2-.74h0V77.21h0C314,77.6,313.15,77.9,312.11,77.9Z"/><path class="cls-18" d="M528.69,89.18c0-2.61.76-4.73,1.73-5v-.06H506.07c-1,.14-1.85,2.35-1.85,5.07s.82,4.94,1.85,5.07h24.35V94.2C529.45,93.91,528.69,91.78,528.69,89.18Z"/><path class="cls-7" d="M517.4,77.9c-1,0-1.89-.3-2-.69h0V87h0c.06.41.94.74,2,.74s2-.33,2-.74h0V77.21h0C519.3,77.6,518.45,77.9,517.4,77.9Z"/><path class="cls-23" d="M755.28,39.58c0-1.66.48-3,1.1-3.2v0H740.9c-.66.09-1.18,1.5-1.18,3.23s.52,3.14,1.18,3.23h15.48v0C755.76,42.59,755.28,41.24,755.28,39.58Z"/><path class="cls-23" d="M770.79,26.4c0-1.66.48-3,1.1-3.2v0H756.41c-.66.09-1.18,1.5-1.18,3.23s.52,3.14,1.18,3.23h15.48v0C771.27,29.4,770.79,28.06,770.79,26.4Z"/><path class="cls-23" d="M785.31,14.29c0-1.66.48-3,1.1-3.2v0H770.93c-.66.09-1.18,1.5-1.18,3.23s.52,3.14,1.18,3.23h15.48v0C785.79,17.3,785.31,15.95,785.31,14.29Z"/></g></g></svg>