<svg id="Layer_1" data-name="Layer 1" xmlns="http://www.w3.org/2000/svg" viewBox="0 0 1400 911.25"><defs><style>.cls-1,.cls-12,.cls-15,.cls-6{fill:#ddcde5;}.cls-1{opacity:0.35;}.cls-2{fill:#63aea9;}.cls-3{fill:#159b8d;}.cls-4{fill:none;}.cls-5{fill:#686178;}.cls-7{fill:#555067;}.cls-8{fill:#423f57;}.cls-9{fill:#313242;}.cls-10{fill:#807a93;}.cls-11{fill:#353047;}.cls-12,.cls-28,.cls-48{opacity:0.25;}.cls-13{fill:#484459;}.cls-14{fill:#334;}.cls-15,.cls-32{opacity:0.5;}.cls-16{fill:#39364c;}.cls-17{fill:#292a3a;}.cls-18{fill:#343147;}.cls-19{fill:#39384d;}.cls-20{fill:#48455b;}.cls-21,.cls-48{fill:#11675a;}.cls-22{fill:#198978;}.cls-23{fill:#187868;}.cls-24{fill:#115549;}.cls-25{fill:#5eae61;}.cls-26{fill:#408151;}.cls-27{fill:#eb955c;}.cls-29{fill:#f6ac81;}.cls-30{fill:#ce362e;}.cls-31{fill:#e1553d;}.cls-33{fill:#a62122;}.cls-34{fill:#bb2726;}.cls-35{fill:#65627b;}.cls-36{fill:#f8eef5;}.cls-37{fill:#ea5a5a;}.cls-38{fill:#f6b892;}.cls-39{fill:#e3aa87;}.cls-40{fill:#e45252;}.cls-41{fill:#c6afd3;}.cls-42{fill:#b27654;}.cls-43{fill:#2e9a8b;}.cls-44{fill:#b12425;}.cls-45{fill:#9c6046;}.cls-46{fill:#32af9e;}.cls-47{fill:#605c78;}.cls-49{fill:#323045;}.cls-50{fill:#35745c;}.cls-51{fill:#fff;}</style></defs><title>Town-1</title><path class="cls-1" d="M304.6,890a39.21,39.21,0,0,1,7.88-23.63,39.38,39.38,0,0,1,26-62.62,39.38,39.38,0,0,1,78-.23,39.38,39.38,0,0,1,32.23,55.75,34.41,34.41,0,0,1,8.91,40.37H661.3a44.73,44.73,0,0,1,81-34.5,30.57,30.57,0,0,1,27.08,34.5h446.82v-0.55h0V884.69h-31.66L1187.2,874h-7.84l8.52-28.73h-8.52l44.47-149.88,44.47,149.88h-8.52l8.52,28.73h-7.84l2.61,10.69h-31.49v14.37h0q0,0.28,0,.55H1399V805.15C1333.87,697,1215.34,624.63,1079.9,624.63c-127.55,0-240.1,64.18-307.16,162a317,317,0,0,0-312,5.48c-57.55-79.27-150.94-130.82-256.39-130.82A315.35,315.35,0,0,0,.26,735.82V899.61H305.8A39.39,39.39,0,0,1,304.6,890Z"/><path class="cls-2" d="M742,864.29a45.74,45.74,0,0,1,6.37,35.32h21.36A31.29,31.29,0,0,0,742,864.29Z"/><path class="cls-2" d="M707.72,895.55a31.34,31.34,0,0,1,31.34-31.34,31.67,31.67,0,0,1,3.33.18,45.79,45.79,0,0,0-82.93,35.32H708A31.57,31.57,0,0,1,707.72,895.55Z"/><path class="cls-2" d="M707.72,895.55a31.57,31.57,0,0,0,.28,4.16h40.75a45.74,45.74,0,0,0-6.37-35.32,31.67,31.67,0,0,0-3.33-.18A31.34,31.34,0,0,0,707.72,895.55Z"/><path class="cls-3" d="M330.79,885a35.34,35.34,0,0,1,30.39-35,35.33,35.33,0,0,1,69.94-.2A35.19,35.19,0,0,1,451,858.18,40.42,40.42,0,0,0,417.89,801a40.42,40.42,0,0,0-80,.23,40.42,40.42,0,0,0-26.68,64.27,40.4,40.4,0,0,0-6.85,34.14H334A35.18,35.18,0,0,1,330.79,885Z"/><path class="cls-2" d="M396.16,819.17a35.34,35.34,0,0,0-35,30.38A35.33,35.33,0,0,0,334,899.17H453.48A40.47,40.47,0,0,0,446.62,865a40.42,40.42,0,0,0,4.35-7.29,35.19,35.19,0,0,0-19.86-8.39A35.34,35.34,0,0,0,396.16,819.17Z"/><path class="cls-4" d="M1232.55,852.08h0.05a0.45,0.45,0,0,1,.49,0l0,0.05a0.16,0.16,0,0,1,.06.15c0.12,0.08.22,0.17,0.33,0.26a2,2,0,0,1-.15-1.78,2,2,0,0,1,.34-0.62h0a1.71,1.71,0,0,1-.4-0.12,3.62,3.62,0,0,1-.59-0.25l0,0c-0.12.11-.45,0.37-0.18,0.43a0.23,0.23,0,0,1,.19.16,2.64,2.64,0,0,1-.38,1.35A0.65,0.65,0,0,1,1232.55,852.08Z"/><path class="cls-4" d="M815.64,818.75h0.66v-3a4.65,4.65,0,0,0-.66-0.56v3.57Z"/><path class="cls-4" d="M1233.92,849.77a0.81,0.81,0,0,1,.08-0.64,2.36,2.36,0,0,1,.17-0.21,0.27,0.27,0,0,1-.26-0.25,0.79,0.79,0,0,0-.21-0.07,0.44,0.44,0,0,0-.33.28,2.67,2.67,0,0,1-.25.45,2.8,2.8,0,0,1,.29.23A0.76,0.76,0,0,0,1233.92,849.77Z"/><path class="cls-4" d="M816.78,818.75h1a5.54,5.54,0,0,0-1-2.45v2.45Z"/><path class="cls-4" d="M1234.53,853.11a1.33,1.33,0,0,1-.86-0.07,2.45,2.45,0,0,1-.51-0.44,0.56,0.56,0,0,0-.5-0.16l-0.11,0c-0.26.15-.45,0.53-0.73,0.72h3.35v-0.47A0.7,0.7,0,0,1,1234.53,853.11Z"/><path class="cls-4" d="M1231.74,852.74a0.77,0.77,0,0,1-.61-0.46,0.42,0.42,0,0,1,.06-0.61c0.23-.11.37,0.16,0.39,0.34a0.13,0.13,0,0,1-.16.15l0.1,0.14a0.31,0.31,0,0,0,.4.07,2.82,2.82,0,0,1,.32-0.16,5.36,5.36,0,0,0-.45-0.58,1,1,0,0,1,.09-0.41,2.59,2.59,0,0,1-.51.08l-0.07,0a1.06,1.06,0,0,1-.6.41,1.55,1.55,0,0,1-.32.14,0.77,0.77,0,0,1-.19.14,2,2,0,0,1,.08.3c0,0.08,0,.16,0,0.24a0.79,0.79,0,0,1,.11-0.17l0,0a0.17,0.17,0,0,1,.31-0.08l0.19,0.24a0.15,0.15,0,0,1-.18.22v0a0.9,0.9,0,0,0,.9.11l0.14,0,0.07-.08h-0.13Z"/><path class="cls-4" d="M1258.45,849.13l0,0.07a1.56,1.56,0,0,0,.25-0.23,2.47,2.47,0,0,1,.32-0.42,1.09,1.09,0,0,1,.7-0.13,0.76,0.76,0,0,1,0-.4,1.55,1.55,0,0,0-.31-0.28l0,0a0.31,0.31,0,0,0-.2.08c-0.23.24-.49,0.44-0.72,0.67v0a0.25,0.25,0,0,1-.32.17,0.16,0.16,0,0,1-.11-0.2l0.06-.08h0a3.13,3.13,0,0,1,.33-0.31c-0.4-.23-0.64.24-0.38,0.57C1258.18,848.81,1258.33,849,1258.45,849.13Z"/><path class="cls-4" d="M1258.17,849.78h0a1,1,0,0,0,.05-0.22v-0.15a2,2,0,0,0-.5-0.66v0h-0.45v1.31l0.12,0A0.73,0.73,0,0,1,1258.17,849.78Z"/><path class="cls-4" d="M1234.72,848.76a1.31,1.31,0,0,0-.51.8,1,1,0,0,0,.05.23h0a0.73,0.73,0,0,1,.77.31l0.12,0v-1.31h-0.45v0Z"/><path class="cls-4" d="M1260.94,851.08a2.64,2.64,0,0,0-.55.3,1.23,1.23,0,0,0-.61.6l0,0.12a0.63,0.63,0,0,1,.26.08,1.51,1.51,0,0,1,.49.2,0.3,0.3,0,0,0,.34,0v-0.11l0-.08,0,0a0.13,0.13,0,0,1-.05-0.12c0-.18.17-0.45,0.39-0.34l0.09,0.06c0.12-.15.25-0.3,0.37-0.45l-0.08-.06a2.15,2.15,0,0,0-.49-0.56l0,0a0.35,0.35,0,0,1,0,.35A0.25,0.25,0,0,1,1260.94,851.08Z"/><path class="cls-4" d="M1234.15,850.28H1234l0,0a1.63,1.63,0,0,0-.31.64,1.73,1.73,0,0,0,.08,1.32,1.18,1.18,0,0,0,.77.52h0.13a0.3,0.3,0,0,0,.3-0.27,0.65,0.65,0,0,0-.06-0.44l-0.26,0a0.16,0.16,0,0,1-.08.31c-0.78-.17-0.12-1.29.53-0.63a0.8,0.8,0,0,1,.12.16V850.4A0.6,0.6,0,0,1,1234.15,850.28Z"/><path class="cls-4" d="M1259.76,848.76v0a2.41,2.41,0,0,0-.31,0,0.66,0.66,0,0,0-.42.38,2.48,2.48,0,0,1-.35.32v0a0.31,0.31,0,0,1-.12.15,1.38,1.38,0,0,1-.06.27,1.59,1.59,0,0,1,.58.83,2,2,0,0,1-.15,1.78l0.24-.2v0a0.51,0.51,0,0,1,.12-0.24,1.1,1.1,0,0,1,.18-0.14l0,0a1.53,1.53,0,0,1,.11-0.22,1.82,1.82,0,0,1,.52-0.47,4.77,4.77,0,0,1,.54-0.34h0a1.21,1.21,0,0,1-.58-0.77,0.4,0.4,0,0,1,0-.21l-0.11-.19A0.92,0.92,0,0,1,1259.76,848.76Z"/><path class="cls-4" d="M809.85,818.75V816.3a5.55,5.55,0,0,0-1,2.45h1Z"/><path class="cls-4" d="M810.33,818.75H811v-3.57a4.6,4.6,0,0,0-.66.56v3Z"/><path class="cls-4" d="M811.89,814.7l-0.42.19v3.86h1.09v-3.06h-0.66v-1Z"/><path class="cls-4" d="M814.74,815.69h-0.66v3.06h1.09v-3.86l-0.42-.19v1Z"/><path class="cls-4" d="M1257.92,852.43a0.16,0.16,0,0,1-.08-0.31l-0.26,0a0.64,0.64,0,0,0-.06.44,0.3,0.3,0,0,0,.3.27H1258a1.18,1.18,0,0,0,.77-0.52,1.73,1.73,0,0,0,.08-1.32,1.62,1.62,0,0,0-.31-0.64l-0.14-.11c-0.26.42-.73,0.65-1.08,0.2V852a0.78,0.78,0,0,1,.12-0.16C1258,851.14,1258.7,852.26,1257.92,852.43Z"/><path class="cls-4" d="M1274.28,835.56c0-.84-0.24-1.53-0.54-1.53s-0.54.68-.54,1.53a3.38,3.38,0,0,0,.16,1.08v0.45h-0.1v5.48h1v-5.48h-0.1v-0.45A3.36,3.36,0,0,0,1274.28,835.56Z"/><path class="cls-4" d="M1277.77,834.61c0-.84-0.24-1.53-0.54-1.53s-0.54.68-.54,1.53a3.38,3.38,0,0,0,.16,1.08v0.45h-0.1v5.48h1v-5.48h-0.1v-0.45A3.34,3.34,0,0,0,1277.77,834.61Z"/><path class="cls-4" d="M1276,835.09c0-.84-0.24-1.53-0.54-1.53s-0.54.68-.54,1.53a3.36,3.36,0,0,0,.16,1.08v0.45H1275v5.48h1v-5.48h-0.1v-0.45A3.38,3.38,0,0,0,1276,835.09Z"/><path class="cls-4" d="M1259.89,852.49l-0.11,0a0.56,0.56,0,0,0-.5.16,2.44,2.44,0,0,1-.51.44,1.33,1.33,0,0,1-.86.07,0.7,0.7,0,0,1-.64-0.37v0.47h3.34C1260.34,853,1260.15,852.64,1259.89,852.49Z"/><polygon class="cls-4" points="1278.85 814.01 1278.87 814.01 1279.09 814.01 1279.09 813.54 1278.85 813.54 1278.85 814.01"/><path class="cls-4" d="M1285.3,835.56c0-.84-0.24-1.53-0.54-1.53s-0.54.68-.54,1.53a3.34,3.34,0,0,0,.16,1.08v0.45h-0.1v5.48h1v-5.48h-0.1v-0.45A3.34,3.34,0,0,0,1285.3,835.56Z"/><path class="cls-4" d="M1283.55,835.09c0-.84-0.24-1.53-0.54-1.53s-0.54.68-.54,1.53a3.38,3.38,0,0,0,.16,1.08v0.45h-0.1v5.48h1v-5.48h-0.1v-0.45A3.38,3.38,0,0,0,1283.55,835.09Z"/><polygon class="cls-4" points="1279.41 813.31 1279.64 813.31 1279.64 813.14 1279.41 812.81 1279.41 813.31"/><polygon class="cls-4" points="1278.85 813.31 1279.09 813.31 1279.09 812.8 1278.85 813.14 1278.85 813.31"/><polygon class="cls-4" points="1279.41 814.01 1279.62 814.01 1279.64 814.01 1279.64 813.54 1279.41 813.54 1279.41 814.01"/><path class="cls-4" d="M1281.81,834.61c0-.84-0.24-1.53-0.54-1.53s-0.54.68-.54,1.53a3.34,3.34,0,0,0,.16,1.08v0.45h-0.1v5.48h1v-5.48h-0.1v-0.45A3.38,3.38,0,0,0,1281.81,834.61Z"/><rect class="cls-5" x="835.29" y="542.41" width="217.42" height="357.2"/><rect class="cls-6" x="1021.46" y="548.68" width="30.13" height="10.24"/><rect class="cls-6" x="990.05" y="548.68" width="30.14" height="10.24"/><rect class="cls-6" x="958.64" y="548.68" width="30.14" height="10.24"/><rect class="cls-6" x="927.23" y="548.68" width="30.13" height="10.24"/><rect class="cls-6" x="895.82" y="548.68" width="30.13" height="10.24"/><rect class="cls-6" x="864.42" y="548.68" width="30.13" height="10.24"/><rect class="cls-6" x="835.77" y="548.68" width="27.38" height="10.24"/><rect class="cls-6" x="1037.16" y="560.27" width="14.46" height="10.24"/><rect class="cls-6" x="1005.75" y="560.27" width="30.13" height="10.24"/><rect class="cls-6" x="974.34" y="560.27" width="30.13" height="10.24"/><rect class="cls-6" x="942.94" y="560.27" width="30.13" height="10.24"/><rect class="cls-6" x="911.53" y="560.27" width="30.13" height="10.24"/><rect class="cls-6" x="880.12" y="560.27" width="30.13" height="10.24"/><rect class="cls-6" x="848.71" y="560.27" width="30.13" height="10.24"/><rect class="cls-6" x="835.77" y="560.27" width="11.67" height="10.24"/><rect class="cls-6" x="1021.46" y="571.87" width="30.13" height="10.24"/><rect class="cls-6" x="990.05" y="571.87" width="30.14" height="10.24"/><rect class="cls-6" x="958.64" y="571.87" width="30.14" height="10.24"/><rect class="cls-6" x="927.23" y="571.87" width="30.13" height="10.24"/><rect class="cls-6" x="895.82" y="571.87" width="30.13" height="10.24"/><rect class="cls-6" x="864.42" y="571.87" width="30.13" height="10.24"/><rect class="cls-6" x="835.77" y="571.87" width="27.38" height="10.24"/><rect class="cls-6" x="1037.16" y="583.46" width="14.46" height="10.24"/><rect class="cls-6" x="1005.75" y="583.46" width="30.13" height="10.24"/><rect class="cls-6" x="974.34" y="583.46" width="30.13" height="10.24"/><rect class="cls-6" x="942.94" y="583.46" width="30.13" height="10.24"/><rect class="cls-6" x="911.53" y="583.46" width="30.13" height="10.24"/><rect class="cls-6" x="880.12" y="583.46" width="30.13" height="10.24"/><rect class="cls-6" x="848.71" y="583.46" width="30.13" height="10.24"/><rect class="cls-6" x="835.77" y="583.46" width="11.67" height="10.24"/><rect class="cls-6" x="1021.46" y="595.06" width="30.13" height="10.24"/><rect class="cls-6" x="990.05" y="595.06" width="30.14" height="10.24"/><rect class="cls-6" x="958.64" y="595.06" width="30.14" height="10.24"/><rect class="cls-6" x="927.23" y="595.06" width="30.13" height="10.24"/><rect class="cls-6" x="895.82" y="595.06" width="30.13" height="10.24"/><rect class="cls-6" x="864.42" y="595.06" width="30.13" height="10.24"/><rect class="cls-6" x="835.77" y="595.06" width="27.38" height="10.24"/><rect class="cls-6" x="1037.16" y="606.66" width="14.46" height="10.24"/><rect class="cls-6" x="1005.75" y="606.66" width="30.13" height="10.24"/><rect class="cls-6" x="974.34" y="606.66" width="30.13" height="10.24"/><rect class="cls-6" x="942.94" y="606.66" width="30.13" height="10.24"/><rect class="cls-6" x="911.53" y="606.66" width="30.13" height="10.24"/><rect class="cls-6" x="880.12" y="606.66" width="30.13" height="10.24"/><rect class="cls-6" x="848.71" y="606.66" width="30.13" height="10.24"/><rect class="cls-6" x="835.77" y="606.66" width="11.67" height="10.24"/><rect class="cls-6" x="1021.46" y="618.25" width="30.13" height="10.24"/><rect class="cls-6" x="990.05" y="618.25" width="30.14" height="10.24"/><rect class="cls-6" x="958.64" y="618.25" width="30.14" height="10.24"/><rect class="cls-6" x="927.23" y="618.25" width="30.13" height="10.24"/><rect class="cls-6" x="895.82" y="618.25" width="30.13" height="10.24"/><rect class="cls-6" x="864.42" y="618.25" width="30.13" height="10.24"/><rect class="cls-6" x="835.77" y="618.25" width="27.38" height="10.24"/><rect class="cls-6" x="1037.16" y="629.85" width="14.46" height="10.24"/><rect class="cls-6" x="1005.75" y="629.85" width="30.13" height="10.24"/><rect class="cls-6" x="974.34" y="629.85" width="30.13" height="10.24"/><rect class="cls-6" x="942.94" y="629.85" width="30.13" height="10.24"/><rect class="cls-6" x="911.53" y="629.85" width="30.13" height="10.24"/><rect class="cls-6" x="880.12" y="629.85" width="30.13" height="10.24"/><rect class="cls-6" x="848.71" y="629.85" width="30.13" height="10.24"/><rect class="cls-6" x="835.77" y="629.85" width="11.67" height="10.24"/><rect class="cls-6" x="1021.46" y="641.44" width="30.13" height="10.24"/><rect class="cls-6" x="990.05" y="641.44" width="30.14" height="10.24"/><rect class="cls-6" x="958.64" y="641.44" width="30.14" height="10.24"/><rect class="cls-6" x="927.23" y="641.44" width="30.13" height="10.24"/><rect class="cls-6" x="895.82" y="641.44" width="30.13" height="10.24"/><rect class="cls-6" x="864.42" y="641.44" width="30.13" height="10.24"/><polyline class="cls-6" points="863.14 641.44 835.77 641.44 835.77 651.68 863.14 651.68 863.14 641.44"/><rect class="cls-6" x="1037.16" y="653.04" width="14.46" height="10.24"/><rect class="cls-6" x="1005.75" y="653.04" width="30.13" height="10.24"/><rect class="cls-6" x="974.34" y="653.04" width="30.13" height="10.24"/><rect class="cls-6" x="942.94" y="653.04" width="30.13" height="10.24"/><rect class="cls-6" x="911.53" y="653.04" width="30.13" height="10.24"/><rect class="cls-6" x="880.12" y="653.04" width="30.13" height="10.24"/><rect class="cls-6" x="848.71" y="653.04" width="30.13" height="10.24"/><rect class="cls-6" x="835.77" y="653.04" width="11.67" height="10.24"/><rect class="cls-6" x="1021.46" y="664.63" width="30.13" height="10.24"/><rect class="cls-6" x="990.05" y="664.63" width="30.14" height="10.24"/><rect class="cls-6" x="958.64" y="664.63" width="30.14" height="10.24"/><rect class="cls-6" x="927.23" y="664.63" width="30.13" height="10.24"/><rect class="cls-6" x="895.82" y="664.63" width="30.13" height="10.24"/><rect class="cls-6" x="864.42" y="664.63" width="30.13" height="10.24"/><rect class="cls-6" x="835.77" y="664.63" width="27.38" height="10.24"/><rect class="cls-6" x="1037.16" y="676.23" width="14.46" height="10.24"/><rect class="cls-6" x="1005.75" y="676.23" width="30.13" height="10.24"/><rect class="cls-6" x="974.34" y="676.23" width="30.13" height="10.24"/><rect class="cls-6" x="942.94" y="676.23" width="30.13" height="10.24"/><rect class="cls-6" x="911.53" y="676.23" width="30.13" height="10.24"/><rect class="cls-6" x="880.12" y="676.23" width="30.13" height="10.24"/><rect class="cls-6" x="848.71" y="676.23" width="30.13" height="10.24"/><rect class="cls-6" x="835.77" y="676.23" width="11.67" height="10.24"/><rect class="cls-6" x="1021.46" y="687.83" width="30.13" height="10.24"/><rect class="cls-6" x="990.05" y="687.83" width="30.14" height="10.24"/><rect class="cls-6" x="958.64" y="687.83" width="30.14" height="10.24"/><rect class="cls-6" x="927.23" y="687.83" width="30.13" height="10.24"/><rect class="cls-6" x="895.82" y="687.83" width="30.13" height="10.24"/><rect class="cls-6" x="864.42" y="687.83" width="30.13" height="10.24"/><rect class="cls-6" x="835.77" y="687.83" width="27.38" height="10.24"/><rect class="cls-6" x="1037.16" y="699.42" width="14.46" height="10.24"/><rect class="cls-6" x="1005.75" y="699.42" width="30.13" height="10.24"/><rect class="cls-6" x="974.34" y="699.42" width="30.13" height="10.24"/><rect class="cls-6" x="942.94" y="699.42" width="30.13" height="10.24"/><rect class="cls-6" x="911.53" y="699.42" width="30.13" height="10.24"/><rect class="cls-6" x="880.12" y="699.42" width="30.13" height="10.24"/><rect class="cls-6" x="848.71" y="699.42" width="30.13" height="10.24"/><rect class="cls-6" x="835.77" y="699.42" width="11.67" height="10.24"/><rect class="cls-6" x="1021.46" y="711.02" width="30.13" height="10.24"/><rect class="cls-6" x="990.05" y="711.02" width="30.14" height="10.24"/><rect class="cls-6" x="958.64" y="711.02" width="30.14" height="10.24"/><rect class="cls-6" x="927.23" y="711.02" width="30.13" height="10.24"/><rect class="cls-6" x="895.82" y="711.02" width="30.13" height="10.24"/><rect class="cls-6" x="864.42" y="711.02" width="30.13" height="10.24"/><rect class="cls-6" x="835.77" y="711.02" width="27.38" height="10.24"/><rect class="cls-6" x="1037.16" y="722.61" width="14.46" height="10.24"/><rect class="cls-6" x="1005.75" y="722.61" width="30.13" height="10.24"/><rect class="cls-6" x="974.34" y="722.61" width="30.13" height="10.24"/><rect class="cls-6" x="942.94" y="722.61" width="30.13" height="10.24"/><rect class="cls-6" x="911.53" y="722.61" width="30.13" height="10.24"/><rect class="cls-6" x="880.12" y="722.61" width="30.13" height="10.24"/><rect class="cls-6" x="848.71" y="722.61" width="30.13" height="10.24"/><rect class="cls-6" x="835.77" y="722.61" width="11.67" height="10.24"/><rect class="cls-6" x="1021.46" y="734.21" width="30.13" height="10.24"/><rect class="cls-6" x="990.05" y="734.21" width="30.14" height="10.24"/><rect class="cls-6" x="958.64" y="734.21" width="30.14" height="10.24"/><rect class="cls-6" x="927.23" y="734.21" width="30.13" height="10.24"/><rect class="cls-6" x="895.82" y="734.21" width="30.13" height="10.24"/><rect class="cls-6" x="864.42" y="734.21" width="30.13" height="10.24"/><rect class="cls-6" x="835.77" y="734.21" width="27.38" height="10.24"/><rect class="cls-6" x="1037.16" y="745.8" width="14.46" height="10.24"/><rect class="cls-6" x="1005.75" y="745.8" width="30.13" height="10.24"/><rect class="cls-6" x="974.34" y="745.8" width="30.13" height="10.24"/><rect class="cls-6" x="942.94" y="745.8" width="30.13" height="10.24"/><rect class="cls-6" x="911.53" y="745.8" width="30.13" height="10.24"/><rect class="cls-6" x="880.12" y="745.8" width="30.13" height="10.24"/><rect class="cls-6" x="848.71" y="745.8" width="30.13" height="10.24"/><rect class="cls-6" x="835.77" y="745.8" width="11.67" height="10.24"/><rect class="cls-6" x="1021.46" y="757.4" width="30.13" height="10.24"/><rect class="cls-6" x="990.05" y="757.4" width="30.14" height="10.24"/><rect class="cls-6" x="958.64" y="757.4" width="30.14" height="10.24"/><rect class="cls-6" x="927.23" y="757.4" width="30.13" height="10.24"/><rect class="cls-6" x="895.82" y="757.4" width="30.13" height="10.24"/><rect class="cls-6" x="864.42" y="757.4" width="30.13" height="10.24"/><rect class="cls-6" x="835.77" y="757.4" width="27.38" height="10.24"/><rect class="cls-7" x="859" y="560.04" width="39.99" height="68.91"/><rect class="cls-7" x="926.25" y="560.04" width="39.99" height="68.91"/><rect class="cls-7" x="993.5" y="560.04" width="39.99" height="68.91"/><rect class="cls-7" x="859" y="666.29" width="39.99" height="77"/><rect class="cls-7" x="993.35" y="666.29" width="39.99" height="77"/><rect class="cls-8" x="861.78" y="569.58" width="34.78" height="55.23"/><rect class="cls-8" x="928.86" y="569.58" width="34.78" height="55.23"/><rect class="cls-9" x="905.82" y="783.49" width="142.35" height="101.49"/><rect class="cls-8" x="948.97" y="880.49" width="56.06" height="14.37"/><rect class="cls-8" x="995.93" y="569.58" width="34.78" height="55.23"/><rect class="cls-7" x="913.08" y="653.21" width="66.33" height="99.05"/><rect class="cls-8" x="861.78" y="670.86" width="34.78" height="68.72"/><rect class="cls-10" x="917.41" y="658.28" width="57.67" height="88.9"/><rect class="cls-8" x="995.96" y="670.86" width="34.78" height="68.72"/><path class="cls-7" d="M943.79,672.48a10.53,10.53,0,1,0-21.07,0c0,0.2,0,.4,0,0.6V741.3h21V673.08C943.78,672.89,943.79,672.69,943.79,672.48Z"/><path class="cls-7" d="M969.16,672.48a10.53,10.53,0,1,0-21.07,0c0,0.2,0,.4,0,0.6V741.3h21V673.08C969.16,672.89,969.16,672.69,969.16,672.48Z"/><rect class="cls-11" x="913.07" y="650.13" width="66.4" height="3.59"/><polygon class="cls-8" points="970.48 637.54 922.06 637.54 913.07 650.13 979.47 650.13 970.48 637.54"/><polygon class="cls-10" points="1025.82 485.2 862.68 485.2 832.39 544.19 1056.11 544.19 1025.82 485.2"/><rect class="cls-10" x="877.86" y="670.84" width="2.69" height="68.76"/><rect class="cls-10" x="877.84" y="687.71" width="2.69" height="34.66" transform="translate(1584.23 -174.15) rotate(90)"/><rect class="cls-10" x="1012" y="569.55" width="2.69" height="11.87"/><rect class="cls-10" x="1011.99" y="564.99" width="2.69" height="34.66" transform="translate(1595.65 -431.01) rotate(90)"/><rect class="cls-10" x="877.86" y="569.55" width="2.69" height="34.15"/><rect class="cls-10" x="877.84" y="586.42" width="2.69" height="34.66" transform="translate(1482.94 -275.44) rotate(90)"/><rect class="cls-12" x="851.04" y="787.23" width="33.83" height="83.83"/><rect class="cls-9" x="835.35" y="783.04" width="16.65" height="88.02"/><rect class="cls-9" x="883.37" y="783.04" width="16.95" height="88.02"/><rect class="cls-8" x="835.38" y="771.38" width="65.05" height="17.04"/><rect class="cls-7" x="835.17" y="870.76" width="65.26" height="2.66"/><rect class="cls-13" x="835.17" y="873.32" width="65.26" height="7.06"/><rect class="cls-14" x="835.17" y="873.32" width="65.26" height="0.87"/><rect class="cls-7" x="835.17" y="880.35" width="65.26" height="2.66"/><rect class="cls-13" x="835.17" y="882.92" width="65.26" height="7.06"/><rect class="cls-14" x="835.17" y="882.92" width="65.26" height="0.87"/><rect class="cls-7" x="835.17" y="889.95" width="65.26" height="2.66"/><rect class="cls-13" x="835.17" y="892.52" width="65.26" height="7.06"/><rect class="cls-14" x="835.17" y="892.52" width="65.26" height="0.87"/><rect class="cls-8" x="856.93" y="792.78" width="9.18" height="44.15"/><rect class="cls-8" x="869.38" y="792.78" width="9.18" height="44.15"/><rect class="cls-8" x="856.93" y="840.6" width="9.18" height="26.69"/><rect class="cls-8" x="869.38" y="840.6" width="9.18" height="26.69"/><rect class="cls-15" x="957.62" y="804.59" width="37.12" height="83.83"/><rect class="cls-8" x="853.96" y="832.66" width="1.35" height="12.35" rx="0.38" ry="0.38"/><rect class="cls-8" x="899.54" y="876.44" width="47.14" height="22.9"/><rect class="cls-8" x="1005.53" y="876.44" width="47.29" height="22.9"/><rect class="cls-16" x="953.43" y="771.81" width="4.22" height="106.88"/><rect class="cls-16" x="994.75" y="771.81" width="4.22" height="106.88"/><rect class="cls-8" x="899.54" y="771.81" width="11.19" height="106.88"/><rect class="cls-8" x="935.95" y="797.71" width="8.39" height="80.98"/><rect class="cls-8" x="1041.66" y="771.81" width="11.19" height="106.88"/><polygon class="cls-16" points="946.68 876.44 957.62 867.76 957.62 899.39 946.68 899.35 946.68 876.44"/><polygon class="cls-16" points="1005.5 876.44 994.78 867.76 994.78 899.39 1005.5 899.35 1005.5 876.44"/><path class="cls-8" d="M943.82,672.48a10.53,10.53,0,1,0-21.07,0c0,0.18,0,.36,0,0.54h21C943.81,672.84,943.82,672.66,943.82,672.48Z"/><path class="cls-8" d="M969.19,672.48a10.53,10.53,0,1,0-21.07,0c0,0.18,0,.36,0,0.54h21C969.19,672.84,969.19,672.66,969.19,672.48Z"/><rect class="cls-17" x="963.31" y="810.14" width="25.23" height="43.62"/><rect class="cls-8" x="963.31" y="810.14" width="25.23" height="34.4"/><path class="cls-8" d="M989,880H962.87V858.42H989V880Zm-25.23-.88H988.1V859.31H963.76v19.84Z"/><rect class="cls-15" x="957.61" y="794.76" width="37.11" height="6.54"/><rect class="cls-18" x="963.56" y="794.76" width="25.22" height="2.65"/><rect class="cls-8" x="1007.8" y="797.71" width="8.39" height="80.98"/><rect class="cls-19" x="935.95" y="797.71" width="1.16" height="77.69"/><rect class="cls-19" x="943.13" y="797.71" width="1.16" height="77.69"/><rect class="cls-19" x="1007.81" y="797.71" width="1.16" height="77.69"/><rect class="cls-19" x="1015" y="797.71" width="1.16" height="77.69"/><rect class="cls-8" x="1005.49" y="872.85" width="13.02" height="3.59"/><rect class="cls-8" x="1005.49" y="794.49" width="13.02" height="3.59"/><rect class="cls-8" x="899.54" y="770.54" width="153.3" height="24.18"/><rect class="cls-17" x="835.32" y="769.18" width="217.58" height="2.3"/><rect class="cls-20" x="924.54" y="675.1" width="17.62" height="0.67"/><rect class="cls-20" x="924.54" y="677.28" width="17.62" height="0.67"/><rect class="cls-20" x="924.54" y="679.46" width="17.62" height="0.67"/><rect class="cls-20" x="924.54" y="681.64" width="17.62" height="0.67"/><rect class="cls-20" x="924.54" y="683.83" width="17.62" height="0.67"/><rect class="cls-20" x="924.54" y="686.01" width="17.62" height="0.67"/><rect class="cls-20" x="924.54" y="688.19" width="17.62" height="0.67"/><rect class="cls-20" x="924.54" y="690.37" width="17.62" height="0.67"/><rect class="cls-20" x="924.54" y="692.55" width="17.62" height="0.67"/><rect class="cls-20" x="924.54" y="694.73" width="17.62" height="0.67"/><rect class="cls-20" x="924.54" y="696.92" width="17.62" height="0.67"/><rect class="cls-20" x="924.54" y="699.1" width="17.62" height="0.67"/><rect class="cls-20" x="924.54" y="701.28" width="17.62" height="0.67"/><rect class="cls-20" x="924.54" y="703.46" width="17.62" height="0.67"/><rect class="cls-20" x="924.54" y="705.64" width="17.62" height="0.67"/><rect class="cls-20" x="924.54" y="707.82" width="17.62" height="0.67"/><rect class="cls-20" x="924.54" y="710.01" width="17.62" height="0.67"/><rect class="cls-20" x="924.54" y="712.19" width="17.62" height="0.67"/><rect class="cls-20" x="924.54" y="714.37" width="17.62" height="0.67"/><rect class="cls-20" x="924.54" y="716.55" width="17.62" height="0.67"/><rect class="cls-20" x="924.54" y="718.73" width="17.62" height="0.67"/><rect class="cls-20" x="924.54" y="720.91" width="17.62" height="0.67"/><rect class="cls-20" x="924.54" y="723.1" width="17.62" height="0.67"/><rect class="cls-20" x="924.54" y="725.28" width="17.62" height="0.67"/><rect class="cls-20" x="924.54" y="727.46" width="17.62" height="0.67"/><rect class="cls-20" x="924.54" y="729.64" width="17.62" height="0.67"/><rect class="cls-20" x="924.54" y="731.82" width="17.62" height="0.67"/><rect class="cls-20" x="924.54" y="734" width="17.62" height="0.67"/><rect class="cls-20" x="924.54" y="736.19" width="17.62" height="0.67"/><rect class="cls-20" x="924.54" y="738.37" width="17.62" height="0.67"/><rect class="cls-20" x="949.88" y="675.1" width="17.62" height="0.67"/><rect class="cls-20" x="949.88" y="677.28" width="17.62" height="0.67"/><rect class="cls-20" x="949.88" y="679.46" width="17.62" height="0.67"/><rect class="cls-20" x="949.88" y="681.64" width="17.62" height="0.67"/><rect class="cls-20" x="949.88" y="683.83" width="17.62" height="0.67"/><rect class="cls-20" x="949.88" y="686.01" width="17.62" height="0.67"/><rect class="cls-20" x="949.88" y="688.19" width="17.62" height="0.67"/><rect class="cls-20" x="949.88" y="690.37" width="17.62" height="0.67"/><rect class="cls-20" x="949.88" y="692.55" width="17.62" height="0.67"/><rect class="cls-20" x="949.88" y="694.73" width="17.62" height="0.67"/><rect class="cls-20" x="949.88" y="696.92" width="17.62" height="0.67"/><rect class="cls-20" x="949.88" y="699.1" width="17.62" height="0.67"/><rect class="cls-20" x="949.88" y="701.28" width="17.62" height="0.67"/><rect class="cls-20" x="949.88" y="703.46" width="17.62" height="0.67"/><rect class="cls-20" x="949.88" y="705.64" width="17.62" height="0.67"/><rect class="cls-20" x="949.88" y="707.82" width="17.62" height="0.67"/><rect class="cls-20" x="949.88" y="710.01" width="17.62" height="0.67"/><rect class="cls-20" x="949.88" y="712.19" width="17.62" height="0.67"/><rect class="cls-20" x="949.88" y="714.37" width="17.62" height="0.67"/><rect class="cls-20" x="949.88" y="716.55" width="17.62" height="0.67"/><rect class="cls-20" x="949.88" y="718.73" width="17.62" height="0.67"/><rect class="cls-20" x="949.88" y="720.91" width="17.62" height="0.67"/><rect class="cls-20" x="949.88" y="723.1" width="17.62" height="0.67"/><rect class="cls-20" x="949.88" y="725.28" width="17.62" height="0.67"/><rect class="cls-20" x="949.88" y="727.46" width="17.62" height="0.67"/><rect class="cls-20" x="949.88" y="729.64" width="17.62" height="0.67"/><rect class="cls-20" x="949.88" y="731.82" width="17.62" height="0.67"/><rect class="cls-20" x="949.88" y="734" width="17.62" height="0.67"/><rect class="cls-20" x="949.88" y="736.19" width="17.62" height="0.67"/><rect class="cls-20" x="949.88" y="738.37" width="17.62" height="0.67"/><rect class="cls-10" x="943.8" y="683.91" width="2.69" height="51.26" transform="translate(1654.69 -235.61) rotate(90)"/><rect class="cls-10" x="931.79" y="661.86" width="2.69" height="82.23"/><rect class="cls-10" x="957.06" y="661.86" width="2.69" height="82.23"/><rect class="cls-8" x="933.63" y="872.85" width="13.02" height="3.59"/><rect class="cls-8" x="933.63" y="794.49" width="13.02" height="3.59"/><path class="cls-18" d="M1042.18,790.82H910.48V776h131.7v14.81Zm-130.82-.88H1041.3v-13H911.36v13Z"/><rect class="cls-7" x="924.57" y="485.1" width="39.6" height="40.72"/><polygon class="cls-17" points="972.29 525.75 964.2 525.81 964.2 485.1 972.29 485.1 972.29 525.75"/><polygon class="cls-17" points="924.68 525.81 916.6 525.75 916.6 485.1 924.68 485.1 924.68 525.81"/><rect class="cls-8" x="914.77" y="480.34" width="59.28" height="4.84"/><rect class="cls-8" x="927.78" y="488.04" width="32.84" height="35.46"/><rect class="cls-10" x="942.94" y="488.1" width="2.52" height="18.1"/><rect class="cls-10" x="942.92" y="489.84" width="2.52" height="32.76" transform="translate(1450.4 -437.96) rotate(90)"/><rect class="cls-7" x="835.28" y="544.28" width="217.45" height="2.4"/><rect class="cls-10" x="944.99" y="569.55" width="2.69" height="34.15"/><rect class="cls-10" x="944.98" y="586.42" width="2.69" height="34.66" transform="translate(1550.08 -342.57) rotate(90)"/><rect class="cls-3" x="483.26" y="622" width="218.99" height="276.32"/><rect class="cls-21" x="492.23" y="632.96" width="43.81" height="125.47"/><rect class="cls-21" x="649.56" y="632.96" width="43.81" height="125.47"/><rect class="cls-21" x="544.69" y="632.96" width="96.76" height="125.47"/><rect class="cls-21" x="479.67" y="766.77" width="226.38" height="12.54"/><rect class="cls-22" x="483.29" y="779.43" width="219.14" height="3.04"/><rect class="cls-21" x="478.85" y="602.88" width="226.93" height="22.79"/><rect class="cls-23" x="478.85" y="599.14" width="226.93" height="3.6"/><path class="cls-21" d="M540.65,762.17H487.44V629.11h53.22V762.17Zm-52.33-.88h51.45V630H488.32V761.28Z"/><path class="cls-21" d="M698.2,762.17H645V629.11H698.2V762.17Zm-52.33-.88h51.45V630H645.86V761.28Z"/><path class="cls-21" d="M645.8,762.17H539.93V629.11H645.8V762.17Zm-105-.88h104.1V630H540.81V761.28Z"/><rect class="cls-2" x="488.74" y="790.16" width="15.38" height="15.38"/><rect class="cls-2" x="488.74" y="824.99" width="68.75" height="66.03"/><rect class="cls-24" x="488.74" y="867.05" width="68.75" height="23.97"/><rect class="cls-2" x="492.27" y="670.39" width="43.71" height="88.11"/><rect class="cls-2" x="649.67" y="670.39" width="43.71" height="88.11"/><rect class="cls-2" x="544.68" y="670.39" width="96.83" height="88.11"/><rect class="cls-2" x="627.59" y="824.99" width="68.75" height="66.03"/><rect class="cls-2" x="506.46" y="790.16" width="15.38" height="15.38"/><rect class="cls-2" x="524.18" y="790.16" width="15.38" height="15.38"/><rect class="cls-2" x="541.91" y="790.16" width="15.38" height="15.38"/><rect class="cls-2" x="488.74" y="807.34" width="15.38" height="15.38"/><rect class="cls-2" x="506.46" y="807.34" width="15.38" height="15.38"/><rect class="cls-2" x="524.18" y="807.34" width="15.38" height="15.38"/><rect class="cls-2" x="541.91" y="807.34" width="15.38" height="15.38"/><rect class="cls-2" x="627.53" y="790.16" width="15.38" height="15.38"/><rect class="cls-2" x="645.26" y="790.16" width="15.38" height="15.38"/><rect class="cls-2" x="662.98" y="790.16" width="15.38" height="15.38"/><rect class="cls-2" x="680.71" y="790.16" width="15.38" height="15.38"/><rect class="cls-2" x="627.53" y="807.34" width="15.38" height="15.38"/><rect class="cls-2" x="645.26" y="807.34" width="15.38" height="15.38"/><rect class="cls-2" x="662.98" y="807.34" width="15.38" height="15.38"/><rect class="cls-2" x="680.71" y="807.34" width="15.38" height="15.38"/><rect class="cls-2" x="566.61" y="789.71" width="50.58" height="100.86"/><rect class="cls-21" x="574.59" y="798.3" width="34.07" height="81.86"/><rect class="cls-21" x="569.18" y="839.27" width="3.03" height="19.71" rx="0.86" ry="0.86"/><rect class="cls-24" x="627.64" y="867.05" width="68.75" height="23.97"/><rect class="cls-2" x="583.91" y="796.77" width="2.11" height="11.99"/><rect class="cls-2" x="596.81" y="796.77" width="2.11" height="11.99"/><rect class="cls-2" x="590.69" y="790.26" width="2.11" height="37.51" transform="translate(1400.76 217.28) rotate(90)"/><rect class="cls-2" x="597.47" y="870.05" width="2.11" height="11.99" transform="translate(1197.04 1752.09) rotate(-180)"/><rect class="cls-2" x="584.57" y="870.05" width="2.11" height="11.99" transform="translate(1171.24 1752.09) rotate(-180)"/><rect class="cls-2" x="590.69" y="851.04" width="2.11" height="37.51" transform="translate(-278.06 1461.54) rotate(-90)"/><polygon class="cls-25" points="1223.59 724.32 1223.59 874.4 1179.06 874.4 1223.59 724.32"/><polygon class="cls-26" points="1268.12 874.4 1223.59 874.4 1223.59 724.32 1268.12 874.4"/><path class="cls-4" d="M554.47,747.35a17.17,17.17,0,0,1-.74-2.13,1.13,1.13,0,0,0-1,.28,5.64,5.64,0,0,0-1.16,2.36c-0.15.46-2.67,7.47-4.33,12.1h6.45l1.82-10.52S554.79,748,554.47,747.35Z"/><rect class="cls-27" x="83.07" y="406.05" width="271.07" height="492.5"/><g class="cls-28"><rect class="cls-29" x="315" y="411.75" width="37.49" height="12.68"/><rect class="cls-29" x="275.93" y="411.75" width="37.49" height="12.68"/><rect class="cls-29" x="236.86" y="411.75" width="37.49" height="12.68"/><rect class="cls-29" x="197.79" y="411.75" width="37.49" height="12.68"/><rect class="cls-29" x="158.72" y="411.75" width="37.49" height="12.68"/><rect class="cls-29" x="119.65" y="411.75" width="37.49" height="12.68"/><rect class="cls-29" x="84.01" y="411.75" width="34.05" height="12.68"/><rect class="cls-29" x="334.54" y="426.11" width="17.99" height="12.68"/><rect class="cls-29" x="295.47" y="426.11" width="37.49" height="12.68"/><rect class="cls-29" x="256.39" y="426.11" width="37.49" height="12.68"/><rect class="cls-29" x="217.32" y="426.11" width="37.49" height="12.68"/><rect class="cls-29" x="178.25" y="426.11" width="37.49" height="12.68"/><rect class="cls-29" x="139.18" y="426.11" width="37.49" height="12.68"/><rect class="cls-29" x="100.11" y="426.11" width="37.49" height="12.68"/><rect class="cls-29" x="84.01" y="426.11" width="14.52" height="12.68"/><rect class="cls-29" x="315" y="440.47" width="37.49" height="12.68"/><rect class="cls-29" x="275.93" y="440.47" width="37.49" height="12.68"/><rect class="cls-29" x="236.86" y="440.47" width="37.49" height="12.68"/><rect class="cls-29" x="197.79" y="440.47" width="37.49" height="12.68"/><rect class="cls-29" x="158.72" y="440.47" width="37.49" height="12.68"/><rect class="cls-29" x="119.65" y="440.47" width="37.49" height="12.68"/><rect class="cls-29" x="84.01" y="440.47" width="34.05" height="12.68"/><rect class="cls-29" x="334.54" y="454.82" width="17.99" height="12.68"/><rect class="cls-29" x="295.47" y="454.82" width="37.49" height="12.68"/><rect class="cls-29" x="256.39" y="454.82" width="37.49" height="12.68"/><rect class="cls-29" x="217.32" y="454.82" width="37.49" height="12.68"/><rect class="cls-29" x="178.25" y="454.82" width="37.49" height="12.68"/><rect class="cls-29" x="139.18" y="454.82" width="37.49" height="12.68"/><rect class="cls-29" x="100.11" y="454.82" width="37.49" height="12.68"/><rect class="cls-29" x="84.01" y="454.82" width="14.52" height="12.68"/><rect class="cls-29" x="315" y="469.18" width="37.49" height="12.68"/><rect class="cls-29" x="275.93" y="469.18" width="37.49" height="12.68"/><rect class="cls-29" x="236.86" y="469.18" width="37.49" height="12.68"/><rect class="cls-29" x="197.79" y="469.18" width="37.49" height="12.68"/><rect class="cls-29" x="158.72" y="469.18" width="37.49" height="12.68"/><rect class="cls-29" x="119.65" y="469.18" width="37.49" height="12.68"/><rect class="cls-29" x="84.01" y="469.18" width="34.05" height="12.68"/><rect class="cls-29" x="334.54" y="483.53" width="17.99" height="12.68"/><rect class="cls-29" x="295.47" y="483.53" width="37.49" height="12.68"/><rect class="cls-29" x="256.39" y="483.53" width="37.49" height="12.68"/><rect class="cls-29" x="217.32" y="483.53" width="37.49" height="12.68"/><rect class="cls-29" x="178.25" y="483.53" width="37.49" height="12.68"/><rect class="cls-29" x="139.18" y="483.53" width="37.49" height="12.68"/><rect class="cls-29" x="100.11" y="483.53" width="37.49" height="12.68"/><rect class="cls-29" x="84.01" y="483.53" width="14.52" height="12.68"/><rect class="cls-29" x="315" y="497.89" width="37.49" height="12.68"/><rect class="cls-29" x="275.93" y="497.89" width="37.49" height="12.68"/><rect class="cls-29" x="236.86" y="497.89" width="37.49" height="12.68"/><rect class="cls-29" x="197.79" y="497.89" width="37.49" height="12.68"/><rect class="cls-29" x="158.72" y="497.89" width="37.49" height="12.68"/><rect class="cls-29" x="119.65" y="497.89" width="37.49" height="12.68"/><rect class="cls-29" x="84.01" y="497.89" width="34.05" height="12.68"/><rect class="cls-29" x="334.54" y="512.25" width="17.99" height="12.68"/><rect class="cls-29" x="295.47" y="512.25" width="37.49" height="12.68"/><rect class="cls-29" x="256.39" y="512.25" width="37.49" height="12.68"/><rect class="cls-29" x="217.32" y="512.25" width="37.49" height="12.68"/><rect class="cls-29" x="178.25" y="512.25" width="37.49" height="12.68"/><rect class="cls-29" x="139.18" y="512.25" width="37.49" height="12.68"/><rect class="cls-29" x="100.11" y="512.25" width="37.49" height="12.68"/><rect class="cls-29" x="84.01" y="512.25" width="14.52" height="12.68"/><rect class="cls-29" x="315" y="526.6" width="37.49" height="12.68"/><rect class="cls-29" x="275.93" y="526.6" width="37.49" height="12.68"/><rect class="cls-29" x="236.86" y="526.6" width="37.49" height="12.68"/><rect class="cls-29" x="197.79" y="526.6" width="37.49" height="12.68"/><rect class="cls-29" x="158.72" y="526.6" width="37.49" height="12.68"/><rect class="cls-29" x="119.65" y="526.6" width="37.49" height="12.68"/><rect class="cls-29" x="84.01" y="526.6" width="34.05" height="12.68"/><rect class="cls-29" x="334.54" y="540.96" width="17.99" height="12.68"/><rect class="cls-29" x="295.47" y="540.96" width="37.49" height="12.68"/><rect class="cls-29" x="256.39" y="540.96" width="37.49" height="12.68"/><rect class="cls-29" x="217.32" y="540.96" width="37.49" height="12.68"/><rect class="cls-29" x="178.25" y="540.96" width="37.49" height="12.68"/><rect class="cls-29" x="139.18" y="540.96" width="37.49" height="12.68"/><rect class="cls-29" x="100.11" y="540.96" width="37.49" height="12.68"/><rect class="cls-29" x="84.01" y="540.96" width="14.52" height="12.68"/><rect class="cls-29" x="315" y="555.32" width="37.49" height="12.68"/><rect class="cls-29" x="275.93" y="555.32" width="37.49" height="12.68"/><rect class="cls-29" x="236.86" y="555.32" width="37.49" height="12.68"/><rect class="cls-29" x="197.79" y="555.32" width="37.49" height="12.68"/><rect class="cls-29" x="158.72" y="555.32" width="37.49" height="12.68"/><rect class="cls-29" x="119.65" y="555.32" width="37.49" height="12.68"/><rect class="cls-29" x="84.01" y="555.32" width="34.05" height="12.68"/><rect class="cls-29" x="334.54" y="569.67" width="17.99" height="12.68"/><rect class="cls-29" x="295.47" y="569.67" width="37.49" height="12.68"/><rect class="cls-29" x="256.39" y="569.67" width="37.49" height="12.68"/><rect class="cls-29" x="217.32" y="569.67" width="37.49" height="12.68"/><rect class="cls-29" x="178.25" y="569.67" width="37.49" height="12.68"/><rect class="cls-29" x="139.18" y="569.67" width="37.49" height="12.68"/><rect class="cls-29" x="100.11" y="569.67" width="37.49" height="12.68"/><rect class="cls-29" x="84.01" y="569.67" width="14.52" height="12.68"/><rect class="cls-29" x="315" y="584.03" width="37.49" height="12.68"/><rect class="cls-29" x="275.93" y="584.03" width="37.49" height="12.68"/><rect class="cls-29" x="236.86" y="584.03" width="37.49" height="12.68"/><rect class="cls-29" x="197.79" y="584.03" width="37.49" height="12.68"/><rect class="cls-29" x="158.72" y="584.03" width="37.49" height="12.68"/><rect class="cls-29" x="119.65" y="584.03" width="37.49" height="12.68"/><rect class="cls-29" x="84.01" y="584.03" width="34.05" height="12.68"/><rect class="cls-29" x="334.54" y="598.38" width="17.99" height="12.68"/><rect class="cls-29" x="295.47" y="598.38" width="37.49" height="12.68"/><rect class="cls-29" x="256.39" y="598.38" width="37.49" height="12.68"/><rect class="cls-29" x="217.32" y="598.38" width="37.49" height="12.68"/><rect class="cls-29" x="178.25" y="598.38" width="37.49" height="12.68"/><rect class="cls-29" x="139.18" y="598.38" width="37.49" height="12.68"/><rect class="cls-29" x="100.11" y="598.38" width="37.49" height="12.68"/><rect class="cls-29" x="84.01" y="598.38" width="14.52" height="12.68"/><rect class="cls-29" x="315" y="612.74" width="37.49" height="12.68"/><rect class="cls-29" x="275.93" y="612.74" width="37.49" height="12.68"/><rect class="cls-29" x="236.86" y="612.74" width="37.49" height="12.68"/><rect class="cls-29" x="197.79" y="612.74" width="37.49" height="12.68"/><rect class="cls-29" x="158.72" y="612.74" width="37.49" height="12.68"/><rect class="cls-29" x="119.65" y="612.74" width="37.49" height="12.68"/><rect class="cls-29" x="84.01" y="612.74" width="34.05" height="12.68"/><rect class="cls-29" x="334.54" y="627.1" width="17.99" height="12.68"/><rect class="cls-29" x="295.47" y="627.1" width="37.49" height="12.68"/><rect class="cls-29" x="256.39" y="627.1" width="37.49" height="12.68"/><rect class="cls-29" x="217.32" y="627.1" width="37.49" height="12.68"/><rect class="cls-29" x="178.25" y="627.1" width="37.49" height="12.68"/><rect class="cls-29" x="139.18" y="627.1" width="37.49" height="12.68"/><rect class="cls-29" x="100.11" y="627.1" width="37.49" height="12.68"/><rect class="cls-29" x="84.01" y="627.1" width="14.52" height="12.68"/><rect class="cls-29" x="315" y="641.45" width="37.49" height="12.68"/><rect class="cls-29" x="275.93" y="641.45" width="37.49" height="12.68"/><rect class="cls-29" x="236.86" y="641.45" width="37.49" height="12.68"/><rect class="cls-29" x="197.79" y="641.45" width="37.49" height="12.68"/><rect class="cls-29" x="158.72" y="641.45" width="37.49" height="12.68"/><rect class="cls-29" x="119.65" y="641.45" width="37.49" height="12.68"/><rect class="cls-29" x="84.01" y="641.45" width="34.05" height="12.68"/><rect class="cls-29" x="334.54" y="655.81" width="17.99" height="12.68"/><rect class="cls-29" x="295.47" y="655.81" width="37.49" height="12.68"/><rect class="cls-29" x="256.39" y="655.81" width="37.49" height="12.68"/><rect class="cls-29" x="217.32" y="655.81" width="37.49" height="12.68"/><rect class="cls-29" x="178.25" y="655.81" width="37.49" height="12.68"/><rect class="cls-29" x="139.18" y="655.81" width="37.49" height="12.68"/><rect class="cls-29" x="100.11" y="655.81" width="37.49" height="12.68"/><rect class="cls-29" x="84.01" y="655.81" width="14.52" height="12.68"/><rect class="cls-29" x="315" y="670.16" width="37.49" height="12.68"/><rect class="cls-29" x="275.93" y="670.16" width="37.49" height="12.68"/><rect class="cls-29" x="236.86" y="670.16" width="37.49" height="12.68"/><rect class="cls-29" x="197.79" y="670.16" width="37.49" height="12.68"/><rect class="cls-29" x="158.72" y="670.16" width="37.49" height="12.68"/><rect class="cls-29" x="119.65" y="670.16" width="37.49" height="12.68"/><rect class="cls-29" x="84.01" y="670.16" width="34.05" height="12.68"/></g><g class="cls-28"><rect class="cls-29" x="334.54" y="684.03" width="17.99" height="12.68"/><rect class="cls-29" x="295.47" y="684.03" width="37.49" height="12.68"/><rect class="cls-29" x="256.39" y="684.03" width="37.49" height="12.68"/><rect class="cls-29" x="217.32" y="684.03" width="37.49" height="12.68"/><rect class="cls-29" x="178.25" y="684.03" width="37.49" height="12.68"/><rect class="cls-29" x="139.18" y="684.03" width="37.49" height="12.68"/><rect class="cls-29" x="100.11" y="684.03" width="37.49" height="12.68"/><rect class="cls-29" x="84.01" y="684.03" width="14.52" height="12.68"/><rect class="cls-29" x="315" y="698.38" width="37.49" height="12.68"/><rect class="cls-29" x="275.93" y="698.38" width="37.49" height="12.68"/><rect class="cls-29" x="236.86" y="698.38" width="37.49" height="12.68"/><rect class="cls-29" x="197.79" y="698.38" width="37.49" height="12.68"/><rect class="cls-29" x="158.72" y="698.38" width="37.49" height="12.68"/><rect class="cls-29" x="119.65" y="698.38" width="37.49" height="12.68"/><rect class="cls-29" x="84.01" y="698.38" width="34.05" height="12.68"/><rect class="cls-29" x="334.54" y="712.74" width="17.99" height="12.68"/><rect class="cls-29" x="295.47" y="712.74" width="37.49" height="12.68"/><rect class="cls-29" x="256.39" y="712.74" width="37.49" height="12.68"/><rect class="cls-29" x="217.32" y="712.74" width="37.49" height="12.68"/><rect class="cls-29" x="178.25" y="712.74" width="37.49" height="12.68"/><rect class="cls-29" x="139.18" y="712.74" width="37.49" height="12.68"/><rect class="cls-29" x="100.11" y="712.74" width="37.49" height="12.68"/><rect class="cls-29" x="84.01" y="712.74" width="14.52" height="12.68"/><rect class="cls-29" x="315" y="727.1" width="37.49" height="12.68"/><rect class="cls-29" x="275.93" y="727.1" width="37.49" height="12.68"/><rect class="cls-29" x="236.86" y="727.1" width="37.49" height="12.68"/><rect class="cls-29" x="197.79" y="727.1" width="37.49" height="12.68"/><rect class="cls-29" x="158.72" y="727.1" width="37.49" height="12.68"/><rect class="cls-29" x="119.65" y="727.1" width="37.49" height="12.68"/><rect class="cls-29" x="84.01" y="727.1" width="34.05" height="12.68"/><rect class="cls-29" x="334.54" y="741.45" width="17.99" height="12.68"/><rect class="cls-29" x="295.47" y="741.45" width="37.49" height="12.68"/><rect class="cls-29" x="256.39" y="741.45" width="37.49" height="12.68"/><rect class="cls-29" x="217.32" y="741.45" width="37.49" height="12.68"/><rect class="cls-29" x="178.25" y="741.45" width="37.49" height="12.68"/><rect class="cls-29" x="139.18" y="741.45" width="37.49" height="12.68"/><rect class="cls-29" x="100.11" y="741.45" width="37.49" height="12.68"/><rect class="cls-29" x="84.01" y="741.45" width="14.52" height="12.68"/><rect class="cls-29" x="315" y="755.81" width="37.49" height="12.68"/><rect class="cls-29" x="275.93" y="755.81" width="37.49" height="12.68"/><rect class="cls-29" x="236.86" y="755.81" width="37.49" height="12.68"/><rect class="cls-29" x="197.79" y="755.81" width="37.49" height="12.68"/><rect class="cls-29" x="158.72" y="755.81" width="37.49" height="12.68"/><rect class="cls-29" x="119.65" y="755.81" width="37.49" height="12.68"/><rect class="cls-29" x="84.01" y="755.81" width="34.05" height="12.68"/><rect class="cls-29" x="334.54" y="770.16" width="17.99" height="12.68"/><rect class="cls-29" x="295.47" y="770.16" width="37.49" height="12.68"/><rect class="cls-29" x="256.39" y="770.16" width="37.49" height="12.68"/><rect class="cls-29" x="217.32" y="770.16" width="37.49" height="12.68"/><rect class="cls-29" x="178.25" y="770.16" width="37.49" height="12.68"/><rect class="cls-29" x="139.18" y="770.16" width="37.49" height="12.68"/><rect class="cls-29" x="100.11" y="770.16" width="37.49" height="12.68"/><rect class="cls-29" x="84.01" y="770.16" width="14.52" height="12.68"/><rect class="cls-29" x="315" y="784.52" width="37.49" height="12.68"/><rect class="cls-29" x="275.93" y="784.52" width="37.49" height="12.68"/><rect class="cls-29" x="236.86" y="784.52" width="37.49" height="12.68"/><rect class="cls-29" x="197.79" y="784.52" width="37.49" height="12.68"/><rect class="cls-29" x="158.72" y="784.52" width="37.49" height="12.68"/><rect class="cls-29" x="119.65" y="784.52" width="37.49" height="12.68"/><rect class="cls-29" x="84.01" y="784.52" width="34.05" height="12.68"/><rect class="cls-29" x="334.54" y="798.88" width="17.99" height="12.68"/><rect class="cls-29" x="295.47" y="798.88" width="37.49" height="12.68"/><rect class="cls-29" x="256.39" y="798.88" width="37.49" height="12.68"/><rect class="cls-29" x="217.32" y="798.88" width="37.49" height="12.68"/><rect class="cls-29" x="178.25" y="798.88" width="37.49" height="12.68"/><rect class="cls-29" x="139.18" y="798.88" width="37.49" height="12.68"/><rect class="cls-29" x="100.11" y="798.88" width="37.49" height="12.68"/><rect class="cls-29" x="84.01" y="798.88" width="14.52" height="12.68"/><rect class="cls-29" x="315" y="813.23" width="37.49" height="12.68"/><rect class="cls-29" x="275.93" y="813.23" width="37.49" height="12.68"/><rect class="cls-29" x="236.86" y="813.23" width="37.49" height="12.68"/><rect class="cls-29" x="197.79" y="813.23" width="37.49" height="12.68"/><rect class="cls-29" x="158.72" y="813.23" width="37.49" height="12.68"/><rect class="cls-29" x="119.65" y="813.23" width="37.49" height="12.68"/><rect class="cls-29" x="84.01" y="813.23" width="34.05" height="12.68"/><rect class="cls-29" x="334.54" y="827.59" width="17.99" height="12.68"/><rect class="cls-29" x="295.47" y="827.59" width="37.49" height="12.68"/><rect class="cls-29" x="256.39" y="827.59" width="37.49" height="12.68"/><rect class="cls-29" x="217.32" y="827.59" width="37.49" height="12.68"/><rect class="cls-29" x="178.25" y="827.59" width="37.49" height="12.68"/><rect class="cls-29" x="139.18" y="827.59" width="37.49" height="12.68"/><rect class="cls-29" x="100.11" y="827.59" width="37.49" height="12.68"/><rect class="cls-29" x="84.01" y="827.59" width="14.52" height="12.68"/><rect class="cls-29" x="315" y="841.95" width="37.49" height="12.68"/><rect class="cls-29" x="275.93" y="841.95" width="37.49" height="12.68"/><rect class="cls-29" x="236.86" y="841.95" width="37.49" height="12.68"/><rect class="cls-29" x="197.79" y="841.95" width="37.49" height="12.68"/><rect class="cls-29" x="158.72" y="841.95" width="37.49" height="12.68"/><rect class="cls-29" x="119.65" y="841.95" width="37.49" height="12.68"/><rect class="cls-29" x="84.01" y="841.95" width="34.05" height="12.68"/><rect class="cls-29" x="334.54" y="856.3" width="17.99" height="12.68"/><rect class="cls-29" x="295.47" y="856.3" width="37.49" height="12.68"/><rect class="cls-29" x="256.39" y="856.3" width="37.49" height="12.68"/><rect class="cls-29" x="217.32" y="856.3" width="37.49" height="12.68"/><rect class="cls-29" x="178.25" y="856.3" width="37.49" height="12.68"/><rect class="cls-29" x="139.18" y="856.3" width="37.49" height="12.68"/><rect class="cls-29" x="100.11" y="856.3" width="37.49" height="12.68"/><rect class="cls-29" x="84.01" y="856.3" width="14.52" height="12.68"/><rect class="cls-29" x="315" y="870.66" width="37.49" height="12.68"/><rect class="cls-29" x="275.93" y="870.66" width="37.49" height="12.68"/><rect class="cls-29" x="236.86" y="870.66" width="37.49" height="12.68"/><rect class="cls-29" x="197.79" y="870.66" width="37.49" height="12.68"/><rect class="cls-29" x="158.72" y="870.66" width="37.49" height="12.68"/><rect class="cls-29" x="119.65" y="870.66" width="37.49" height="12.68"/><rect class="cls-29" x="84.01" y="870.66" width="34.05" height="12.68"/><rect class="cls-29" x="334.54" y="885.01" width="17.99" height="12.68"/><rect class="cls-29" x="295.47" y="885.01" width="37.49" height="12.68"/><rect class="cls-29" x="256.39" y="885.01" width="37.49" height="12.68"/><rect class="cls-29" x="217.32" y="885.01" width="37.49" height="12.68"/><rect class="cls-29" x="178.25" y="885.01" width="37.49" height="12.68"/><rect class="cls-29" x="139.18" y="885.01" width="37.49" height="12.68"/><rect class="cls-29" x="100.11" y="885.01" width="37.49" height="12.68"/><rect class="cls-29" x="84.01" y="885.01" width="14.52" height="12.68"/></g><rect class="cls-30" x="98.48" y="426.95" width="22.77" height="41.61"/><rect class="cls-30" x="127.53" y="426.95" width="22.77" height="41.61"/><rect class="cls-30" x="156.58" y="426.95" width="22.77" height="41.61"/><rect class="cls-30" x="185.63" y="426.95" width="22.77" height="41.61"/><rect class="cls-30" x="232.63" y="426.95" width="22.77" height="41.61"/><rect class="cls-30" x="261.68" y="426.95" width="22.77" height="41.61"/><rect class="cls-30" x="290.73" y="426.95" width="22.77" height="41.61"/><rect class="cls-30" x="319.78" y="426.95" width="22.77" height="41.61"/><rect class="cls-29" x="98.48" y="446.77" width="22.77" height="2.98"/><rect class="cls-29" x="127.53" y="446.77" width="22.77" height="2.98"/><rect class="cls-29" x="156.58" y="446.77" width="22.77" height="2.98"/><rect class="cls-29" x="185.63" y="446.77" width="22.77" height="2.98"/><rect class="cls-29" x="232.63" y="446.77" width="22.77" height="2.98"/><rect class="cls-29" x="261.68" y="446.77" width="22.77" height="2.98"/><rect class="cls-29" x="290.73" y="446.77" width="22.77" height="2.98"/><rect class="cls-29" x="319.78" y="446.77" width="22.77" height="2.98"/><rect class="cls-30" x="98.48" y="491.96" width="22.77" height="41.61"/><rect class="cls-30" x="127.53" y="491.96" width="22.77" height="41.61"/><rect class="cls-30" x="156.58" y="491.96" width="22.77" height="41.61"/><rect class="cls-30" x="185.63" y="491.96" width="22.77" height="41.61"/><rect class="cls-30" x="232.63" y="491.96" width="22.77" height="41.61"/><rect class="cls-30" x="261.68" y="491.96" width="22.77" height="41.61"/><rect class="cls-30" x="290.73" y="491.96" width="22.77" height="41.61"/><rect class="cls-30" x="319.78" y="491.96" width="22.77" height="41.61"/><rect class="cls-30" x="98.48" y="556.97" width="22.77" height="41.61"/><rect class="cls-30" x="127.53" y="556.97" width="22.77" height="41.61"/><rect class="cls-30" x="156.58" y="556.97" width="22.77" height="41.61"/><rect class="cls-30" x="185.63" y="556.97" width="22.77" height="41.61"/><rect class="cls-30" x="232.63" y="556.97" width="22.77" height="41.61"/><rect class="cls-30" x="261.68" y="556.97" width="22.77" height="41.61"/><rect class="cls-30" x="290.73" y="556.97" width="22.77" height="41.61"/><rect class="cls-30" x="319.78" y="556.97" width="22.77" height="41.61"/><rect class="cls-30" x="98.48" y="621.98" width="22.77" height="41.61"/><rect class="cls-30" x="127.53" y="621.98" width="22.77" height="41.61"/><rect class="cls-30" x="156.58" y="621.98" width="22.77" height="41.61"/><rect class="cls-30" x="185.63" y="621.98" width="22.77" height="41.61"/><rect class="cls-30" x="232.63" y="621.98" width="22.77" height="41.61"/><rect class="cls-30" x="261.68" y="621.98" width="22.77" height="41.61"/><rect class="cls-30" x="290.73" y="621.98" width="22.77" height="41.61"/><rect class="cls-30" x="319.78" y="621.98" width="22.77" height="41.61"/><rect class="cls-30" x="98.48" y="686.99" width="22.77" height="41.61"/><rect class="cls-30" x="127.53" y="686.99" width="22.77" height="41.61"/><rect class="cls-30" x="156.58" y="686.99" width="22.77" height="41.61"/><rect class="cls-30" x="185.63" y="686.99" width="22.77" height="41.61"/><rect class="cls-30" x="232.63" y="686.99" width="22.77" height="41.61"/><rect class="cls-30" x="261.68" y="686.99" width="22.77" height="41.61"/><rect class="cls-30" x="290.73" y="686.99" width="22.77" height="41.61"/><rect class="cls-30" x="319.78" y="686.99" width="22.77" height="41.61"/><rect class="cls-29" x="98.48" y="806.66" width="22.77" height="91.9"/><rect class="cls-29" x="185.63" y="806.66" width="22.77" height="91.9"/><rect class="cls-31" x="127.53" y="806.66" width="51.69" height="91.9"/><rect class="cls-29" x="233.21" y="806.66" width="22.77" height="91.9"/><rect class="cls-30" x="320.36" y="806.66" width="22.77" height="91.9"/><rect class="cls-30" x="98.48" y="806.66" width="22.77" height="91.9"/><rect class="cls-30" x="185.63" y="806.66" width="22.77" height="91.9"/><rect class="cls-30" x="233.21" y="806.66" width="22.77" height="91.9"/><rect class="cls-31" x="262.26" y="806.66" width="51.69" height="91.9"/><rect class="cls-31" x="80.47" y="737.87" width="276.66" height="15.06"/><rect class="cls-29" x="98.48" y="511.3" width="22.77" height="2.98"/><rect class="cls-29" x="127.53" y="511.3" width="22.77" height="2.98"/><rect class="cls-29" x="156.58" y="511.3" width="22.77" height="2.98"/><rect class="cls-29" x="185.63" y="511.3" width="22.77" height="2.98"/><rect class="cls-29" x="232.63" y="511.3" width="22.77" height="2.98"/><rect class="cls-29" x="261.68" y="511.3" width="22.77" height="2.98"/><rect class="cls-29" x="290.73" y="511.3" width="22.77" height="2.98"/><rect class="cls-29" x="319.78" y="511.3" width="22.77" height="2.98"/><rect class="cls-29" x="98.48" y="640.35" width="22.77" height="2.98"/><rect class="cls-29" x="127.53" y="640.35" width="22.77" height="2.98"/><rect class="cls-29" x="156.58" y="640.35" width="22.77" height="2.98"/><rect class="cls-29" x="185.63" y="640.35" width="22.77" height="2.98"/><rect class="cls-29" x="232.63" y="640.35" width="22.77" height="2.98"/><rect class="cls-29" x="261.68" y="640.35" width="22.77" height="2.98"/><rect class="cls-29" x="290.73" y="640.35" width="22.77" height="2.98"/><rect class="cls-29" x="319.78" y="640.35" width="22.77" height="2.98"/><rect class="cls-29" x="98.48" y="706.59" width="22.77" height="2.98"/><rect class="cls-29" x="127.53" y="706.59" width="22.77" height="2.98"/><rect class="cls-29" x="156.58" y="706.59" width="22.77" height="2.98"/><rect class="cls-29" x="185.63" y="706.59" width="22.77" height="2.98"/><rect class="cls-29" x="232.63" y="706.59" width="22.77" height="2.98"/><rect class="cls-29" x="261.68" y="706.59" width="22.77" height="2.98"/><rect class="cls-29" x="290.73" y="706.59" width="22.77" height="2.98"/><rect class="cls-29" x="319.78" y="706.59" width="22.77" height="2.98"/><rect class="cls-30" x="98.48" y="763.3" width="22.77" height="34.75"/><rect class="cls-30" x="185.63" y="763.3" width="22.77" height="34.75"/><rect class="cls-30" x="127.53" y="763.3" width="51.69" height="34.75"/><rect class="cls-30" x="232.72" y="763.3" width="22.77" height="34.75"/><rect class="cls-30" x="319.87" y="763.3" width="22.77" height="34.75"/><rect class="cls-30" x="261.77" y="763.3" width="51.69" height="34.75"/><rect class="cls-29" x="98.48" y="778.58" width="22.77" height="2.98"/><rect class="cls-29" x="127.53" y="778.58" width="51.84" height="2.98"/><rect class="cls-29" x="185.63" y="778.58" width="22.77" height="2.98"/><rect class="cls-29" x="232.63" y="778.58" width="22.77" height="2.98"/><rect class="cls-29" x="261.68" y="778.58" width="51.84" height="2.98"/><rect class="cls-29" x="319.78" y="778.58" width="22.77" height="2.98"/><rect class="cls-29" x="132.43" y="812.04" width="41.68" height="86.22"/><rect class="cls-29" x="267.48" y="812.04" width="41.68" height="86.22"/><rect class="cls-30" x="137.49" y="818.7" width="31.57" height="35.62"/><rect class="cls-30" x="272.6" y="818.7" width="31.57" height="35.62"/><rect class="cls-30" x="137.49" y="859.24" width="31.57" height="39.05"/><rect class="cls-30" x="272.6" y="859.24" width="31.57" height="39.05"/><rect class="cls-29" x="162.81" y="847.45" width="10.98" height="18.13"/><rect class="cls-29" x="268.07" y="847.45" width="10.98" height="18.13"/><rect class="cls-31" x="80.47" y="387.21" width="276.66" height="28.27"/><g class="cls-32"><rect class="cls-33" x="80.31" y="739.45" width="276.95" height="0.86"/><rect class="cls-33" x="80.31" y="741.65" width="276.95" height="0.86"/><rect class="cls-33" x="80.31" y="743.86" width="276.95" height="0.86"/><rect class="cls-33" x="80.31" y="746.07" width="276.95" height="0.86"/><rect class="cls-33" x="80.31" y="748.28" width="276.95" height="0.86"/><rect class="cls-33" x="80.31" y="750.49" width="276.95" height="0.86"/></g><g class="cls-32"><rect class="cls-33" x="80.45" y="388.47" width="276.64" height="0.86"/><rect class="cls-33" x="80.45" y="390.68" width="276.64" height="0.86"/><rect class="cls-33" x="80.45" y="392.89" width="276.64" height="0.86"/><rect class="cls-33" x="80.45" y="395.09" width="276.64" height="0.86"/><rect class="cls-33" x="80.45" y="397.3" width="276.64" height="0.86"/><rect class="cls-33" x="80.45" y="399.51" width="276.64" height="0.86"/></g><g class="cls-32"><rect class="cls-33" x="80.45" y="401.52" width="276.64" height="0.86"/><rect class="cls-33" x="80.45" y="403.73" width="276.64" height="0.86"/><rect class="cls-33" x="80.45" y="405.94" width="276.64" height="0.86"/><rect class="cls-33" x="80.45" y="408.15" width="276.64" height="0.86"/><rect class="cls-33" x="80.45" y="410.36" width="276.64" height="0.86"/><rect class="cls-33" x="80.45" y="412.57" width="276.64" height="0.86"/></g><path class="cls-34" d="M117.69,585.86l-0.07-.15L117.4,585c0.1,0.29.2,0.58,0.3,0.87h0Z"/><rect class="cls-29" x="98.48" y="575.82" width="22.77" height="2.98"/><rect class="cls-29" x="127.53" y="575.82" width="22.77" height="2.98"/><rect class="cls-29" x="156.58" y="575.82" width="22.77" height="2.98"/><rect class="cls-29" x="185.63" y="575.82" width="22.77" height="2.98"/><rect class="cls-29" x="232.63" y="575.82" width="22.77" height="2.98"/><rect class="cls-29" x="261.68" y="575.82" width="22.77" height="2.98"/><rect class="cls-29" x="290.73" y="575.82" width="22.77" height="2.98"/><rect class="cls-29" x="319.78" y="575.82" width="22.77" height="2.98"/><path class="cls-35" d="M809.84,896.73a14,14,0,1,1,14-14A14.06,14.06,0,0,1,809.84,896.73Zm0-25a10.92,10.92,0,1,0,10.92,10.92A10.93,10.93,0,0,0,809.84,871.77Z"/><path class="cls-3" d="M786.65,876.49l-1.34-1.74,2.94-14.28a3.62,3.62,0,0,0-1-3,4.64,4.64,0,0,0-3.3-1.34l-15.25,2.21,0.74,6.16,12.79-1.72-2.07,14.86Z"/><path class="cls-35" d="M755.77,896.73a14,14,0,1,1,14-14A14.06,14.06,0,0,1,755.77,896.73Zm0-25a10.92,10.92,0,1,0,10.92,10.92A10.93,10.93,0,0,0,755.77,871.77Z"/><path class="cls-35" d="M809.84,879.57a3.11,3.11,0,0,0-.51.05L805,874.37l-9.94-17.56a1.55,1.55,0,0,0-.1-0.44,2.08,2.08,0,0,1,0-1.49,4.94,4.94,0,0,0,.36-4.7,3.17,3.17,0,0,0-2.93-1.57c-2.51,0-7.34,1.94-7.89,2.16a1.56,1.56,0,1,0,1.18,2.89c1.83-.75,5.27-1.93,6.71-1.93h0.23a2.28,2.28,0,0,1-.35,1.55,4.94,4.94,0,0,0-.31,4,1.54,1.54,0,0,0,.2.78l3.7,6.53-24.34,4.25-1.35-2.59a1.56,1.56,0,0,0-2.77,1.44l1,1.93-0.11.08-10.52,10.66a3.11,3.11,0,1,0-2,5.49l0.18,0,0.12,0h25c5.18,0,6.47-1.87,7.43-4.16,0.6-1,5.11-8,9.39-13.55l4.49,7.94a1.58,1.58,0,0,0,.15.22l4.42,5.36A3.11,3.11,0,1,0,809.84,879.57Zm-39.94-7.11,5.33,10.23H759.81Zm15.85,7.63a1.56,1.56,0,0,0-.12.23c-0.65,1.57-1,2.36-4.6,2.36H778.6a1.55,1.55,0,0,0-.17-0.63L773,871.7,794,868C789.81,873.64,785.95,879.78,785.75,880.09Z"/><circle class="cls-36" cx="785.2" cy="882.59" r="4.23"/><path class="cls-36" d="M786.49,891.73a1.56,1.56,0,0,1-.3-3.09l3.8-.76a1.56,1.56,0,0,1,.61,3.06l-3.8.76A1.56,1.56,0,0,1,786.49,891.73Z"/><path class="cls-35" d="M761.66,865.87a1.74,1.74,0,0,0,1.58,2.26h2.08a5.06,5.06,0,0,0,2.6-.52,5.06,5.06,0,0,1,2.6-.52h4.16a1.62,1.62,0,1,0,0-3.12h-10.4a2.7,2.7,0,0,0-2.58,1.9h0Z"/><path class="cls-35" d="M800.87,862.06c0.48-1.41,2-2.5,5.28-1.66a5.39,5.39,0,0,1-1.91,5.86C803.63,866.23,800.1,864.35,800.87,862.06Z"/><path class="cls-30" d="M772.28,839.14s5.26,2.22,4.45,10.46a94.56,94.56,0,0,1-1.9,12.59l-9.35-.86S763,850,767.58,840.53C768,839.64,769.65,838.43,772.28,839.14Z"/><path class="cls-37" d="M786.58,853.26a1.7,1.7,0,0,0,1.28-1.58c0-.94-0.53-2.17-1.63-1.76l-10.11,1.23-3.24-9c-0.41-.84-1.91-2.62-3.85-1.8-2.24.94-1.8,3.41-1.38,4.26l5.56,9.83a3.43,3.43,0,0,0,3.42.86Z"/><path class="cls-38" d="M768.79,832.37c0.33,3.72,4.23,6.24,7.71,6.84,3.92,0.67,4.79-4.19,4.46-7.9a6.31,6.31,0,0,0-6.8-6C770.67,825.63,768.46,828.66,768.79,832.37Z"/><path class="cls-30" d="M781.57,825.18s-0.25,3-2.17,3.6a5.08,5.08,0,0,1-2.67.37s-1.73-.14-2.26,2.33c-1.31-.33-1.75-0.16-1.91.74-0.41,2.35.52,2.7,0.52,2.7l-1.82,1.88s-2.62-2.08-2.72-4.78c-0.13-3.36,1.78-6.43,4.22-6.93S779.8,826.17,781.57,825.18Z"/><path class="cls-2" d="M784.1,887.72L781,872.65s-13.14-4.93-15-8.86c-2.29-4.74,2.33-4.87,4.15-4.86,3.95,0,14.56,9.1,14.56,9.1a3.64,3.64,0,0,1,1.51,1.73l1.94,14.56,2.25,1.26,0.17,1Z"/><path class="cls-2" d="M764.33,840.33c-0.1.73-.33,2.25-0.49,3.38l-1.66,11.24a2.25,2.25,0,0,1-2.38,1.88l-4.76-.41a1.84,1.84,0,0,1-1.68-2.22l1.69-8.9a2.36,2.36,0,0,1,2.28-1.95,2.36,2.36,0,0,0,2.28-1.95l0.18-.93a2.24,2.24,0,0,1,2.45-1.77l0.23,0C763.59,838.88,764.44,839.6,764.33,840.33Z"/><path class="cls-38" d="M786.13,849.86l-1.66.27,0.34,3.49,1.76-.36a1.7,1.7,0,0,0,1.28-1.58C787.9,850.74,787.52,849.54,786.13,849.86Z"/><path class="cls-39" d="M551.18,893.92l-5.85-23c0.45,0.86-4.17-13.33-3.09-17.23,0.48-1.75,2.6-4.48,4-3.36,3.25,2.53,4.28,17.58,4.28,17.58,0.12,0.28.32,2,.36,2.34l3.61,26.93Z"/><path class="cls-38" d="M532.6,892.89l3.25-23.71s0.65-4.48.93-12.1c0.1-2.6-3.71-4.38-1-7.53,2.83-3.3,8.9-1.1,9.56.59,1.67,4.25-4.19,20.24-4.19,20.24a3.61,3.61,0,0,1-.45,1l-5.94,25.72Z"/><path class="cls-30" d="M541.75,813.91c5.13,0,9.69,9.33,9.64,11.23-0.07,2.32-2.35,6.48-2.49,10.52-0.23,6.68.51,10.82-.77,15.06-1.22,3.64-2.82,3.21-4.4,3.29-6.26.32-9.46-6.63-5.74-11.56,4.48-5.93,1.94-10.36.84-15.25S538.43,813.94,541.75,813.91Z"/><path class="cls-3" d="M537.66,842.61a10.24,10.24,0,0,0-3,6.55,43.28,43.28,0,0,0,.22,9.67c1.62,0.2,8.44,1.61,10.47.8s5.09,0,5.8.3c-0.1-1.72-.28-13.36-2.46-17.47C546.7,842,537.66,842.61,537.66,842.61Z"/><path class="cls-40" d="M544,849.83h-0.08a0.52,0.52,0,0,1-.44-0.59c0-.12,1.76-11.68,1.76-14.09a0.52,0.52,0,1,1,1,0c0,2.49-1.7,13.76-1.78,14.24A0.52,0.52,0,0,1,544,849.83Z"/><polygon class="cls-41" points="542.2 867.65 521.16 856.51 529.89 840.41 550.65 851.67 542.2 867.65"/><polygon class="cls-40" points="551.45 871.23 528.39 865.32 533.79 847.67 555.92 853.71 551.45 871.23"/><path class="cls-36" d="M548,852.49h0a0.52,0.52,0,0,1-.5-0.54c0.18-4.84.42-14.43,0-16.15a0.52,0.52,0,1,1,1-.24c0.54,2.28,0,15.85,0,16.42A0.52,0.52,0,0,1,548,852.49Z"/><polygon class="cls-6" points="566.86 867.72 541.75 871.77 539.51 852.19 563.76 848.65 566.86 867.72"/><path class="cls-40" d="M556.85,853.18a0.52,0.52,0,0,1-.5-0.37c-2.32-7.83-5.28-16.26-6.27-17a0.52,0.52,0,0,1,0-1c1.29-.1,3.72,5.86,7.25,17.75a0.52,0.52,0,0,1-.35.65Z"/><path class="cls-38" d="M548.57,803.46c0.74,3.53-.76,8.56-2.88,7.91-3.47-1.06-6.87-2.05-7.61-5.59s0.52-6.74,3.76-7.42S547.83,799.93,548.57,803.46Z"/><path class="cls-38" d="M535.59,834.28a1.81,1.81,0,0,1-1.21-2.43l4.24-12.72c0.33-1.4,2.12-3.11,3.52-2.78s1.67,2.52,1.34,3.92l-4.72,10.83,11.65,4.59a1.83,1.83,0,0,1,1.42,2.48c-0.27,1-1.31.91-2.36,0.7Z"/><path class="cls-40" d="M540.58,815.64a4.66,4.66,0,0,0-3.27,3.13c-1.06,2.77.15,4,.15,4l4.34,1.41s4.77,0,3.36-5.54C544.7,816.83,542.58,815,540.58,815.64Z"/><path class="cls-8" d="M548.76,801.8s-0.07.57-3.31,0.57c-1,0-3,7.29-1.6,12.47-1.17.59-6.7-3.35-8.72-4.73-0.15-2.81,2.31-12.08,7.33-12.27C547.8,797.65,548.76,801.8,548.76,801.8Z"/><path class="cls-40" d="M546.65,854.37h0a0.52,0.52,0,0,1-.47-0.57c1.12-12,2.35-18.4,3.67-19a0.66,0.66,0,0,1,.67.06,0.52,0.52,0,0,1-.27.93c-0.31.38-1.61,2.84-3,18.09A0.52,0.52,0,0,1,546.65,854.37Z"/><path class="cls-36" d="M539.22,852.09a0.52,0.52,0,0,1-.49-0.7c1.44-3.95,6.33-16.86,8.68-17.27a0.52,0.52,0,1,1,.18,1c-1.21.24-5,8.8-7.88,16.61A0.52,0.52,0,0,1,539.22,852.09Z"/><path class="cls-40" d="M535,846.74a0.52,0.52,0,0,1-.43-0.8c2.59-4,8.85-13.1,10.87-12.85a0.52,0.52,0,0,1-.14,1c-1.1,0-6,6.45-9.87,12.39A0.52,0.52,0,0,1,535,846.74Z"/><polygon class="cls-40" points="554.08 893.9 554.53 897.13 553.54 897.11 551.18 893.92 550.76 892.29 554.08 893.9"/><polygon class="cls-40" points="534.75 897.1 533.76 897.07 532.6 892.89 532.76 891.74 535.65 893.08 534.75 897.1"/><path class="cls-42" d="M1092.43,818.9l-5.82,5.62-7.44-5.92a3.1,3.1,0,0,0-4.1.37c-0.9,1.17-.23,2.67.93,3.57l13.76,11Z"/><path class="cls-42" d="M1085.86,803.51c0.4,3.82,1.14,7.64,4.64,7.27s8.42-4.78,8-8.6a6.14,6.14,0,0,0-7.08-5.53A6,6,0,0,0,1085.86,803.51Z"/><path class="cls-3" d="M1097.28,810.15c-3.64.17-9.14,4.51-9.17,11.4,0,5.31.74,16.8,5.11,26.77,1.69,3.56,5.36,3.13,7,2.94s4.58-3.61,4.37-6.37-2-15.9-1.47-21S1100.67,810,1097.28,810.15Z"/><path class="cls-42" d="M1092.62,839.2l15.94-7.78c1.14-.57,1.9-2.28,1-3.25l-9.51-14.65a4,4,0,0,0-4.65-.94c-1.23.82-2.21,3.22-1.39,4.44l8.54,11-13.42,7.49c-1.12.56-1.15,2.09-.11,3.13C1090.38,840,1092.62,839.2,1092.62,839.2Z"/><path class="cls-8" d="M1086.59,798.26s-1.38,2,.73,2.23,2.63-.16,2.63-0.16,3.42-1.09,3,2c1.3-.59,1.79-0.5,2.13.4,0.88,2.36,0,2.9,0,2.9l1.16,1.78a5.8,5.8,0,0,0,2.27-5.41c-0.49-3.52-2.88-6-5.52-6.07S1087.59,796.31,1086.59,798.26Z"/><path class="cls-2" d="M1096.17,811.15s2-1.18,6,3.23a27,27,0,0,1,3.64,5.86l-7.2,5.21s-6.25-7.87-6.29-9.76S1094,811.28,1096.17,811.15Z"/><path class="cls-43" d="M1104,840.15l0.72,5.19s-7.67,2.37-12.34-.64C1092.57,843.29,1104,840.15,1104,840.15Z"/><path class="cls-30" d="M1098.57,801.93L1086,800.82s-1.31-5.45,7-5.77C1097.46,795.9,1098.32,798.69,1098.57,801.93Z"/><path class="cls-30" d="M1086.53,800.83l-6-.21a1.58,1.58,0,0,1,1.65-1.71l6-.21Z"/><path class="cls-44" d="M1093,795s-3.78.34-5.93,5.79c0.08,0-1-2.23-1-2.23S1087,795,1093,795Z"/><path class="cls-43" d="M1104.39,866.44l1.66,6.68-1.66.07-2.49-2.6h-0.08l-0.45-4.87Z"/><path class="cls-3" d="M1092.87,845c1.84-.3,4,3.92,3.77,5.77-0.48,3.58-5.84,7.52-9.08,9.61l-6.75-6.75C1084.51,849.91,1089.48,845.56,1092.87,845Z"/><path class="cls-45" d="M1075.77,859.07s2.13-2.52,5-5.44l6.75,6.75c-1.43.92-2.44,1.47-2.44,1.47l16.24,3.86,0.45,4.87c-1.42-.14-22.24-2.27-23.14-2.63C1072.57,865.49,1075.55,859.28,1075.77,859.07Z"/><polygon class="cls-46" points="1116.14 891.17 1110.84 896.51 1109.81 895.33 1109.96 891.6 1114.27 888.58 1116.14 891.17"/><path class="cls-2" d="M1095.37,844.57c1.28-1.36,8.36-4.4,10.38,3.48,1.05,4.12-1,3.65-1.14,6.32a106.21,106.21,0,0,1-1.46,11L1093,864.22C1093,857.4,1093.23,846.84,1095.37,844.57Z"/><path class="cls-42" d="M1093.19,870.14s-0.12-2.49-.15-5.92l10.11,1.17c-0.63,3.53-1.21,6.14-1.21,6.14l12.32,17-4.31,3-15.44-17.1A6.18,6.18,0,0,1,1093.19,870.14Z"/><path class="cls-38" d="M383.79,819.06c0.49,3.84-2.49,6.17-5.89,7.55-3.83,1.55-5.43-.43-6.7-5.93a6.34,6.34,0,0,1,5.57-7.59C380.39,812.64,383.3,815.22,383.79,819.06Z"/><path class="cls-10" d="M371.55,817s-0.31.63,1.77,0.82a4.32,4.32,0,0,0,3.23-.89s1.26,0.07,1.14,2.71a0.71,0.71,0,0,0,.41.25c0.67-.77,1.46-1,1.82-0.13,0.94,2.29.08,2.85,0.08,2.85l3.46,2.46a17.19,17.19,0,0,0,.5-6.42c-0.52-4.37-3.24-6.13-5.82-6.1-2.1,0-2.82.32-4.82,1.69a6.43,6.43,0,0,1-.79,1.36A8.25,8.25,0,0,0,371.55,817Z"/><path class="cls-8" d="M389.82,833.19c0.05,0.7.14,2.15,0.19,3.24l1,19.6a2.06,2.06,0,0,0,2.07,1.93l4.53-.08a1.88,1.88,0,0,0,1.85-2l-0.55-9.08a11.13,11.13,0,0,0-1-3.72l-2.52-4.86a13.12,13.12,0,0,1-1.14-3.71l-0.11-.89a2.12,2.12,0,0,0-2.21-1.83H391.7C390.61,831.87,389.77,832.49,389.82,833.19Z"/><path class="cls-47" d="M377.1,896.09l3.16-19.38s6.57-13.44,5.37-17.44c-0.43-1.44-7-3.72-8.09-2.73-2.93,2.56-5.22,17.64-5.22,17.64a3,3,0,0,0-.19.71l-2.33,18.59-1.45,1.14-0.14.72Z"/><path class="cls-10" d="M389.19,896.06l7.71-3.92-7.83-17.25s-0.7-9.2-1.25-13.73c-0.26-2.14,1.19-2.46-1-5.06s-8.08-.39-8.63,1c-1.38,3.51,2.66,20.71,2.66,20.71a3,3,0,0,0,.38.82L388.67,894l0.11,1.49Z"/><path class="cls-30" d="M375.73,835.35c0.69-5.51,5.5-8.45,8.43-8.23,2.73,0.2,4.53,7.08,4.52,11.73,0,3.75.22,12.77,0.23,16.64,0.15,3.08.31,6.09,0.36,6.23-2.52.79-3-.67-5-1.72a2.26,2.26,0,0,1-1.47-.4c-0.74-.16-2-2.08-4.07.37a7.25,7.25,0,0,1-3.42.52s0.29-2.92.37-4.78C373.92,847.82,375.24,839.27,375.73,835.35Z"/><path class="cls-31" d="M383.8,861.46l-0.08,0a15,15,0,0,0-2.25-1.38,9.14,9.14,0,0,1,.4-2.48l2.29-10.91L381,832.29c-0.39-1.12.87-2.78,2-3.17a3.22,3.22,0,0,1,3.42,1.7L389.06,846a2.15,2.15,0,0,1-.17,1.76L385,859.43A10.69,10.69,0,0,1,383.8,861.46Z"/><path class="cls-21" d="M379.6,812a0.35,0.35,0,0,1,0-.22,1.24,1.24,0,0,1,1.92.75,0.34,0.34,0,0,1-.12.14c3,1.63,3.37,5.17,2.83,7.82a39.6,39.6,0,0,1,4.68,1.77,2.41,2.41,0,0,1,.43,1.29l-5.46-1.8h0l-12.77-4.14S372.81,810.34,379.6,812Z"/><path class="cls-8" d="M376.68,819.47a3,3,0,0,1,3.31-2.2l2.56-4.79a0.94,0.94,0,1,1,1.66.89l-2.62,4.89,0,0.06a3.25,3.25,0,0,1,.36,2.79A2.76,2.76,0,1,1,376.68,819.47Z"/><path class="cls-48" d="M504.44,732.42a5.37,5.37,0,0,0,3.56-6c-0.42-3.29-1.53-4.05,0-6.5,0,0-5,3.36-4.31,7.34S505.33,731.43,504.44,732.42Z"/><path class="cls-48" d="M508.19,743.62l4.2,1.39a8.66,8.66,0,0,1-.23,1.66c-0.7.9-3.37,6.83-5.62,12h14.83c-0.28-7.35-.55-14.53-0.56-14.53s0.79-6.39.85-8.28c0-1.23-2.22-6.16-5.22-8.42l-0.23-1.57a10.79,10.79,0,0,0,1.58,0c2.81-.15,3.42-4.58,2.35-7.8a8.32,8.32,0,0,0-.55-1.27l0.35-.22a6.92,6.92,0,0,0-6.31-3,5.87,5.87,0,0,0-4.83,3.76c-1.61,4.29,2.7,6.64,2.7,6.64l0,0a6.23,6.23,0,0,0,1,.73v1.91a3.63,3.63,0,0,0-1.12,1.62,4.41,4.41,0,0,0-1.71,2.21c-0.84,2.19,0,3.21.1,3.36l-2.6,7.8A1.54,1.54,0,0,0,508.19,743.62Zm3.28-4c0.16,0.58.33,1.16,0.47,1.74l-1-.41Z"/><path class="cls-48" d="M608.79,722.65a7.67,7.67,0,0,0,1.36,0l-0.22,3.16a9.92,9.92,0,0,0-3,6,62,62,0,0,0,.7,19.23c0.09,1.17,0,3.22,0,3.22a1.26,1.26,0,0,0,.31.11,5.75,5.75,0,0,0,.07.68,20,20,0,0,0-2.46,3.42h13.77c-0.4-1.84.91-2.82-1.13-5.27l0.3-.08c-0.06-.17-0.17-1.91-0.24-3.27,0-1.08,0-2.36,0-3.72l-3.13,10.58a2,2,0,0,0,1.91,1.69,2.24,2.24,0,0,0,.58-0.08c1.18-.32,1.37-1.66,1.05-2.85l3.63-13-2-6.44,0.59-.29-0.24-1-1.43-4.06h0c-0.33-3.62-1.67-7.28-3.63-7.43a5,5,0,0,0-1.08.06v-1.92q0.34-.17.66-0.37v0s3.46-1.47,3.87-4.75c0.49-4-.94-5.88-3.26-6.67a9.22,9.22,0,0,0-5.62-.15,7.29,7.29,0,0,1-2.25.17,2.36,2.36,0,0,0,.1,1.95,0.8,0.8,0,0,0,.11.28,6.83,6.83,0,0,0-1.42,2.93C606,718.38,606.12,722.32,608.79,722.65Z"/><path class="cls-49" d="M1005.06,703.71a7.67,7.67,0,0,0,1.36,0l-0.22,3.16a9.92,9.92,0,0,0-3,6,62,62,0,0,0,.7,19.23c0.09,1.17,0,3.22,0,3.22a1.26,1.26,0,0,0,.31.11,5.75,5.75,0,0,0,.07.68,20,20,0,0,0-2.46,3.42h13.77c-0.4-1.84.91-2.82-1.13-5.27l0.3-.08c-0.06-.17-0.17-1.91-0.24-3.27,0-1.08,0-2.36,0-3.72l-3.13,10.58a2,2,0,0,0,1.91,1.69,2.24,2.24,0,0,0,.58-0.08c1.18-.32,1.37-1.66,1.05-2.85l3.63-13-2-6.44,0.59-.29-0.24-1-1.43-4.06h0c-0.33-3.62-1.67-7.28-3.63-7.43a5,5,0,0,0-1.08.06v-1.92q0.34-.17.66-0.37v0s3.46-1.47,3.87-4.75c0.49-4-.94-5.88-3.26-6.67a9.22,9.22,0,0,0-5.62-.15,7.29,7.29,0,0,1-2.25.17,2.36,2.36,0,0,0,.1,1.95,0.8,0.8,0,0,0,.11.28A6.83,6.83,0,0,0,1003,696C1002.29,699.45,1002.4,703.38,1005.06,703.71Z"/><rect class="cls-10" x="1012" y="670.84" width="2.69" height="68.76"/><rect class="cls-10" x="1011.99" y="687.71" width="2.69" height="34.66" transform="translate(1718.38 -308.29) rotate(90)"/><path class="cls-21" d="M907.09,856.59s-3.42-10.5,12.39-23.36C919.48,833.23,926.44,856.47,907.09,856.59Z"/><path class="cls-9" d="M899.66,874.94a0.18,0.18,0,0,1-.18-0.16c-0.71-8.35,12-24.57,12.55-25.26a0.18,0.18,0,0,1,.28.22c-0.13.17-13.16,16.8-12.47,25a0.18,0.18,0,0,1-.16.19h0Z"/><path class="cls-21" d="M903.75,869s-11.17-6.51-6.92-16.66C896.82,852.34,909.13,861.71,903.75,869Z"/><path class="cls-3" d="M903.75,864.46s-10.35-12.11-6.33-25.92C897.41,838.54,910.55,844.24,903.75,864.46Z"/><path class="cls-3" d="M898.71,866.74s-15.34-6.25-13.57-19.23C885.14,847.51,900.36,853.52,898.71,866.74Z"/><path class="cls-2" d="M908.62,864.46s0.24-15.54,19.12-25C927.74,839.48,924.2,863.95,908.62,864.46Z"/><path class="cls-2" d="M899.66,868.43s-3.07-9-15.93-7.32C883.73,861.11,887.27,871.06,899.66,868.43Z"/><path class="cls-9" d="M902.72,875.53a0.18,0.18,0,0,1-.17-0.12c0-.12-3.83-11.59-9.75-17.39a0.18,0.18,0,0,1,.25-0.25c6,5.86,9.8,17.42,9.84,17.54a0.18,0.18,0,0,1-.11.22h-0.06Z"/><path class="cls-9" d="M906.78,875.53a0.18,0.18,0,0,1-.17-0.13c-2.44-9.56,6.93-17.1,7-17.17a0.18,0.18,0,0,1,.22.28c-0.09.07-9.28,7.48-6.9,16.81a0.18,0.18,0,0,1-.13.21h0Z"/><path class="cls-9" d="M910.06,875.53a0.18,0.18,0,0,1-.13-0.06c-0.08-.09-8.32-9.59-8.08-20.23a0.17,0.17,0,0,1,.18-0.17,0.18,0.18,0,0,1,.17.18c-0.23,10.5,7.91,19.89,8,20a0.18,0.18,0,0,1,0,.25A0.18,0.18,0,0,1,910.06,875.53Z"/><path class="cls-9" d="M905.11,874.94a0.18,0.18,0,0,1-.15-0.09c0-.07-4.42-7.38-10.06-8.53A0.18,0.18,0,1,1,895,866c5.79,1.18,10.11,8.39,10.29,8.7a0.18,0.18,0,0,1-.06.24Z"/><path class="cls-9" d="M903.75,876.55h0a0.18,0.18,0,0,1-.17-0.19c0-.07.34-6.58-0.55-10.17a0.18,0.18,0,1,1,.34-0.08c0.9,3.63.56,10.2,0.56,10.27A0.18,0.18,0,0,1,903.75,876.55Z"/><polygon class="cls-29" points="892.51 874.1 892.51 876.73 893.46 876.73 896.98 893.53 894.71 893.53 894.71 896.18 913.68 896.18 913.68 893.53 911.41 893.53 914.93 876.73 915.88 876.73 915.88 874.1 892.51 874.1"/><path class="cls-48" d="M673.76,847.95s-1.45-1.76-6.2-1.47a9.19,9.19,0,0,1,3.76-2c2-.59,6.13,1.86,6.13,1.86s-5.58-7.21-12.65.54l-0.92.18a7.63,7.63,0,0,0-3.11,1.41,6.3,6.3,0,0,1,1.19-2.72c5.07-5.5,3.82-11.29,3.82-11.29a22.59,22.59,0,0,1-5.13,9.44,8.18,8.18,0,0,0-1.87,5.22,2.79,2.79,0,0,0-1.4-.4,6.59,6.59,0,0,0-1.13,0,7.14,7.14,0,0,0-5.2-4.12c-3.07-.72-4.51,2.27-4.51,2.27a8.43,8.43,0,0,1,3.2-.39c1.69,0.05,3,1.29,4.08,2.93-4.15,2.47-4.08,10.54-4.08,10.54s1.65-6.1,2.9-7a8.51,8.51,0,0,1,2.31-1.38,31.09,31.09,0,0,1,1.82,5.86h-3.55a0.59,0.59,0,1,0,0,1.17h0.23c-0.07,1.5,0,5.52,2.36,7.75a0.63,0.63,0,0,0,.46,1.06h7.45a0.63,0.63,0,0,0,.46-1.06c2.36-2.23,2.43-6.25,2.36-7.75h0.23a0.59,0.59,0,0,0,0-1.17h-3.06a20.06,20.06,0,0,1,.11-2.41,5.69,5.69,0,0,1,1.78-.67c4.06-.89,4.68,4.66,4.68,4.66,0.61-3.59-1.49-6.07-5-6.23,6.4-1.49,6.13,7.2,6.13,7.2,1.84-8.84-3.28-9-6.86-8.42a12.42,12.42,0,0,1,1.54-3.25A18.35,18.35,0,0,1,673.76,847.95Zm-15.31,4a10.7,10.7,0,0,0-.4,2.83c-0.24-1.19-.54-2.44-0.83-3.49A3.31,3.31,0,0,1,658.46,852Zm3,1.72c-0.12-.47-0.27-0.94-0.43-1.4a6.91,6.91,0,0,1,1.43-2.06A15.12,15.12,0,0,0,661.46,853.68Z"/><path class="cls-24" d="M235.39,873.92H207.87a1.54,1.54,0,0,0-1.54,1.54v1.75a1.54,1.54,0,0,0,1.54,1.54h2.92c-0.52,2.75-1.07,9.41,4.37,13.7a1.43,1.43,0,0,0,.62,2.73h11.7a1.43,1.43,0,0,0,.62-2.73c5.44-4.29,4.88-11,4.37-13.7h2.92a1.54,1.54,0,0,0,1.54-1.54v-1.75A1.54,1.54,0,0,0,235.39,873.92Z"/><path class="cls-2" d="M223.42,866.45s-2.38-1.46-1-3.2a6.64,6.64,0,0,1,2.84-2.2s4.37,2.42.76,5.4A7,7,0,0,1,223.42,866.45Z"/><path class="cls-3" d="M226.21,853.44a3.84,3.84,0,0,1,1.91-3.36,3.82,3.82,0,0,0,2.25-2.2s3.08,5.75-.74,5.77C228.47,852.48,226.21,853.44,226.21,853.44Z"/><path class="cls-3" d="M216.2,857.92s-2.21-5.39,2.33-7.16a10.65,10.65,0,0,1-.31,5.26C217.3,858.33,216.2,857.92,216.2,857.92Z"/><path class="cls-3" d="M216.41,863.19a6.41,6.41,0,0,1-3.11.62c-1.23-.26-2.51-2.25-2.51-2.25S216,858.43,216.41,863.19Z"/><path class="cls-3" d="M220.9,858.63a1.33,1.33,0,0,1-1.5-1.37,17.67,17.67,0,0,1,1.5-4.56s4.42,0.86,2.63,2.81A37,37,0,0,0,220.9,858.63Z"/><path class="cls-21" d="M224.15,854.93s-1.74,6.18,4.83,4.78c0,0,1.65-3.18-.61-4.05S225.56,854.4,224.15,854.93Z"/><path class="cls-21" d="M230.43,870.6s3.37-.24,3.84,2.74l0.46,3S229.26,876.94,230.43,870.6Z"/><path class="cls-2" d="M230.06,875.34s-3.65,1.95-3.31,5,0,2.66,0,2.66S232.57,882.82,230.06,875.34Z"/><path class="cls-21" d="M210.73,880.78a4.27,4.27,0,0,0-2.19,5.11c1.08,3.54,2.72,4.16,2.72,4.69C211.25,890.59,217.39,883.67,210.73,880.78Z"/><path class="cls-3" d="M213.83,872.73s3.32-1.75,4.08,1.48,0.66,5.28.82,5.43C218.73,879.64,212.87,881.4,213.83,872.73Z"/><path class="cls-2" d="M213.26,876.33s-5.29-4.94-5.65,2.65A4.27,4.27,0,0,0,213.26,876.33Z"/><path class="cls-2" d="M214.77,869.16s-4.22-1-4.33,1.83-0.77,2.92-.77,2.92S214.8,875.33,214.77,869.16Z"/><path class="cls-21" d="M221.68,871s-1.5-3.95-5.27-.39C216.41,870.6,218.68,875.91,221.68,871Z"/><path class="cls-3" d="M222,872.08s1.29-3.34,4.7-3C226.75,869.11,226.6,874.43,222,872.08Z"/><path class="cls-9" d="M221.33,873.92c-0.33-1.32-1.86-7.11-3.28-8.07s-2.19-5.42-1.78-8.24l-0.3,0c-0.39,2.66.24,7.41,1.91,8.54a5.05,5.05,0,0,1,1.26,2,2.18,2.18,0,0,0-1.7-.75A5,5,0,0,0,214,870.1a4.08,4.08,0,0,0-.12,3.16,9,9,0,0,1-2.3,5.2c-1.66,1.66-1.2,3.73-.87,5.24a6.93,6.93,0,0,1,.21,1.32h0.31a7.08,7.08,0,0,0-.22-1.39c-0.33-1.52-.75-3.42.79-5a9,9,0,0,0,2.32-4.84,6.78,6.78,0,0,0,.63,1l0.25-.18a4.25,4.25,0,0,1-.71-4.45,4.77,4.77,0,0,1,3.16-2.57c1.31-.08,2.14,1.61,2.14,1.63h0c0.66,1.82,1.21,3.85,1.41,4.63h0.32Z"/><path class="cls-2" d="M216.16,859a1.14,1.14,0,0,0-1-.87c-0.87-.1-3.28-3.38-1.85-6.25C213.3,851.92,219.69,856.79,216.16,859Z"/><path class="cls-3" d="M228.67,866.83a1.88,1.88,0,0,1,2.57-.92c1.69,0.87,4-.24,4-0.24s0.67,3.93-1.85,4.13S229,869.81,228.67,866.83Z"/><path class="cls-21" d="M237.77,884s-2.63,1.73-.84,4a19.31,19.31,0,0,0,2.92,3.18S244.55,884.44,237.77,884Z"/><path class="cls-2" d="M224,844s-2.8-2.24.28-6.34c0,0,2.92,1.95,2.72,4S225.67,844,224,844Z"/><path class="cls-9" d="M238.52,885.89l0.29-.1c-0.69-2.07-2-4.92-5.12-5.84-3-.86-3.07-1.49-3.34-3.16l0-.2a8.2,8.2,0,0,1,.08-2.36,10.72,10.72,0,0,0-.09-4.2,5.26,5.26,0,0,0-2.29-3,8,8,0,0,1,1.6.27l0.08-.3a7.34,7.34,0,0,0-2.32-.29,5.09,5.09,0,0,0-1.33-.32c-1.78-.18-3.54.56-4,1.34a6.43,6.43,0,0,0-.38,2.93,21.79,21.79,0,0,0-1-2.39,8.34,8.34,0,0,1-1.17-4,11.31,11.31,0,0,1,2.75-6.95h0l0,0a10.74,10.74,0,0,1,1-1,3.34,3.34,0,0,0,.58-0.66c1.24-1.21,3-2.59,4.22-2.41,2.09,0.3,4.43,3.48,5,4.69l0.28-.13c-0.46-1-2.86-4.53-5.24-4.87-1.17-.17-2.67.86-3.88,1.94,0.64-1.9-.33-4.38-1.22-6.25a3.44,3.44,0,0,1,.3-3,5.65,5.65,0,0,1,1.79-2.16H225l0.15-.27c-0.11-.06-0.28-0.06-0.74.38-0.81.76-2.69,3.18-1.73,5.19s2.06,4.85.89,6.69a22.56,22.56,0,0,0-1.55,1.66,11.63,11.63,0,0,0-2.84,7.15,8.7,8.7,0,0,0,1.2,4.14,16.2,16.2,0,0,1,1.39,3.67c0.06,0.72.14,1.36,0.2,1.8h0.36a12.11,12.11,0,0,0-.25-1.84c-0.13-1.55-.18-3.42.25-4.15a4.34,4.34,0,0,1,3.7-1.19,4.77,4.77,0,0,1,.66.11,3.22,3.22,0,0,0-1.56.82c-1.69,1.63-1.36,4.9-1.14,6.24h0.31c-0.2-1.26-.54-4.48,1-6a3.13,3.13,0,0,1,2-.82,4.78,4.78,0,0,1,2.69,3,10.45,10.45,0,0,1,.08,4.07,8.42,8.42,0,0,0-.08,2.45l0,0.2c0.22,1.37.35,2.14,2,2.87a14,14,0,0,1,.51,4.18h0.31a14.27,14.27,0,0,0-.46-4c0.34,0.13.73,0.26,1.18,0.39a6,6,0,0,1,1.77.85,12.61,12.61,0,0,0,1.43,10.16l0.26-.17a12.29,12.29,0,0,1-1.42-9.8A9.48,9.48,0,0,1,238.52,885.89Z"/><path class="cls-3" d="M232.82,882.72s-2.76,1.22-2.15,3.17a19.71,19.71,0,0,0,2.15,4.21S239.22,883.74,232.82,882.72Z"/><path class="cls-2" d="M231.56,855.86s-2,1.75-1.39,3.13,3.08,1.74,3.28,2.87c0,0,3.95-3.9,1.13-5.79A2.31,2.31,0,0,0,231.56,855.86Z"/><path class="cls-50" d="M219.14,844.82a3.55,3.55,0,0,1-.95-4s3.19-.28,3.13,2.72S221,845.79,219.14,844.82Z"/><path class="cls-2" d="M222.92,848.68s-7.26,2.06-7.26-4.24V844S221,842.63,222.92,848.68Z"/><path class="cls-29" d="M1023.37,615.38h-20a1,1,0,0,0-1.12.69v0.79a1,1,0,0,0,1.12.69h2.12c-0.37,1.24-.78,4.23,3.17,6.16a0.71,0.71,0,0,0-.59.58,0.92,0.92,0,0,0,1,.65h8.5a0.92,0.92,0,0,0,1-.65,0.71,0.71,0,0,0-.59-0.58c3.95-1.93,3.55-4.92,3.17-6.16h2.12a1,1,0,0,0,1.12-.69v-0.79A1,1,0,0,0,1023.37,615.38Z"/><path class="cls-2" d="M1014.68,610s-1.73-1.06-.73-2.32A4.82,4.82,0,0,1,1016,606s3.17,1.76.55,3.92A5.06,5.06,0,0,1,1014.68,610Z"/><path class="cls-3" d="M1016.7,600.51a2.79,2.79,0,0,1,1.38-2.44,2.78,2.78,0,0,0,1.64-1.6s2.23,4.18-.54,4.19C1018.35,599.82,1016.7,600.51,1016.7,600.51Z"/><path class="cls-3" d="M1009.44,603.76s-1.61-3.91,1.69-5.2a7.73,7.73,0,0,1-.22,3.82C1010.24,604.06,1009.44,603.76,1009.44,603.76Z"/><path class="cls-3" d="M1009.59,607.6a4.65,4.65,0,0,1-2.26.45,4.21,4.21,0,0,1-1.82-1.64S1009.28,604.14,1009.59,607.6Z"/><path class="cls-3" d="M1012.85,604.28a1,1,0,0,1-1.09-1,12.83,12.83,0,0,1,1.09-3.31s3.21,0.63,1.91,2A26.85,26.85,0,0,0,1012.85,604.28Z"/><path class="cls-21" d="M1015.21,601.59s-1.26,4.48,3.51,3.47c0,0,1.19-2.31-.44-2.94S1016.24,601.21,1015.21,601.59Z"/><path class="cls-21" d="M1019.77,613s2.45-.17,2.78,2l0.33,2.16S1018.92,617.58,1019.77,613Z"/><path class="cls-2" d="M1019.5,616.41s-2.65,1.41-2.4,3.65,0,1.93,0,1.93S1021.33,621.85,1019.5,616.41Z"/><path class="cls-21" d="M1005.47,620.37a3.1,3.1,0,0,0-1.59,3.71c0.78,2.57,2,3,2,3.41C1005.85,627.48,1010.3,622.46,1005.47,620.37Z"/><path class="cls-3" d="M1007.72,614.52s2.41-1.27,3,1.07,0.48,3.83.59,3.94S1007,620.82,1007.72,614.52Z"/><path class="cls-2" d="M1007.31,617.13s-3.84-3.58-4.1,1.92A3.1,3.1,0,0,0,1007.31,617.13Z"/><path class="cls-2" d="M1008.4,611.93s-3.06-.76-3.14,1.33-0.56,2.12-.56,2.12S1008.42,616.41,1008.4,611.93Z"/><path class="cls-21" d="M1013.42,613.25s-1.09-2.87-3.83-.28C1009.59,613,1011.24,616.83,1013.42,613.25Z"/><path class="cls-3" d="M1013.68,614a3.41,3.41,0,0,1,3.42-2.16S1017,615.75,1013.68,614Z"/><path class="cls-9" d="M1013.16,615.38c-0.24-1-1.35-5.16-2.38-5.86s-1.59-3.94-1.29-6l-0.22,0c-0.28,1.93.17,5.38,1.39,6.2a3.67,3.67,0,0,1,.92,1.45,1.58,1.58,0,0,0-1.23-.55,3.66,3.66,0,0,0-2.48,2,3,3,0,0,0-.09,2.29,6.53,6.53,0,0,1-1.67,3.77c-1.2,1.2-.87,2.71-0.63,3.81a5,5,0,0,1,.15,1h0.22a5.14,5.14,0,0,0-.16-1c-0.24-1.11-.54-2.48.57-3.6a6.5,6.5,0,0,0,1.68-3.51,4.92,4.92,0,0,0,.45.75l0.18-.13a3.08,3.08,0,0,1-.52-3.23,3.46,3.46,0,0,1,2.3-1.87,2,2,0,0,1,1.56,1.18h0c0.48,1.32.88,2.8,1,3.36h0.23Z"/><path class="cls-2" d="M1009.41,604.58a0.83,0.83,0,0,0-.74-0.63c-0.63-.07-2.38-2.46-1.34-4.54C1007.34,599.41,1012,602.94,1009.41,604.58Z"/><path class="cls-3" d="M1018.49,610.24a1.37,1.37,0,0,1,1.87-.67,3.89,3.89,0,0,0,2.94-.17s0.48,2.85-1.34,3S1018.71,612.4,1018.49,610.24Z"/><path class="cls-21" d="M1025.1,622.71s-1.91,1.25-.61,2.93a14,14,0,0,0,2.12,2.31S1030,623,1025.1,622.71Z"/><path class="cls-2" d="M1015.13,593.63s-2-1.63.2-4.6c0,0,2.12,1.41,2,2.94S1016.31,593.66,1015.13,593.63Z"/><path class="cls-9" d="M1025.65,624.08l0.21-.07c-0.5-1.5-1.43-3.57-3.72-4.24s-2.23-1.08-2.43-2.29l0-.15a6,6,0,0,1,.06-1.71,7.78,7.78,0,0,0-.06-3,3.82,3.82,0,0,0-1.67-2.15,5.78,5.78,0,0,1,1.16.19l0.06-.22a5.33,5.33,0,0,0-1.69-.21,3.69,3.69,0,0,0-1-.23,3.35,3.35,0,0,0-2.9,1,4.67,4.67,0,0,0-.27,2.13,15.82,15.82,0,0,0-.75-1.73,6.05,6.05,0,0,1-.85-2.91,8.21,8.21,0,0,1,2-5h0v0a7.8,7.8,0,0,1,.7-0.71,2.42,2.42,0,0,0,.42-0.48c0.9-.88,2.16-1.88,3.06-1.75,1.52,0.22,3.22,2.53,3.64,3.41l0.2-.1c-0.34-.71-2.07-3.29-3.81-3.53-0.85-.12-1.94.63-2.82,1.41,0.46-1.38-.24-3.18-0.89-4.54a2.49,2.49,0,0,1,.22-2.17,4.1,4.1,0,0,1,1.3-1.57h0l0.11-.19c-0.08,0-.2,0-0.53.27-0.59.55-2,2.31-1.26,3.77s1.5,3.52.65,4.86a16.38,16.38,0,0,0-1.13,1.21,8.44,8.44,0,0,0-2.06,5.19,6.31,6.31,0,0,0,.87,3,11.77,11.77,0,0,1,1,2.66c0,0.52.1,1,.14,1.3h0.26a8.79,8.79,0,0,0-.18-1.33,6.81,6.81,0,0,1,.18-3,3.15,3.15,0,0,1,2.69-.86,3.46,3.46,0,0,1,.48.08,2.34,2.34,0,0,0-1.13.6c-1.23,1.18-1,3.56-.83,4.53h0.23c-0.15-.91-0.4-3.26.76-4.37a2.27,2.27,0,0,1,1.46-.6,3.47,3.47,0,0,1,1.95,2.21,7.59,7.59,0,0,1,.06,3,6.11,6.11,0,0,0-.06,1.78l0,0.15a2.12,2.12,0,0,0,1.46,2.08,10.15,10.15,0,0,1,.37,3h0.22a10.36,10.36,0,0,0-.33-2.94c0.25,0.09.53,0.19,0.86,0.28a4.33,4.33,0,0,1,1.28.61,9.15,9.15,0,0,0,1,7.38l0.19-.12a8.92,8.92,0,0,1-1-7.12A6.88,6.88,0,0,1,1025.65,624.08Z"/><path class="cls-3" d="M1021.51,621.77s-2,.89-1.56,2.3a14.31,14.31,0,0,0,1.56,3.05S1026.16,622.52,1021.51,621.77Z"/><path class="cls-2" d="M1024.79,627.61s-2-.63-1.9.89,2.16,3.39,1.9,4.5C1024.79,633,1028.92,627.24,1024.79,627.61Z"/><path class="cls-2" d="M1020.59,602.27s-1.42,1.27-1,2.27,2.23,1.27,2.38,2.08c0,0,2.86-2.83.82-4.2A1.68,1.68,0,0,0,1020.59,602.27Z"/><path class="cls-50" d="M1011.58,594.26a2.58,2.58,0,0,1-.69-2.92s2.32-.2,2.28,2S1012.89,595,1011.58,594.26Z"/><path class="cls-2" d="M1014.32,597.06s-5.27,1.49-5.27-3.08v-0.34S1012.91,592.66,1014.32,597.06Z"/><path class="cls-48" d="M682.37,752.54a1.79,1.79,0,0,0-.08-1.9,8.5,8.5,0,0,1,.29-1.77,5.43,5.43,0,0,1,1.49,1.92,1.92,1.92,0,0,0-.58,2.83,13.57,13.57,0,0,0,2.05,2.23s3.15-4.57-1.21-5a5,5,0,0,0-3.12-2.89c-0.29-.09-0.54-0.17-0.76-0.25,0-.22-0.06-0.43-0.1-0.61h2.05a1.08,1.08,0,0,0,1.08-1.08v-1.23a1.08,1.08,0,0,0-1.08-1.08h-0.73l-0.06-.41c-0.32-2.09-2.7-1.92-2.7-1.92v0c0-.15,0-0.29-0.08-0.45a4.54,4.54,0,0,0-.21-0.47,4.14,4.14,0,0,0,2.41.3c1.77-.14,1.3-2.91,1.3-2.91a3.76,3.76,0,0,1-2.85.17,1.32,1.32,0,0,0-1.81.65h0a4.51,4.51,0,0,0-.92-0.06,3.58,3.58,0,0,0-.94-0.23c2.54-2.09-.54-3.8-0.54-3.8a4.67,4.67,0,0,0-2,1.55c-1,1.23.7,2.25,0.7,2.25s0.25,0,.59.07a2.5,2.5,0,0,0-1.57.86,4.52,4.52,0,0,0-.27,2.06,15.32,15.32,0,0,0-.72-1.68,5.86,5.86,0,0,1-.82-2.81,8,8,0,0,1,1.93-4.88h0v0a7.54,7.54,0,0,1,.68-0.69,2.34,2.34,0,0,0,.4-0.47l0.19-.18c-0.17,1-.31,3.8,3.47,3,0,0,1.16-2.24-.43-2.85-1.3-.5-1.79-0.77-2.48-0.65a3.38,3.38,0,0,1,2.21-1,4.77,4.77,0,0,1,2.51,1.81s-1.37,1.23-1,2.2,2.16,1.23,2.31,2c0,0,2.77-2.74.79-4.07a1.62,1.62,0,0,0-1.94-.26,5.39,5.39,0,0,0-2.37-1.82,1.4,1.4,0,0,1,.84.38c2.68,0,.52-4.06.52-4.06a2.69,2.69,0,0,1-1.59,1.55,2.7,2.7,0,0,0-1.34,2.36h0a7.65,7.65,0,0,0-1.47,1.06c0.45-1.34-.23-3.08-0.86-4.39a2.42,2.42,0,0,1,.21-2.1,5,5,0,0,1,.88-1.21,1.54,1.54,0,0,0,1.8-1.61c0.14-1.48-1.91-2.85-1.91-2.85-2.16,2.88-.19,4.46-0.19,4.46h0a4.4,4.4,0,0,0-1.16,2.41,4.85,4.85,0,0,0-.93-1.32,3.41,3.41,0,0,0,.18-1.4c0-2.11-2.2-1.91-2.2-1.91a2.51,2.51,0,0,0,.2,2.28,4.49,4.49,0,0,0-2,0V723c0,3.89,3.94,3.24,4.89,3v0a6.87,6.87,0,0,1,.91,4c-0.17-.85-2.13-1.23-2.13-1.23a12.42,12.42,0,0,0-1.05,3.21,0.93,0.93,0,0,0,1.05,1l0.23-.31a8.11,8.11,0,0,0-1.47,4.3,6.11,6.11,0,0,0,.85,2.91c0.16,0.33.33,0.69,0.48,1.06a1.75,1.75,0,0,0-.79-0.53,5.68,5.68,0,0,0-1.3-2.36c-0.85-.58-1.36-2.89-1.32-4.79a1.46,1.46,0,0,0,.71-1,2.73,2.73,0,0,0,.73-1.13,7.48,7.48,0,0,0,.22-3.7,2.92,2.92,0,0,0-2,2.45,12.52,12.52,0,0,0-1.7-1.63c-1,2,.68,4.32,1.3,4.4a0.77,0.77,0,0,1,.51.27,11.72,11.72,0,0,0,.13,2.29c-0.88-1.87-3.71-.17-3.71-0.17a4.08,4.08,0,0,0,1.77,1.59,4.33,4.33,0,0,0,2.14-.41,3.56,3.56,0,0,0,1.08,2,3.55,3.55,0,0,1,.89,1.41,1.53,1.53,0,0,0-1.19-.53,3.34,3.34,0,0,0-2,1.25c-0.38-.08-2.9-0.57-3,1.3s-0.54,2.05-.54,2.05h-1.26a1.08,1.08,0,0,0-1.08,1.08V746a1.07,1.07,0,0,0,.92,1c0,0.07,0,.12,0,0.2a3.48,3.48,0,0,0,2.2,0c0,0.25-.08.53-0.11,0.84a3,3,0,0,0-.09.51,2.94,2.94,0,0,0-1.34,3.48c0.76,2.49,1.91,2.92,1.91,3.3a9.46,9.46,0,0,0,.73-1,8.28,8.28,0,0,0,2,2.3,1,1,0,0,0,.44,1.92h8.23a1,1,0,0,0,.44-1.92,8.26,8.26,0,0,0,2.45-3.12,16.71,16.71,0,0,0,.87,1.47,9.93,9.93,0,0,0,1.62-2.2C682.38,753.68,682.51,753.45,682.37,752.54Zm-1.22-4.4a4.19,4.19,0,0,1,1.24.59,8.51,8.51,0,0,0-.31,1.73,3,3,0,0,0-1.45-.58c0-.23,0-0.44-0.06-0.65a13,13,0,0,0-.09-1.31C680.69,748,680.9,748.07,681.15,748.14Zm-2.23-4.45,0-.15,0,0.15h-0.07Zm-1.2-4.75a3.75,3.75,0,0,0,.07.39,3.35,3.35,0,0,0-.58-0.44Zm-10.51,3.94,0,0.11c0,0.25,0,.48,0,0.71h-1.27A2.3,2.3,0,0,0,667.22,742.87Zm2.84,0.82c-0.53-1.65-2.13-1.13-2.64-.91,0,0,0-.08,0-0.13a4.07,4.07,0,0,0,.52-2,3.28,3.28,0,0,1,1.91-1.34,1.8,1.8,0,0,1,1.45,1,2.86,2.86,0,0,0-2.19,1s1.22,2.86,2.94,1.25c0.13,0.46.24,0.85,0.29,1.08h-2.24Zm2.47,0c-0.06-.24-0.18-0.71-0.34-1.27a4.79,4.79,0,0,0,.46-0.61c0.06,0.2.12,0.4,0.17,0.62,0,0.5.1,1,.14,1.26h-0.42Zm0.68,0a8.51,8.51,0,0,0-.18-1.29,6.59,6.59,0,0,1,.18-2.91,3.05,3.05,0,0,1,2.6-.83,3.34,3.34,0,0,1,.46.08,2.26,2.26,0,0,0-1.1.58,3,3,0,0,0-.76,1.45A3.89,3.89,0,0,0,673,742.4a3.45,3.45,0,0,0,1.24.4c0,0.35.07,0.66,0.1,0.89h-1.17Zm1.29-.87c1.77,0,1.84-2.51,1.84-2.51a2.91,2.91,0,0,0-1.65.29,2.59,2.59,0,0,1,.64-1.14,2.2,2.2,0,0,1,1.41-.58,3.36,3.36,0,0,1,1.89,2.14,7,7,0,0,1,.08,2.67h-4.11C674.56,743.47,674.52,743.16,674.49,742.81Z"/><path class="cls-12" d="M243.23,155.63H25.59v-2a25,25,0,0,1,25-25,24.57,24.57,0,0,1,4.82.49,43.28,43.28,0,0,1,35-19A61.19,61.19,0,0,1,198.7,123.79c0.54,0,1.08,0,1.6,0a29.74,29.74,0,0,1,25.86,14.95,15,15,0,0,1,17.07,14.93v2Z"/><path class="cls-12" d="M415.65,333H267.12v-2a17.54,17.54,0,0,1,20.52-17.29A29.92,29.92,0,0,1,311.3,301a42,42,0,0,1,74,9.19H386a20.77,20.77,0,0,1,17.84,10.07A10.83,10.83,0,0,1,415.65,331v2Z"/><path class="cls-12" d="M752.9,535.66H604.37v-2a17.54,17.54,0,0,1,20.52-17.29,29.92,29.92,0,0,1,23.65-12.75,42,42,0,0,1,74,9.19h0.63A20.77,20.77,0,0,1,741,522.86a10.83,10.83,0,0,1,11.86,10.79v2Z"/><path class="cls-12" d="M1172.23,89.24a15,15,0,0,1,17.07-14.93,29.74,29.74,0,0,1,25.86-14.95c0.52,0,1.05,0,1.6,0A61.19,61.19,0,0,1,1325,45.77a43.28,43.28,0,0,1,35,19,24.57,24.57,0,0,1,4.82-.49,25,25,0,0,1,25,25v2H1172.23v-2Z"/><path class="cls-12" d="M1104.93,511.47a10.83,10.83,0,0,1,11.86-10.79,20.77,20.77,0,0,1,17.84-10.07h0.63a42,42,0,0,1,74-9.19,29.92,29.92,0,0,1,23.65,12.75,17.54,17.54,0,0,1,20.52,17.29v2H1104.93v-2Z"/><path class="cls-12" d="M1022.64,312.68a10.83,10.83,0,0,1,11.86-10.79,20.77,20.77,0,0,1,17.84-10.07H1053a42,42,0,0,1,74-9.19,29.92,29.92,0,0,1,23.65,12.75,17.54,17.54,0,0,1,20.52,17.29v2H1022.64v-2Z"/><path class="cls-2" d="M451,857.74a40.42,40.42,0,0,1-4.35,7.29,40.47,40.47,0,0,1,6.86,34.14h6.64A35.31,35.31,0,0,0,451,857.74Z"/><polygon class="cls-8" points="1231.34 885.1 1223.59 885.1 1216 885.1 1216 899.48 1231.34 899.48 1231.34 885.1"/><polygon class="cls-3" points="1186.91 874.4 1184.3 885.1 1216 885.1 1216 874.4 1186.91 874.4"/><rect class="cls-3" x="1216" y="874.4" width="7.59" height="10.7"/><polygon class="cls-2" points="1231.34 885.1 1262.88 885.1 1260.26 874.4 1231.34 874.4 1231.34 885.1"/><rect class="cls-2" x="1223.59" y="874.4" width="7.75" height="10.7"/><polygon class="cls-3" points="1187.59 845.63 1179.06 874.4 1186.91 874.4 1193.94 845.63 1187.59 845.63"/><polygon class="cls-3" points="1216 863.16 1223.59 863.16 1223.59 845.63 1193.94 845.63 1186.91 874.4 1216 874.4 1216 863.16"/><rect class="cls-3" x="1216" y="863.16" width="7.59" height="11.24"/><polygon class="cls-2" points="1260.26 874.4 1268.12 874.4 1259.58 845.63 1253.23 845.63 1260.26 874.4"/><polygon class="cls-2" points="1223.59 845.63 1223.59 863.16 1231.34 863.16 1231.34 874.4 1260.26 874.4 1253.23 845.63 1223.59 845.63"/><rect class="cls-2" x="1223.59" y="863.16" width="7.75" height="11.24"/><polygon class="cls-3" points="1223.59 695.55 1179.06 845.63 1187.59 845.63 1223.59 724.32 1223.59 695.55"/><polygon class="cls-3" points="1223.59 724.32 1187.59 845.63 1193.94 845.63 1223.59 724.32"/><polygon class="cls-3" points="1193.94 845.63 1223.59 845.63 1223.59 724.32 1193.94 845.63"/><polygon class="cls-2" points="1259.58 845.63 1268.12 845.63 1223.59 695.55 1223.59 724.32 1259.58 845.63"/><polygon class="cls-2" points="1253.23 845.63 1259.58 845.63 1223.59 724.32 1253.23 845.63"/><polygon class="cls-2" points="1223.59 724.32 1223.59 845.63 1253.23 845.63 1223.59 724.32"/><rect class="cls-51" y="896.19" width="1400" height="4.57"/><rect class="cls-2" y="900.94" width="1400" height="10.31"/></svg>